SplineFontDB: 3.0
FontName: Luna-ExtraLightItalic
FullName: Luna Extra Light Italic
FamilyName: Luna Extra Light
Weight: ExtraLight
Copyright: Copyright (c) 2013 - 2016, Juan Pablo del Peral [huertatipografica.com.ar], Cristiano Sobral [cssobral2013@gmail.com].
Version: 1.501;PS 001.000;hotconv 1.0.70;makeotf.lib2.5.58329 DEVELOPMENT
ItalicAngle: -7
UnderlinePosition: -348
UnderlineWidth: 40
Ascent: 1638
Descent: 410
sfntRevision: 0x00010000
LayerCount: 2
Layer: 0 1 "Back"  1
Layer: 1 1 "Fore"  0
XUID: [1021 633 1153022450 954477]
FSType: 4
OS2Version: 3
OS2_WeightWidthSlopeOnly: 0
OS2_UseTypoMetrics: 1
CreationTime: 1386077766
ModificationTime: 1462129107
PfmFamily: 81
TTFWeight: 200
TTFWidth: 5
LineGap: 0
VLineGap: 0
Panose: 0 0 3 0 0 0 0 0 0 0
OS2TypoAscent: 1638
OS2TypoAOffset: 0
OS2TypoDescent: -410
OS2TypoDOffset: 0
OS2TypoLinegap: 0
OS2WinAscent: 2176
OS2WinAOffset: 0
OS2WinDescent: 659
OS2WinDOffset: 0
HheadAscent: 2176
HheadAOffset: 0
HheadDescent: -659
HheadDOffset: 0
OS2SubXSize: 1331
OS2SubYSize: 1229
OS2SubXOff: -18
OS2SubYOff: 154
OS2SupXSize: 1331
OS2SupYSize: 1229
OS2SupXOff: 88
OS2SupYOff: 717
OS2StrikeYSize: 41
OS2StrikeYPos: 555
OS2Vendor: 'UKWN'
OS2CodePages: 20000193.00000000
OS2UnicodeRanges: 20000007.00000000.00000000.00000000
Lookup: 1 0 0 "'aalt' Access All Alternates lookup 0"  {"'aalt' Access All Alternates lookup 0 subtable"  } ['aalt' ('DFLT' <'dflt' > 'grek' <'dflt' > 'latn' <'CAT ' 'ESP ' 'MOL ' 'NLD ' 'ROM ' 'TRK ' 'dflt' > ) ]
Lookup: 3 0 0 "'aalt' Access All Alternates lookup 1"  {"'aalt' Access All Alternates lookup 1 subtable"  } ['aalt' ('DFLT' <'dflt' > 'grek' <'dflt' > 'latn' <'CAT ' 'ESP ' 'MOL ' 'NLD ' 'ROM ' 'TRK ' 'dflt' > ) ]
Lookup: 6 0 0 "'locl' Localized Forms in Latin lookup 2"  {"'locl' Localized Forms in Latin lookup 2 contextual 0"  "'locl' Localized Forms in Latin lookup 2 contextual 1"  } ['locl' ('latn' <'CAT ' > ) ]

StartChar: exclam
Encoding: 33 33 4
Width: 580
GlyphClass: 2
Flags: W
LayerCount: 2
Fore
SplineSet
457 1520 m 1,0,-1
 310 463 l 1,1,-1
 274 463 l 1,2,-1
 263 474 l 1,3,-1
 410 1520 l 1,4,-1
 421 1526 l 1,5,-1
 453 1526 l 1,6,-1
 457 1520 l 1,0,-1
240.5 89 m 128,-1,8
 262 89 262 89 274.5 76.5 c 128,-1,9
 287 64 287 64 287 42.5 c 128,-1,10
 287 21 287 21 274.5 8 c 128,-1,11
 262 -5 262 -5 240.5 -5 c 128,-1,12
 219 -5 219 -5 206.5 8 c 128,-1,13
 194 21 194 21 194 42.5 c 128,-1,14
 194 64 194 64 206.5 76.5 c 128,-1,7
 219 89 219 89 240.5 89 c 128,-1,8
EndSplineSet
EndChar

StartChar: quotedbl
Encoding: 34 34 5
Width: 517
GlyphClass: 2
Flags: W
LayerCount: 2
Fore
SplineSet
301 1473 m 1,0,-1
 231 1137 l 1,1,-1
 192 1132 l 1,2,-1
 187 1141 l 1,3,-1
 254 1477 l 1,4,-1
 296 1482 l 1,5,-1
 301 1473 l 1,0,-1
528 1473 m 1,6,-1
 457 1137 l 1,7,-1
 418 1132 l 1,8,-1
 413 1141 l 1,9,-1
 481 1477 l 1,10,-1
 523 1482 l 1,11,-1
 528 1473 l 1,6,-1
EndSplineSet
EndChar

StartChar: numbersign
Encoding: 35 35 6
Width: 1120
GlyphClass: 2
Flags: W
LayerCount: 2
Fore
SplineSet
771 873 m 1,0,-1
 695 572 l 1,1,-1
 978 572 l 1,2,-1
 985 565 l 1,3,-1
 980 526 l 1,4,-1
 684 526 l 1,5,-1
 570 75 l 1,6,-1
 532 75 l 1,7,-1
 526 84 l 1,8,-1
 637 526 l 1,9,-1
 361 526 l 1,10,-1
 247 75 l 1,11,-1
 210 75 l 1,12,-1
 203 84 l 1,13,-1
 315 526 l 1,14,-1
 54 526 l 1,15,-1
 47 532 l 1,16,-1
 51 572 l 1,17,-1
 327 572 l 1,18,-1
 404 873 l 1,19,-1
 142 873 l 1,20,-1
 136 880 l 1,21,-1
 140 920 l 1,22,-1
 416 920 l 1,23,-1
 523 1343 l 1,24,-1
 561 1343 l 1,25,-1
 565 1330 l 1,26,-1
 463 920 l 1,27,-1
 738 920 l 1,28,-1
 845 1343 l 1,29,-1
 882 1343 l 1,30,-1
 887 1330 l 1,31,-1
 784 920 l 1,32,-1
 1067 920 l 1,33,-1
 1074 913 l 1,34,-1
 1069 873 l 1,35,-1
 771 873 l 1,0,-1
726 873 m 1,36,-1
 448 873 l 1,37,-1
 374 572 l 1,38,-1
 649 572 l 1,39,-1
 726 873 l 1,36,-1
EndSplineSet
EndChar

StartChar: dollar
Encoding: 36 36 7
Width: 951
GlyphClass: 2
Flags: W
LayerCount: 2
Fore
SplineSet
628 1459 m 1,0,-1
 586 1151 l 1,1,2
 705 1147 705 1147 804 1100 c 1,3,-1
 787 1058 l 1,4,-1
 773 1056 l 1,5,6
 691 1100 691 1100 579 1105 c 1,7,-1
 506 595 l 1,8,9
 542 578 542 578 568 563.5 c 128,-1,10
 594 549 594 549 624.5 529 c 128,-1,11
 655 509 655 509 675.5 487.5 c 128,-1,12
 696 466 696 466 714.5 440 c 128,-1,13
 733 414 733 414 742 381.5 c 128,-1,14
 751 349 751 349 751 312 c 0,15,16
 751 194 751 194 659 102.5 c 128,-1,17
 567 11 567 11 425 -5 c 1,18,-1
 383 -290 l 1,19,-1
 348 -290 l 1,20,-1
 339 -280 l 1,21,-1
 378 -7 l 1,22,-1
 374 -7 l 2,23,24
 301 -7 301 -7 225.5 15 c 128,-1,25
 150 37 150 37 96 78 c 1,26,-1
 100 124 l 1,27,-1
 112 127 l 1,28,29
 166 84 166 84 237 62 c 128,-1,30
 308 40 308 40 376 40 c 2,31,-1
 383 40 l 1,32,-1
 455 565 l 1,33,34
 422 582 422 582 401.5 593 c 128,-1,35
 381 604 381 604 352 622 c 128,-1,36
 323 640 323 640 305 655 c 128,-1,37
 287 670 287 670 266.5 692 c 128,-1,38
 246 714 246 714 234.5 736 c 128,-1,39
 223 758 223 758 215 786.5 c 128,-1,40
 207 815 207 815 207 847 c 0,41,42
 207 964 207 964 299 1051.5 c 128,-1,43
 391 1139 391 1139 535 1149 c 1,44,-1
 581 1471 l 1,45,-1
 619 1471 l 1,46,-1
 628 1459 l 1,0,-1
254 845 m 0,47,48
 254 817 254 817 261.5 792.5 c 128,-1,49
 269 768 269 768 284.5 747 c 128,-1,50
 300 726 300 726 317 709 c 128,-1,51
 334 692 334 692 360.5 675 c 128,-1,52
 387 658 387 658 409 645.5 c 128,-1,53
 431 633 431 633 463 617 c 1,54,-1
 530 1102 l 1,55,56
 406 1091 406 1091 330 1015 c 128,-1,57
 254 939 254 939 254 845 c 0,47,48
705 315 m 0,58,59
 705 342 705 342 697.5 367 c 128,-1,60
 690 392 690 392 675 412.5 c 128,-1,61
 660 433 660 433 643 450.5 c 128,-1,62
 626 468 626 468 600.5 485 c 128,-1,63
 575 502 575 502 553 515 c 128,-1,64
 531 528 531 528 499 544 c 1,65,-1
 432 44 l 1,66,67
 552 61 552 61 628.5 140.5 c 128,-1,68
 705 220 705 220 705 315 c 0,58,59
EndSplineSet
EndChar

StartChar: percent
Encoding: 37 37 8
Width: 1865
GlyphClass: 2
Flags: W
LayerCount: 2
Fore
SplineSet
1586 1550 m 1,0,-1
 1590 1531 l 1,1,-1
 243 -210 l 1,2,-1
 225 -201 l 1,3,-1
 217 -180 l 1,4,-1
 1562 1562 l 1,5,-1
 1586 1550 l 1,0,-1
565 1490 m 0,6,7
 696 1490 696 1490 764.5 1407.5 c 128,-1,8
 833 1325 833 1325 833 1172 c 0,9,10
 833 948 833 948 733.5 819.5 c 128,-1,11
 634 691 634 691 453 691 c 0,12,13
 364 691 364 691 303.5 728 c 128,-1,14
 243 765 243 765 212.5 836 c 128,-1,15
 182 907 182 907 182 1009 c 0,16,17
 182 1157 182 1157 227 1265 c 128,-1,18
 272 1373 272 1373 358.5 1431.5 c 128,-1,19
 445 1490 445 1490 565 1490 c 0,6,7
553 1446 m 0,20,21
 398 1446 398 1446 312.5 1332 c 128,-1,22
 227 1218 227 1218 227 1018 c 0,23,24
 227 928 227 928 254 865 c 128,-1,25
 281 802 281 802 334.5 768.5 c 128,-1,26
 388 735 388 735 465 735 c 0,27,28
 567 735 567 735 640.5 786.5 c 128,-1,29
 714 838 714 838 752.5 934.5 c 128,-1,30
 791 1031 791 1031 791 1165 c 0,31,32
 791 1301 791 1301 730 1373.5 c 128,-1,33
 669 1446 669 1446 553 1446 c 0,20,21
1466 791 m 0,34,35
 1597 791 1597 791 1666 709 c 128,-1,36
 1735 627 1735 627 1735 474 c 0,37,38
 1735 251 1735 251 1635.5 122 c 128,-1,39
 1536 -7 1536 -7 1354 -7 c 0,40,41
 1222 -7 1222 -7 1152.5 75 c 128,-1,42
 1083 157 1083 157 1083 310 c 0,43,44
 1083 534 1083 534 1184 662.5 c 128,-1,45
 1285 791 1285 791 1466 791 c 0,34,35
1455 747 m 0,46,47
 1300 747 1300 747 1213.5 633.5 c 128,-1,48
 1127 520 1127 520 1127 320 c 0,49,50
 1127 229 1127 229 1154 166 c 128,-1,51
 1181 103 1181 103 1234.5 70.5 c 128,-1,52
 1288 38 1288 38 1366 38 c 0,53,54
 1519 38 1519 38 1606 151.5 c 128,-1,55
 1693 265 1693 265 1693 465 c 0,56,57
 1693 533 1693 533 1677.5 586 c 128,-1,58
 1662 639 1662 639 1632 674.5 c 128,-1,59
 1602 710 1602 710 1557.5 728.5 c 128,-1,60
 1513 747 1513 747 1455 747 c 0,46,47
EndSplineSet
EndChar

StartChar: ampersand
Encoding: 38 38 9
Width: 1402
GlyphClass: 2
Flags: W
LayerCount: 2
Fore
SplineSet
735 1501 m 0,0,1
 834 1501 834 1501 918.5 1476.5 c 128,-1,2
 1003 1452 1003 1452 1090 1401 c 1,3,-1
 1072 1357 l 1,4,-1
 1056 1357 l 1,5,6
 978 1407 978 1407 900.5 1431 c 128,-1,7
 823 1455 823 1455 733 1455 c 0,8,9
 552 1455 552 1455 450 1366 c 128,-1,10
 348 1277 348 1277 348 1121 c 0,11,12
 348 1054 348 1054 367 998 c 128,-1,13
 386 942 386 942 421.5 901.5 c 128,-1,14
 457 861 457 861 508.5 836 c 128,-1,15
 560 811 560 811 624 806 c 1,16,-1
 1324 840 l 1,17,-1
 1485 860 l 1,18,-1
 1490 849 l 1,19,-1
 1471 804 l 1,20,-1
 1029 780 l 1,21,-1
 1027 771 l 1,22,23
 1070 711 1070 711 1094 631.5 c 128,-1,24
 1118 552 1118 552 1118 463 c 0,25,26
 1118 246 1118 246 976.5 116 c 128,-1,27
 835 -14 835 -14 593 -14 c 0,28,29
 386 -14 386 -14 266.5 80.5 c 128,-1,30
 147 175 147 175 147 334 c 0,31,32
 147 428 147 428 189.5 511.5 c 128,-1,33
 232 595 232 595 311.5 662 c 128,-1,34
 391 729 391 729 504 780 c 1,35,-1
 504 789 l 1,36,37
 407 827 407 827 354 914.5 c 128,-1,38
 301 1002 301 1002 301 1121 c 0,39,40
 301 1297 301 1297 416 1399 c 128,-1,41
 531 1501 531 1501 735 1501 c 0,0,1
953 775 m 1,42,-1
 563 755 l 1,43,44
 389 686 389 686 291.5 581 c 128,-1,45
 194 476 194 476 194 343 c 0,46,47
 194 251 194 251 241 181 c 128,-1,48
 288 111 288 111 379.5 72 c 128,-1,49
 471 33 471 33 595 33 c 0,50,51
 815 33 815 33 943.5 151 c 128,-1,52
 1072 269 1072 269 1072 467 c 0,53,54
 1072 566 1072 566 1041 646 c 128,-1,55
 1010 726 1010 726 953 775 c 1,42,-1
EndSplineSet
EndChar

StartChar: quotesingle
Encoding: 39 39 10
Width: 291
GlyphClass: 2
Flags: W
LayerCount: 2
Fore
SplineSet
301 1473 m 1,0,-1
 231 1137 l 1,1,-1
 192 1132 l 1,2,-1
 187 1141 l 1,3,-1
 254 1477 l 1,4,-1
 296 1482 l 1,5,-1
 301 1473 l 1,0,-1
EndSplineSet
Substitution2: "'locl' Localized Forms in Latin lookup 12 subtable" puso
Substitution2: "'locl' Localized Forms in Latin lookup 10 subtable" puso
Substitution2: "'aalt' Access All Alternates lookup 0 subtable" puso
EndChar

StartChar: parenleft
Encoding: 40 40 11
Width: 653
GlyphClass: 2
Flags: W
LayerCount: 2
Fore
SplineSet
742 1522 m 1,0,-1
 740 1513 l 1,1,2
 649 1452 649 1452 575.5 1377.5 c 128,-1,3
 502 1303 502 1303 450.5 1226 c 128,-1,4
 399 1149 399 1149 360.5 1058.5 c 128,-1,5
 322 968 322 968 299 883 c 128,-1,6
 276 798 276 798 262 700.5 c 128,-1,7
 248 603 248 603 243 519 c 128,-1,8
 238 435 238 435 238 339 c 0,9,10
 238 116 238 116 305 -34 c 128,-1,11
 372 -184 372 -184 519 -299 c 1,12,-1
 516 -308 l 1,13,-1
 492 -334 l 1,14,-1
 483 -334 l 1,15,16
 330 -209 330 -209 261 -53.5 c 128,-1,17
 192 102 192 102 192 332 c 0,18,19
 192 434 192 434 197.5 524.5 c 128,-1,20
 203 615 203 615 218 715.5 c 128,-1,21
 233 816 233 816 257.5 904.5 c 128,-1,22
 282 993 282 993 322.5 1085 c 128,-1,23
 363 1177 363 1177 417 1256 c 128,-1,24
 471 1335 471 1335 546.5 1410.5 c 128,-1,25
 622 1486 622 1486 715 1548 c 1,26,-1
 724 1548 l 1,27,-1
 742 1522 l 1,0,-1
EndSplineSet
EndChar

StartChar: parenright
Encoding: 41 41 12
Width: 655
GlyphClass: 2
Flags: W
LayerCount: 2
Fore
SplineSet
-67 -308 m 1,0,-1
 -65 -299 l 1,1,2
 26 -238 26 -238 99.5 -163.5 c 128,-1,3
 173 -89 173 -89 224.5 -12 c 128,-1,4
 276 65 276 65 314.5 155.5 c 128,-1,5
 353 246 353 246 376 331 c 128,-1,6
 399 416 399 416 413 513.5 c 128,-1,7
 427 611 427 611 432 695 c 128,-1,8
 437 779 437 779 437 876 c 0,9,10
 437 1025 437 1025 407 1140.5 c 128,-1,11
 377 1256 377 1256 315.5 1346 c 128,-1,12
 254 1436 254 1436 156 1513 c 1,13,-1
 158 1522 l 1,14,-1
 182 1548 l 1,15,-1
 192 1548 l 1,16,17
 345 1423 345 1423 414 1268 c 128,-1,18
 483 1113 483 1113 483 882 c 0,19,20
 483 780 483 780 477.5 689.5 c 128,-1,21
 472 599 472 599 457 498.5 c 128,-1,22
 442 398 442 398 417.5 309.5 c 128,-1,23
 393 221 393 221 352.5 129 c 128,-1,24
 312 37 312 37 258 -42 c 128,-1,25
 204 -121 204 -121 128.5 -196.5 c 128,-1,26
 53 -272 53 -272 -40 -334 c 1,27,-1
 -49 -334 l 1,28,-1
 -67 -308 l 1,0,-1
EndSplineSet
EndChar

StartChar: asterisk
Encoding: 42 42 13
Width: 851
GlyphClass: 2
Flags: W
LayerCount: 2
Fore
SplineSet
563 1664 m 1,0,-1
 537 1401 l 1,1,-1
 504 1396 l 1,2,-1
 497 1408 l 1,3,-1
 508 1662 l 1,4,5
 532 1669 532 1669 557 1669 c 1,6,-1
 563 1664 l 1,0,-1
450 1361 m 1,7,-1
 443 1328 l 1,8,-1
 432 1326 l 1,9,-1
 194 1415 l 1,10,11
 194 1447 194 1447 201 1464 c 1,12,-1
 207 1468 l 1,13,-1
 450 1361 l 1,7,-1
595 1370 m 1,14,-1
 838 1439 l 1,15,16
 853 1420 853 1420 862 1394 c 1,17,-1
 860 1390 l 1,18,-1
 600 1330 l 1,19,-1
 588 1361 l 1,20,-1
 595 1370 l 1,14,-1
591 1265 m 1,21,-1
 731 1056 l 1,22,23
 713 1031 713 1031 695 1020 c 1,24,-1
 689 1020 l 1,25,-1
 553 1249 l 1,26,-1
 579 1270 l 1,27,-1
 591 1265 l 1,21,-1
490 1252 m 1,28,-1
 488 1237 l 1,29,-1
 332 1039 l 1,30,31
 309 1045 309 1045 287 1062 c 1,32,-1
 285 1069 l 1,33,-1
 463 1268 l 1,34,-1
 490 1252 l 1,28,-1
EndSplineSet
EndChar

StartChar: plus
Encoding: 43 43 14
Width: 1114
GlyphClass: 2
Flags: W
LayerCount: 2
Fore
SplineSet
651 1092 m 1,0,-1
 597 653 l 1,1,-1
 1034 653 l 1,2,-1
 1041 646 l 1,3,-1
 1032 606 l 1,4,-1
 591 606 l 1,5,-1
 537 165 l 1,6,-1
 497 161 l 1,7,-1
 490 168 l 1,8,-1
 544 606 l 1,9,-1
 107 606 l 1,10,-1
 100 614 l 1,11,-1
 109 653 l 1,12,-1
 551 653 l 1,13,-1
 604 1096 l 1,14,-1
 644 1100 l 1,15,-1
 651 1092 l 1,0,-1
EndSplineSet
EndChar

StartChar: comma
Encoding: 44 44 15
Width: 536
GlyphClass: 2
Flags: W
LayerCount: 2
Fore
SplineSet
194 96 m 1,0,1
 283 54 283 54 283 -16 c 0,2,3
 283 -63 283 -63 243.5 -119.5 c 128,-1,4
 204 -176 204 -176 129 -234 c 1,5,-1
 105 -207 l 1,6,-1
 107 -201 l 1,7,8
 168 -156 168 -156 201 -108.5 c 128,-1,9
 234 -61 234 -61 234 -18 c 0,10,11
 234 28 234 28 163 60 c 1,12,-1
 163 70 l 1,13,14
 176 87 176 87 194 96 c 1,0,1
EndSplineSet
EndChar

StartChar: hyphen
Encoding: 45 45 16
Width: 727
GlyphClass: 2
Flags: W
LayerCount: 2
Fore
SplineSet
668 646 m 1,0,-1
 666 610 l 1,1,-1
 82 532 l 1,2,-1
 75 542 l 1,3,-1
 80 579 l 1,4,-1
 661 656 l 1,5,-1
 668 646 l 1,0,-1
EndSplineSet
EndChar

StartChar: period
Encoding: 46 46 17
Width: 536
GlyphClass: 2
Flags: W
LayerCount: 2
Fore
SplineSet
207 89 m 0,0,1
 222 89 222 89 232.5 83 c 128,-1,2
 243 77 243 77 248.5 66.5 c 128,-1,3
 254 56 254 56 254 42 c 0,4,5
 254 21 254 21 241.5 8 c 128,-1,6
 229 -5 229 -5 207.5 -5 c 128,-1,7
 186 -5 186 -5 173.5 8 c 128,-1,8
 161 21 161 21 161 42.5 c 128,-1,9
 161 64 161 64 173.5 76.5 c 128,-1,10
 186 89 186 89 207 89 c 0,0,1
EndSplineSet
EndChar

StartChar: slash
Encoding: 47 47 18
Width: 678
GlyphClass: 2
Flags: W
LayerCount: 2
Fore
SplineSet
693 1564 m 1,0,-1
 91 -256 l 1,1,-1
 54 -256 l 1,2,-1
 47 -247 l 1,3,-1
 649 1575 l 1,4,-1
 686 1575 l 1,5,-1
 693 1564 l 1,0,-1
EndSplineSet
Substitution2: "'frac' Diagonal Fractions lookup 19 subtable" fraction
Substitution2: "'aalt' Access All Alternates lookup 0 subtable" fraction
EndChar

StartChar: zero
Encoding: 48 48 19
Width: 1122
GlyphClass: 2
Flags: W
LayerCount: 2
Fore
SplineSet
661 1370 m 0,0,1
 777 1370 777 1370 858 1307.5 c 128,-1,2
 939 1245 939 1245 979.5 1126 c 128,-1,3
 1020 1007 1020 1007 1020 838 c 0,4,5
 1020 579 1020 579 959.5 388.5 c 128,-1,6
 899 198 899 198 780.5 94.5 c 128,-1,7
 662 -9 662 -9 497 -9 c 0,8,9
 322 -9 322 -9 229 130 c 128,-1,10
 136 269 136 269 136 526 c 0,11,12
 136 785 136 785 197 974.5 c 128,-1,13
 258 1164 258 1164 377 1267 c 128,-1,14
 496 1370 496 1370 661 1370 c 0,0,1
656 1324 m 0,15,16
 508 1324 508 1324 401 1227 c 128,-1,17
 294 1130 294 1130 238 952 c 128,-1,18
 182 774 182 774 182 532 c 0,19,20
 182 295 182 295 264.5 166.5 c 128,-1,21
 347 38 347 38 502 38 c 0,22,23
 648 38 648 38 755 135 c 128,-1,24
 862 232 862 232 918 410.5 c 128,-1,25
 974 589 974 589 974 831 c 0,26,27
 974 1068 974 1068 892 1196 c 128,-1,28
 810 1324 810 1324 656 1324 c 0,15,16
EndSplineSet
Substitution2: "'case' Case-Sensitive Forms lookup 28 subtable" zero.lf
Substitution2: "'tnum' Tabular Numbers lookup 25 subtable" zero.tosf
Substitution2: "'lnum' Lining Figures lookup 23 subtable" zero.lf
Substitution2: "'frac' Diagonal Fractions lookup 20 subtable" zero.numr
Substitution2: "'dnom' Denominators lookup 18 subtable" zero.dnom
Substitution2: "'numr' Numerators lookup 17 subtable" zero.numr
Substitution2: "'sups' Superscript lookup 16 subtable" zerosuperior
Substitution2: "'sinf' Scientific Inferiors lookup 15 subtable" zero.sinf
AlternateSubs2: "'aalt' Access All Alternates lookup 1 subtable" zero.sinf zerosuperior zero.numr zero.dnom zero.lf zero.tosf
EndChar

StartChar: one
Encoding: 49 49 20
Width: 1108
GlyphClass: 2
Flags: W
LayerCount: 2
Fore
SplineSet
715 1375 m 1,0,-1
 604 481 l 1,1,-1
 544 0 l 1,2,-1
 497 0 l 1,3,-1
 555 470 l 1,4,-1
 661 1321 l 1,5,-1
 212 1216 l 1,6,-1
 201 1223 l 1,7,-1
 205 1261 l 1,8,-1
 702 1384 l 1,9,-1
 715 1375 l 1,0,-1
EndSplineSet
Substitution2: "'ss02' Style Set 2 lookup 36 subtable" arrowleft
Substitution2: "'case' Case-Sensitive Forms lookup 28 subtable" one.lf
Substitution2: "'tnum' Tabular Numbers lookup 25 subtable" one.tosf
Substitution2: "'lnum' Lining Figures lookup 23 subtable" one.lf
Substitution2: "'frac' Diagonal Fractions lookup 20 subtable" one.numr
Substitution2: "'dnom' Denominators lookup 18 subtable" one.dnom
Substitution2: "'numr' Numerators lookup 17 subtable" one.numr
Substitution2: "'sups' Superscript lookup 16 subtable" onesuperior
Substitution2: "'sinf' Scientific Inferiors lookup 15 subtable" one.sinf
AlternateSubs2: "'aalt' Access All Alternates lookup 1 subtable" one.sinf onesuperior one.numr one.dnom one.lf one.tosf arrowleft
EndChar

StartChar: two
Encoding: 50 50 21
Width: 1108
GlyphClass: 2
Flags: W
LayerCount: 2
Fore
SplineSet
659 1375 m 0,0,1
 781 1375 781 1375 856 1306.5 c 128,-1,2
 931 1238 931 1238 931 1127 c 0,3,4
 931 1088 931 1088 921 1047.5 c 128,-1,5
 911 1007 911 1007 887.5 960 c 128,-1,6
 864 913 864 913 835.5 868.5 c 128,-1,7
 807 824 807 824 759 762.5 c 128,-1,8
 711 701 711 701 663 644.5 c 128,-1,9
 615 588 615 588 544 506 c 2,10,-1
 154 54 l 1,11,-1
 158 47 l 1,12,-1
 780 47 l 1,13,-1
 985 49 l 1,14,-1
 990 38 l 1,15,-1
 976 -2 l 1,16,-1
 764 0 l 1,17,-1
 182 0 l 1,18,-1
 82 -2 l 1,19,-1
 80 2 l 1,20,-1
 84 42 l 1,21,-1
 514 542 l 2,22,23
 577 614 577 614 611 654 c 128,-1,24
 645 694 645 694 691 750.5 c 128,-1,25
 737 807 737 807 761 840.5 c 128,-1,26
 785 874 785 874 813 917 c 128,-1,27
 841 960 841 960 854 991.5 c 128,-1,28
 867 1023 867 1023 876 1057 c 128,-1,29
 885 1091 885 1091 885 1123 c 0,30,31
 885 1211 885 1211 824 1269.5 c 128,-1,32
 763 1328 763 1328 656 1328 c 0,33,34
 551 1328 551 1328 450 1272 c 128,-1,35
 349 1216 349 1216 261 1112 c 1,36,-1
 252 1112 l 1,37,-1
 247 1154 l 1,38,39
 335 1257 335 1257 440.5 1316 c 128,-1,40
 546 1375 546 1375 659 1375 c 0,0,1
EndSplineSet
Substitution2: "'ss02' Style Set 2 lookup 36 subtable" arrowup
Substitution2: "'case' Case-Sensitive Forms lookup 28 subtable" two.lf
Substitution2: "'tnum' Tabular Numbers lookup 25 subtable" two.tosf
Substitution2: "'lnum' Lining Figures lookup 23 subtable" two.lf
Substitution2: "'frac' Diagonal Fractions lookup 20 subtable" two.numr
Substitution2: "'dnom' Denominators lookup 18 subtable" two.dnom
Substitution2: "'numr' Numerators lookup 17 subtable" two.numr
Substitution2: "'sups' Superscript lookup 16 subtable" twosuperior
Substitution2: "'sinf' Scientific Inferiors lookup 15 subtable" two.sinf
AlternateSubs2: "'aalt' Access All Alternates lookup 1 subtable" two.sinf twosuperior two.numr two.dnom two.lf two.tosf arrowup
EndChar

StartChar: three
Encoding: 51 51 22
Width: 1110
GlyphClass: 2
Flags: W
LayerCount: 2
Fore
SplineSet
604 1377 m 0,0,1
 666 1377 666 1377 718.5 1359.5 c 128,-1,2
 771 1342 771 1342 807.5 1310 c 128,-1,3
 844 1278 844 1278 864.5 1232.5 c 128,-1,4
 885 1187 885 1187 885 1132 c 0,5,6
 885 1018 885 1018 801 913 c 128,-1,7
 717 808 717 808 584 749 c 1,8,-1
 581 742 l 1,9,10
 722 712 722 712 796.5 632.5 c 128,-1,11
 871 553 871 553 871 432 c 0,12,13
 871 307 871 307 800.5 207 c 128,-1,14
 730 107 730 107 606 51 c 128,-1,15
 482 -5 482 -5 327 -5 c 0,16,17
 219 -5 219 -5 119 14 c 1,18,-1
 116 54 l 1,19,-1
 124 60 l 1,20,21
 228 42 228 42 332 42 c 0,22,23
 474 42 474 42 586 90.5 c 128,-1,24
 698 139 698 139 761 227.5 c 128,-1,25
 824 316 824 316 824 430 c 0,26,27
 824 560 824 560 728 633 c 128,-1,28
 632 706 632 706 450 715 c 1,29,-1
 339 715 l 1,30,-1
 332 722 l 1,31,-1
 339 759 l 1,32,-1
 441 759 l 2,33,34
 480 759 480 759 524 772 c 128,-1,35
 568 785 568 785 612 807.5 c 128,-1,36
 656 830 656 830 696.5 863.5 c 128,-1,37
 737 897 737 897 768 936 c 128,-1,38
 799 975 799 975 817.5 1024 c 128,-1,39
 836 1073 836 1073 836 1123 c 0,40,41
 836 1216 836 1216 770.5 1272 c 128,-1,42
 705 1328 705 1328 597 1328 c 0,43,44
 436 1328 436 1328 266 1181 c 1,45,-1
 256 1181 l 1,46,-1
 254 1223 l 1,47,48
 432 1377 432 1377 604 1377 c 0,0,1
EndSplineSet
Substitution2: "'ss02' Style Set 2 lookup 36 subtable" arrowright
Substitution2: "'case' Case-Sensitive Forms lookup 28 subtable" three.lf
Substitution2: "'tnum' Tabular Numbers lookup 25 subtable" three.tosf
Substitution2: "'lnum' Lining Figures lookup 23 subtable" three.lf
Substitution2: "'frac' Diagonal Fractions lookup 20 subtable" three.numr
Substitution2: "'dnom' Denominators lookup 18 subtable" three.dnom
Substitution2: "'numr' Numerators lookup 17 subtable" three.numr
Substitution2: "'sups' Superscript lookup 16 subtable" threesuperior
Substitution2: "'sinf' Scientific Inferiors lookup 15 subtable" three.sinf
AlternateSubs2: "'aalt' Access All Alternates lookup 1 subtable" three.sinf threesuperior three.numr three.dnom three.lf three.tosf arrowright
EndChar

StartChar: four
Encoding: 52 52 23
Width: 1108
GlyphClass: 2
Flags: W
LayerCount: 2
Fore
SplineSet
990 490 m 1,0,-1
 976 450 l 1,1,-1
 811 453 l 1,2,-1
 731 453 l 1,3,-1
 675 7 l 1,4,-1
 670 0 l 1,5,-1
 633 -7 l 1,6,-1
 628 0 l 1,7,-1
 684 453 l 1,8,-1
 182 453 l 1,9,-1
 84 450 l 1,10,-1
 78 459 l 1,11,-1
 82 499 l 1,12,-1
 789 1368 l 1,13,-1
 840 1368 l 1,14,-1
 735 499 l 1,15,-1
 980 499 l 1,16,-1
 990 490 l 1,0,-1
689 499 m 1,17,-1
 784 1277 l 1,18,-1
 775 1277 l 1,19,-1
 142 499 l 1,20,-1
 689 499 l 1,17,-1
EndSplineSet
Substitution2: "'ss02' Style Set 2 lookup 36 subtable" arrowdown
Substitution2: "'case' Case-Sensitive Forms lookup 28 subtable" four.lf
Substitution2: "'tnum' Tabular Numbers lookup 25 subtable" four.tosf
Substitution2: "'lnum' Lining Figures lookup 23 subtable" four.lf
Substitution2: "'frac' Diagonal Fractions lookup 20 subtable" four.numr
Substitution2: "'dnom' Denominators lookup 18 subtable" four.dnom
Substitution2: "'numr' Numerators lookup 17 subtable" four.numr
Substitution2: "'sups' Superscript lookup 16 subtable" foursuperior
Substitution2: "'sinf' Scientific Inferiors lookup 15 subtable" four.sinf
AlternateSubs2: "'aalt' Access All Alternates lookup 1 subtable" four.sinf foursuperior four.numr four.dnom four.lf four.tosf arrowdown
EndChar

StartChar: five
Encoding: 53 53 24
Width: 1108
GlyphClass: 2
Flags: W
LayerCount: 2
Fore
SplineSet
1013 1366 m 1,0,-1
 1004 1324 l 1,1,-1
 994 1319 l 1,2,-1
 894 1321 l 1,3,-1
 418 1321 l 1,4,-1
 355 840 l 1,5,-1
 512 806 l 1,6,7
 715 761 715 761 812 676 c 128,-1,8
 909 591 909 591 909 459 c 0,9,10
 909 324 909 324 833 217 c 128,-1,11
 757 110 757 110 620.5 50.5 c 128,-1,12
 484 -9 484 -9 310 -9 c 0,13,14
 229 -9 229 -9 138 7 c 1,15,-1
 131 47 l 1,16,-1
 142 54 l 1,17,18
 237 38 237 38 320 38 c 0,19,20
 478 38 478 38 602 91 c 128,-1,21
 726 144 726 144 794 239.5 c 128,-1,22
 862 335 862 335 862 455 c 0,23,24
 862 567 862 567 771 641.5 c 128,-1,25
 680 716 680 716 490 759 c 2,26,-1
 315 798 l 1,27,-1
 308 811 l 1,28,-1
 376 1352 l 1,29,-1
 399 1370 l 1,30,-1
 519 1368 l 1,31,-1
 849 1368 l 1,32,-1
 1009 1370 l 1,33,-1
 1013 1366 l 1,0,-1
EndSplineSet
Substitution2: "'ss02' Style Set 2 lookup 36 subtable" arrowupleft
Substitution2: "'case' Case-Sensitive Forms lookup 28 subtable" five.lf
Substitution2: "'tnum' Tabular Numbers lookup 25 subtable" five.tosf
Substitution2: "'lnum' Lining Figures lookup 23 subtable" five.lf
Substitution2: "'frac' Diagonal Fractions lookup 20 subtable" five.numr
Substitution2: "'dnom' Denominators lookup 18 subtable" five.dnom
Substitution2: "'numr' Numerators lookup 17 subtable" five.numr
Substitution2: "'sups' Superscript lookup 16 subtable" fivesuperior
Substitution2: "'sinf' Scientific Inferiors lookup 15 subtable" five.sinf
AlternateSubs2: "'aalt' Access All Alternates lookup 1 subtable" five.sinf fivesuperior five.numr five.dnom five.lf five.tosf arrowupleft
EndChar

StartChar: six
Encoding: 54 54 25
Width: 1108
GlyphClass: 2
Flags: W
LayerCount: 2
Fore
SplineSet
992 1357 m 1,0,-1
 992 1347 l 1,1,2
 855 1301 855 1301 740 1238.5 c 128,-1,3
 625 1176 625 1176 543 1108 c 128,-1,4
 461 1040 461 1040 397.5 961 c 128,-1,5
 334 882 334 882 295 806.5 c 128,-1,6
 256 731 256 731 231 651 c 1,7,-1
 238 644 l 1,8,9
 409 782 409 782 604 782 c 0,10,11
 765 782 765 782 856 695.5 c 128,-1,12
 947 609 947 609 947 448 c 0,13,14
 947 414 947 414 942.5 378.5 c 128,-1,15
 938 343 938 343 928.5 303 c 128,-1,16
 919 263 919 263 901.5 225.5 c 128,-1,17
 884 188 884 188 860.5 152 c 128,-1,18
 837 116 837 116 802 86.5 c 128,-1,19
 767 57 767 57 725 34.5 c 128,-1,20
 683 12 683 12 626 -1 c 128,-1,21
 569 -14 569 -14 504 -14 c 0,22,23
 329 -14 329 -14 238 94 c 128,-1,24
 147 202 147 202 147 397 c 0,25,26
 147 443 147 443 152.5 491.5 c 128,-1,27
 158 540 158 540 169.5 594 c 128,-1,28
 181 648 181 648 201 701.5 c 128,-1,29
 221 755 221 755 248 811 c 128,-1,30
 275 867 275 867 313 921 c 128,-1,31
 351 975 351 975 397 1028 c 128,-1,32
 443 1081 443 1081 503 1130.5 c 128,-1,33
 563 1180 563 1180 631.5 1225 c 128,-1,34
 700 1270 700 1270 785.5 1310 c 128,-1,35
 871 1350 871 1350 967 1382 c 1,36,-1
 976 1382 l 1,37,-1
 992 1357 l 1,0,-1
602 735 m 0,38,39
 396 735 396 735 212 577 c 1,40,41
 194 496 194 496 194 404 c 0,42,43
 194 225 194 225 272.5 129 c 128,-1,44
 351 33 351 33 506 33 c 0,45,46
 572 33 572 33 628 47.5 c 128,-1,47
 684 62 684 62 724 86.5 c 128,-1,48
 764 111 764 111 795.5 145 c 128,-1,49
 827 179 827 179 846.5 215.5 c 128,-1,50
 866 252 866 252 879 293 c 128,-1,51
 892 334 892 334 897 370.5 c 128,-1,52
 902 407 902 407 902 443 c 0,53,54
 902 584 902 584 823 659.5 c 128,-1,55
 744 735 744 735 602 735 c 0,38,39
EndSplineSet
Substitution2: "'ss02' Style Set 2 lookup 36 subtable" arrowupright
Substitution2: "'case' Case-Sensitive Forms lookup 28 subtable" six.lf
Substitution2: "'tnum' Tabular Numbers lookup 25 subtable" six.tosf
Substitution2: "'lnum' Lining Figures lookup 23 subtable" six.lf
Substitution2: "'frac' Diagonal Fractions lookup 20 subtable" six.numr
Substitution2: "'dnom' Denominators lookup 18 subtable" six.dnom
Substitution2: "'numr' Numerators lookup 17 subtable" six.numr
Substitution2: "'sups' Superscript lookup 16 subtable" sixsuperior
Substitution2: "'sinf' Scientific Inferiors lookup 15 subtable" six.sinf
AlternateSubs2: "'aalt' Access All Alternates lookup 1 subtable" six.sinf sixsuperior six.numr six.dnom six.lf six.tosf arrowupright
EndChar

StartChar: seven
Encoding: 55 55 26
Width: 1110
GlyphClass: 2
Flags: W
LayerCount: 2
Fore
SplineSet
394 1368 m 1,0,-1
 990 1368 l 1,1,-1
 1083 1370 l 1,2,-1
 1078 1328 l 1,3,-1
 378 178 l 1,4,-1
 266 -23 l 1,5,-1
 220 -9 l 1,6,-1
 220 0 l 1,7,-1
 1020 1321 l 1,8,-1
 376 1321 l 1,9,-1
 231 1319 l 1,10,-1
 225 1330 l 1,11,-1
 236 1370 l 1,12,-1
 394 1368 l 1,0,-1
EndSplineSet
Substitution2: "'ss02' Style Set 2 lookup 36 subtable" arrowdownright
Substitution2: "'case' Case-Sensitive Forms lookup 28 subtable" seven.lf
Substitution2: "'tnum' Tabular Numbers lookup 25 subtable" seven.tosf
Substitution2: "'lnum' Lining Figures lookup 23 subtable" seven.lf
Substitution2: "'frac' Diagonal Fractions lookup 20 subtable" seven.numr
Substitution2: "'dnom' Denominators lookup 18 subtable" seven.dnom
Substitution2: "'numr' Numerators lookup 17 subtable" seven.numr
Substitution2: "'sups' Superscript lookup 16 subtable" sevensuperior
Substitution2: "'sinf' Scientific Inferiors lookup 15 subtable" seven.sinf
AlternateSubs2: "'aalt' Access All Alternates lookup 1 subtable" seven.sinf sevensuperior seven.numr seven.dnom seven.lf seven.tosf arrowdownright
EndChar

StartChar: eight
Encoding: 56 56 27
Width: 1112
GlyphClass: 2
Flags: W
LayerCount: 2
Fore
SplineSet
653 1375 m 0,0,1
 795 1375 795 1375 878.5 1301.5 c 128,-1,2
 962 1228 962 1228 962 1092 c 0,3,4
 962 1030 962 1030 942.5 976.5 c 128,-1,5
 923 923 923 923 892.5 884.5 c 128,-1,6
 862 846 862 846 817 812.5 c 128,-1,7
 772 779 772 779 728.5 757.5 c 128,-1,8
 685 736 685 736 633 717 c 1,9,-1
 633 710 l 1,10,11
 673 694 673 694 700 682 c 128,-1,12
 727 670 727 670 761.5 651 c 128,-1,13
 796 632 796 632 818.5 614.5 c 128,-1,14
 841 597 841 597 865 571.5 c 128,-1,15
 889 546 889 546 902.5 518.5 c 128,-1,16
 916 491 916 491 925 454.5 c 128,-1,17
 934 418 934 418 934 376 c 0,18,19
 934 294 934 294 902.5 223 c 128,-1,20
 871 152 871 152 814.5 101 c 128,-1,21
 758 50 758 50 676 20.5 c 128,-1,22
 594 -9 594 -9 497 -9 c 0,23,24
 413 -9 413 -9 344.5 13 c 128,-1,25
 276 35 276 35 229 75.5 c 128,-1,26
 182 116 182 116 156.5 174.5 c 128,-1,27
 131 233 131 233 131 306 c 0,28,29
 131 580 131 580 506 712 c 1,30,-1
 506 719 l 1,31,32
 450 745 450 745 410 771 c 128,-1,33
 370 797 370 797 337 833 c 128,-1,34
 304 869 304 869 287.5 917 c 128,-1,35
 271 965 271 965 271 1025 c 0,36,37
 271 1181 271 1181 378 1278 c 128,-1,38
 485 1375 485 1375 653 1375 c 0,0,1
651 1328 m 0,39,40
 502 1328 502 1328 408.5 1244 c 128,-1,41
 315 1160 315 1160 315 1025 c 0,42,43
 315 977 315 977 328.5 938 c 128,-1,44
 342 899 342 899 363 871 c 128,-1,45
 384 843 384 843 420 817.5 c 128,-1,46
 456 792 456 792 488.5 775.5 c 128,-1,47
 521 759 521 759 570 738 c 1,48,49
 625 755 625 755 669.5 774 c 128,-1,50
 714 793 714 793 761.5 823.5 c 128,-1,51
 809 854 809 854 841.5 890 c 128,-1,52
 874 926 874 926 894.5 977.5 c 128,-1,53
 915 1029 915 1029 915 1090 c 0,54,55
 915 1166 915 1166 883.5 1219.5 c 128,-1,56
 852 1273 852 1273 793 1300.5 c 128,-1,57
 734 1328 734 1328 651 1328 c 0,39,40
563 691 m 1,58,59
 522 676 522 676 491.5 664 c 128,-1,60
 461 652 461 652 418 631.5 c 128,-1,61
 375 611 375 611 344.5 590.5 c 128,-1,62
 314 570 314 570 280.5 540 c 128,-1,63
 247 510 247 510 226 477 c 128,-1,64
 205 444 205 444 191.5 400.5 c 128,-1,65
 178 357 178 357 178 308 c 0,66,67
 178 182 178 182 263.5 110 c 128,-1,68
 349 38 349 38 499 38 c 0,69,70
 673 38 673 38 780 132 c 128,-1,71
 887 226 887 226 887 372 c 0,72,73
 887 425 887 425 869 468.5 c 128,-1,74
 851 512 851 512 828.5 540 c 128,-1,75
 806 568 806 568 758.5 597 c 128,-1,76
 711 626 711 626 679.5 640.5 c 128,-1,77
 648 655 648 655 584 682 c 0,78,79
 570 688 570 688 563 691 c 1,58,59
EndSplineSet
Substitution2: "'ss02' Style Set 2 lookup 36 subtable" arrowdownleft
Substitution2: "'case' Case-Sensitive Forms lookup 28 subtable" eight.lf
Substitution2: "'tnum' Tabular Numbers lookup 25 subtable" eight.tosf
Substitution2: "'lnum' Lining Figures lookup 23 subtable" eight.lf
Substitution2: "'frac' Diagonal Fractions lookup 20 subtable" eight.numr
Substitution2: "'dnom' Denominators lookup 18 subtable" eight.dnom
Substitution2: "'numr' Numerators lookup 17 subtable" eight.numr
Substitution2: "'sups' Superscript lookup 16 subtable" eightsuperior
Substitution2: "'sinf' Scientific Inferiors lookup 15 subtable" eight.sinf
AlternateSubs2: "'aalt' Access All Alternates lookup 1 subtable" eight.sinf eightsuperior eight.numr eight.dnom eight.lf eight.tosf arrowdownleft
EndChar

StartChar: nine
Encoding: 57 57 28
Width: 1108
GlyphClass: 2
Flags: W
LayerCount: 2
Fore
SplineSet
656 1382 m 0,0,1
 830 1382 830 1382 921.5 1274 c 128,-1,2
 1013 1166 1013 1166 1013 971 c 0,3,4
 1013 912 1013 912 1004.5 851 c 128,-1,5
 996 790 996 790 977 721 c 128,-1,6
 958 652 958 652 925.5 584 c 128,-1,7
 893 516 893 516 848 447.5 c 128,-1,8
 803 379 803 379 739 313.5 c 128,-1,9
 675 248 675 248 597 189.5 c 128,-1,10
 519 131 519 131 416 78.5 c 128,-1,11
 313 26 313 26 194 -14 c 1,12,-1
 185 -14 l 1,13,-1
 168 11 l 1,14,-1
 168 21 l 1,15,16
 282 59 282 59 381.5 109 c 128,-1,17
 481 159 481 159 557 215 c 128,-1,18
 633 271 633 271 695 331.5 c 128,-1,19
 757 392 757 392 802 458 c 128,-1,20
 847 524 847 524 878 587.5 c 128,-1,21
 909 651 909 651 929 717 c 1,22,-1
 922 724 l 1,23,24
 752 586 752 586 555 586 c 0,25,26
 394 586 394 586 303 672.5 c 128,-1,27
 212 759 212 759 212 920 c 0,28,29
 212 960 212 960 217.5 1000.5 c 128,-1,30
 223 1041 223 1041 237.5 1087 c 128,-1,31
 252 1133 252 1133 273.5 1174.5 c 128,-1,32
 295 1216 295 1216 330.5 1254.5 c 128,-1,33
 366 1293 366 1293 410.5 1320.5 c 128,-1,34
 455 1348 455 1348 518 1365 c 128,-1,35
 581 1382 581 1382 656 1382 c 0,0,1
557 633 m 0,36,37
 764 633 764 633 947 791 c 1,38,39
 967 877 967 877 967 964 c 0,40,41
 967 1142 967 1142 887.5 1238.5 c 128,-1,42
 808 1335 808 1335 653 1335 c 0,43,44
 587 1335 587 1335 531.5 1320.5 c 128,-1,45
 476 1306 476 1306 436 1281.5 c 128,-1,46
 396 1257 396 1257 364.5 1223 c 128,-1,47
 333 1189 333 1189 313.5 1152.5 c 128,-1,48
 294 1116 294 1116 281.5 1075 c 128,-1,49
 269 1034 269 1034 264 997.5 c 128,-1,50
 259 961 259 961 259 925 c 0,51,52
 259 784 259 784 337.5 708.5 c 128,-1,53
 416 633 416 633 557 633 c 0,36,37
EndSplineSet
Substitution2: "'case' Case-Sensitive Forms lookup 28 subtable" nine.lf
Substitution2: "'tnum' Tabular Numbers lookup 25 subtable" nine.tosf
Substitution2: "'lnum' Lining Figures lookup 23 subtable" nine.lf
Substitution2: "'frac' Diagonal Fractions lookup 20 subtable" nine.numr
Substitution2: "'dnom' Denominators lookup 18 subtable" nine.dnom
Substitution2: "'numr' Numerators lookup 17 subtable" nine.numr
Substitution2: "'sups' Superscript lookup 16 subtable" ninesuperior
Substitution2: "'sinf' Scientific Inferiors lookup 15 subtable" nine.sinf
AlternateSubs2: "'aalt' Access All Alternates lookup 1 subtable" nine.sinf ninesuperior nine.numr nine.dnom nine.lf nine.tosf
EndChar

StartChar: colon
Encoding: 58 58 29
Width: 533
GlyphClass: 2
Flags: W
LayerCount: 2
Fore
SplineSet
287.5 735 m 128,-1,1
 309 735 309 735 321.5 722.5 c 128,-1,2
 334 710 334 710 334 688.5 c 128,-1,3
 334 667 334 667 321.5 654.5 c 128,-1,4
 309 642 309 642 287 642 c 0,5,6
 273 642 273 642 262.5 647.5 c 128,-1,7
 252 653 252 653 246.5 663.5 c 128,-1,8
 241 674 241 674 241 689 c 0,9,10
 241 710 241 710 253.5 722.5 c 128,-1,0
 266 735 266 735 287.5 735 c 128,-1,1
207 89 m 0,11,12
 222 89 222 89 232.5 83 c 128,-1,13
 243 77 243 77 248.5 66.5 c 128,-1,14
 254 56 254 56 254 42 c 0,15,16
 254 21 254 21 241.5 8 c 128,-1,17
 229 -5 229 -5 207.5 -5 c 128,-1,18
 186 -5 186 -5 173.5 8 c 128,-1,19
 161 21 161 21 161 42.5 c 128,-1,20
 161 64 161 64 173.5 76.5 c 128,-1,21
 186 89 186 89 207 89 c 0,11,12
EndSplineSet
EndChar

StartChar: semicolon
Encoding: 59 59 30
Width: 536
GlyphClass: 2
Flags: W
LayerCount: 2
Fore
SplineSet
285 735 m 128,-1,1
 306 735 306 735 319 722.5 c 128,-1,2
 332 710 332 710 332 689 c 0,3,4
 332 674 332 674 326 663.5 c 128,-1,5
 320 653 320 653 309.5 647.5 c 128,-1,6
 299 642 299 642 285 642 c 128,-1,7
 271 642 271 642 260.5 647.5 c 128,-1,8
 250 653 250 653 244 663.5 c 128,-1,9
 238 674 238 674 238 689 c 0,10,11
 238 710 238 710 251 722.5 c 128,-1,0
 264 735 264 735 285 735 c 128,-1,1
192 96 m 1,12,13
 280 54 280 54 280 -16 c 0,14,15
 280 -63 280 -63 240.5 -119.5 c 128,-1,16
 201 -176 201 -176 127 -234 c 1,17,-1
 103 -207 l 1,18,-1
 105 -201 l 1,19,20
 166 -156 166 -156 198.5 -108.5 c 128,-1,21
 231 -61 231 -61 231 -18 c 0,22,23
 231 28 231 28 161 60 c 1,24,-1
 161 70 l 1,25,26
 174 87 174 87 192 96 c 1,12,13
EndSplineSet
EndChar

StartChar: less
Encoding: 60 60 31
Width: 1167
GlyphClass: 2
Flags: W
LayerCount: 2
Fore
SplineSet
1067 1029 m 1,0,-1
 1060 1018 l 1,1,-1
 149 635 l 1,2,-1
 147 626 l 1,3,-1
 976 269 l 1,4,-1
 958 234 l 1,5,-1
 947 229 l 1,6,-1
 84 602 l 1,7,-1
 91 653 l 1,8,-1
 98 663 l 1,9,-1
 1056 1062 l 1,10,-1
 1067 1029 l 1,0,-1
EndSplineSet
EndChar

StartChar: equal
Encoding: 61 61 32
Width: 1117
GlyphClass: 2
Flags: W
LayerCount: 2
Fore
SplineSet
1074 815 m 1,0,-1
 1069 775 l 1,1,-1
 142 775 l 1,2,-1
 136 782 l 1,3,-1
 140 822 l 1,4,-1
 1067 822 l 1,5,-1
 1074 815 l 1,0,-1
1032 479 m 1,6,-1
 1027 439 l 1,7,-1
 100 439 l 1,8,-1
 93 446 l 1,9,-1
 98 486 l 1,10,-1
 1025 486 l 1,11,-1
 1032 479 l 1,6,-1
EndSplineSet
EndChar

StartChar: greater
Encoding: 62 62 33
Width: 1169
GlyphClass: 2
Flags: W
LayerCount: 2
Fore
SplineSet
1105 663 m 1,0,-1
 1109 653 l 1,1,-1
 1102 602 l 1,2,-1
 147 229 l 1,3,-1
 138 234 l 1,4,-1
 129 269 l 1,5,-1
 1047 626 l 1,6,-1
 1047 635 l 1,7,-1
 229 1018 l 1,8,-1
 225 1029 l 1,9,-1
 245 1062 l 1,10,-1
 1105 663 l 1,0,-1
EndSplineSet
EndChar

StartChar: question
Encoding: 63 63 34
Width: 753
GlyphClass: 2
Flags: W
LayerCount: 2
Fore
SplineSet
310 1520 m 1,0,-1
 327 1526 l 1,1,2
 554 1509 554 1509 682.5 1422.5 c 128,-1,3
 811 1336 811 1336 811 1198 c 0,4,5
 811 1104 811 1104 754 1020 c 128,-1,6
 697 936 697 936 591 869 c 2,7,-1
 348 715 l 1,8,-1
 343 708 l 1,9,-1
 325 455 l 1,10,-1
 285 453 l 1,11,-1
 280 463 l 1,12,-1
 296 724 l 1,13,-1
 310 744 l 1,14,-1
 568 906 l 1,15,16
 762 1029 762 1029 762 1188 c 0,17,18
 762 1315 762 1315 642.5 1391.5 c 128,-1,19
 523 1468 523 1468 299 1482 c 1,20,-1
 294 1490 l 1,21,-1
 310 1520 l 1,0,-1
276 89 m 128,-1,23
 297 89 297 89 310 76.5 c 128,-1,24
 323 64 323 64 323 42 c 0,25,26
 323 28 323 28 317 17.5 c 128,-1,27
 311 7 311 7 300.5 1 c 128,-1,28
 290 -5 290 -5 276 -5 c 128,-1,29
 262 -5 262 -5 251.5 1 c 128,-1,30
 241 7 241 7 235 17.5 c 128,-1,31
 229 28 229 28 229 42 c 0,32,33
 229 64 229 64 242 76.5 c 128,-1,22
 255 89 255 89 276 89 c 128,-1,23
EndSplineSet
EndChar

StartChar: at
Encoding: 64 64 35
Width: 1878
GlyphClass: 2
Flags: W
LayerCount: 2
Fore
SplineSet
1029 1382 m 0,0,1
 1199 1382 1199 1382 1340 1329 c 128,-1,2
 1481 1276 1481 1276 1578 1182 c 128,-1,3
 1675 1088 1675 1088 1728.5 955 c 128,-1,4
 1782 822 1782 822 1782 663 c 0,5,6
 1782 356 1782 356 1601 184 c 128,-1,7
 1420 12 1420 12 1081 -9 c 1,8,-1
 1165 633 l 1,9,-1
 1154 633 l 1,10,11
 1050 436 1050 436 927.5 269 c 128,-1,12
 805 102 805 102 682 -9 c 1,13,-1
 656 -9 l 1,14,15
 592 38 592 38 563.5 112 c 128,-1,16
 535 186 535 186 535 320 c 0,17,18
 535 438 535 438 557 546 c 128,-1,19
 579 654 579 654 623.5 746 c 128,-1,20
 668 838 668 838 730.5 907 c 128,-1,21
 793 976 793 976 879 1018 c 128,-1,22
 965 1060 965 1060 1065 1067 c 1,23,-1
 1074 1067 l 1,24,-1
 1226 1056 l 1,25,-1
 1256 1072 l 1,26,-1
 1268 1065 l 1,27,-1
 1161 247 l 1,28,-1
 1141 38 l 1,29,30
 1430 66 1430 66 1582.5 225.5 c 128,-1,31
 1735 385 1735 385 1735 663 c 0,32,33
 1735 813 1735 813 1686 937.5 c 128,-1,34
 1637 1062 1637 1062 1546.5 1150 c 128,-1,35
 1456 1238 1456 1238 1323.5 1286.5 c 128,-1,36
 1191 1335 1191 1335 1029 1335 c 0,37,38
 873 1335 873 1335 735.5 1293.5 c 128,-1,39
 598 1252 598 1252 491.5 1174 c 128,-1,40
 385 1096 385 1096 307.5 988.5 c 128,-1,41
 230 881 230 881 189.5 744 c 128,-1,42
 149 607 149 607 149 453 c 0,43,44
 149 259 149 259 214 101.5 c 128,-1,45
 279 -56 279 -56 396.5 -163 c 128,-1,46
 514 -270 514 -270 681 -327.5 c 128,-1,47
 848 -385 848 -385 1051 -385 c 1,48,-1
 1053 -394 l 1,49,-1
 1023 -432 l 1,50,51
 818 -428 818 -428 647.5 -364 c 128,-1,52
 477 -300 477 -300 356.5 -187.5 c 128,-1,53
 236 -75 236 -75 169.5 87 c 128,-1,54
 103 249 103 249 103 443 c 0,55,56
 103 652 103 652 170 827 c 128,-1,57
 237 1002 237 1002 357.5 1124 c 128,-1,58
 478 1246 478 1246 651 1314 c 128,-1,59
 824 1382 824 1382 1029 1382 c 0,0,1
675 56 m 0,60,61
 685 56 685 56 718 86.5 c 128,-1,62
 751 117 751 117 803.5 180 c 128,-1,63
 856 243 856 243 916 327 c 128,-1,64
 976 411 976 411 1048.5 532 c 128,-1,65
 1121 653 1121 653 1186 784 c 1,66,-1
 1194 845 l 1,67,-1
 1210 1009 l 1,68,-1
 1069 1020 l 1,69,70
 980 1018 980 1018 901.5 980 c 128,-1,71
 823 942 823 942 765 876.5 c 128,-1,72
 707 811 707 811 665.5 724 c 128,-1,73
 624 637 624 637 602.5 536.5 c 128,-1,74
 581 436 581 436 581 329 c 0,75,76
 581 270 581 270 588 221.5 c 128,-1,77
 595 173 595 173 606 143 c 128,-1,78
 617 113 617 113 630 92.5 c 128,-1,79
 643 72 643 72 654.5 64 c 128,-1,80
 666 56 666 56 675 56 c 0,60,61
EndSplineSet
EndChar

StartChar: A
Encoding: 65 65 36
Width: 1223
GlyphClass: 2
Flags: W
AnchorPoint: "Anchor-1" 0 0 basechar 0
AnchorPoint: "Anchor-0" 744 1487 basechar 0
LayerCount: 2
Fore
SplineSet
1098 0 m 1,0,-1
 1043 0 l 1,1,-1
 1029 100 l 1,2,-1
 943 497 l 1,3,-1
 283 497 l 1,4,-1
 84 100 l 1,5,-1
 38 0 l 1,6,-1
 -18 0 l 1,7,-1
 726 1488 l 1,8,-1
 775 1488 l 1,9,-1
 1098 0 l 1,0,-1
931 544 m 1,10,-1
 742 1408 l 1,11,-1
 735 1408 l 1,12,-1
 306 544 l 1,13,-1
 931 544 l 1,10,-1
EndSplineSet
Position2: "'cpsp' Capital Spacing lookup 0 subtable" dx=16 dy=0 dh=33 dv=0
EndChar

StartChar: B
Encoding: 66 66 37
Width: 1098
GlyphClass: 2
Flags: W
LayerCount: 2
Fore
SplineSet
708 780 m 1,0,1
 842 758 842 758 914.5 678.5 c 128,-1,2
 987 599 987 599 987 463 c 0,3,4
 987 242 987 242 842 117.5 c 128,-1,5
 697 -7 697 -7 430 -7 c 0,6,7
 300 -7 300 -7 187 0 c 1,8,-1
 245 455 l 1,9,-1
 376 1488 l 1,10,-1
 646 1492 l 1,11,12
 802 1492 802 1492 885.5 1415.5 c 128,-1,13
 969 1339 969 1339 969 1198 c 0,14,15
 969 1041 969 1041 901.5 935 c 128,-1,16
 834 829 834 829 708 780 c 1,0,1
336 800 m 1,17,-1
 619 793 l 1,18,19
 763 823 763 823 841.5 927.5 c 128,-1,20
 920 1032 920 1032 920 1186 c 0,21,22
 920 1304 920 1304 850 1373.5 c 128,-1,23
 780 1443 780 1443 659 1443 c 2,24,-1
 418 1443 l 1,25,-1
 336 800 l 1,17,-1
423 40 m 0,26,27
 667 40 667 40 802.5 150 c 128,-1,28
 938 260 938 260 938 455 c 0,29,30
 938 583 938 583 860 659 c 128,-1,31
 782 735 782 735 635 747 c 1,32,-1
 329 747 l 1,33,-1
 292 455 l 1,34,-1
 241 47 l 1,35,36
 328 40 328 40 423 40 c 0,26,27
EndSplineSet
Position2: "'cpsp' Capital Spacing lookup 0 subtable" dx=16 dy=0 dh=33 dv=0
EndChar

StartChar: C
Encoding: 67 67 38
Width: 1159
GlyphClass: 2
Flags: W
AnchorPoint: "Anchor-1" 648 0 basechar 0
AnchorPoint: "Anchor-0" 782 1487 basechar 0
LayerCount: 2
Fore
SplineSet
817 1497 m 0,0,1
 923 1497 923 1497 1021 1461 c 128,-1,2
 1119 1425 1119 1425 1190 1359 c 1,3,-1
 1170 1319 l 1,4,-1
 1154 1319 l 1,5,6
 1015 1450 1015 1450 813 1450 c 0,7,8
 662 1450 662 1450 542 1390.5 c 128,-1,9
 422 1331 422 1331 341.5 1220 c 128,-1,10
 261 1109 261 1109 218.5 949 c 128,-1,11
 176 789 176 789 176 591 c 0,12,13
 176 323 176 323 287 179 c 128,-1,14
 398 35 398 35 610 35 c 0,15,16
 715 35 715 35 824 75.5 c 128,-1,17
 933 116 933 116 1029 192 c 1,18,-1
 1047 187 l 1,19,-1
 1036 145 l 1,20,21
 933 70 933 70 821.5 29.5 c 128,-1,22
 710 -11 710 -11 606 -11 c 0,23,24
 374 -11 374 -11 251.5 144 c 128,-1,25
 129 299 129 299 129 586 c 0,26,27
 129 868 129 868 209.5 1072.5 c 128,-1,28
 290 1277 290 1277 445.5 1387 c 128,-1,29
 601 1497 601 1497 817 1497 c 0,0,1
EndSplineSet
Substitution2: "Single Substitution lookup 41 subtable" C.ss01
Substitution2: "'ss01' Style Set 1 lookup 35 subtable" C.ss01
Substitution2: "'aalt' Access All Alternates lookup 0 subtable" C.ss01
Position2: "'cpsp' Capital Spacing lookup 0 subtable" dx=16 dy=0 dh=33 dv=0
EndChar

StartChar: D
Encoding: 68 68 39
Width: 1421
GlyphClass: 2
Flags: W
AnchorPoint: "Anchor-1" 0 0 basechar 0
AnchorPoint: "Anchor-0" 779 1487 basechar 0
LayerCount: 2
Fore
SplineSet
374 1488 m 1,0,-1
 817 1499 l 1,1,2
 989 1499 989 1499 1109 1431 c 128,-1,3
 1229 1363 1229 1363 1290.5 1233 c 128,-1,4
 1352 1103 1352 1103 1352 918 c 0,5,6
 1352 635 1352 635 1265 426.5 c 128,-1,7
 1178 218 1178 218 1009 103.5 c 128,-1,8
 840 -11 840 -11 606 -11 c 0,9,10
 579 -11 579 -11 497 -9.5 c 128,-1,11
 415 -8 415 -8 324 -5 c 128,-1,12
 233 -2 233 -2 187 0 c 1,13,-1
 245 455 l 1,14,-1
 374 1488 l 1,0,-1
614 35 m 0,15,16
 830 35 830 35 986 143 c 128,-1,17
 1142 251 1142 251 1222.5 448 c 128,-1,18
 1303 645 1303 645 1303 911 c 0,19,20
 1303 1171 1303 1171 1177.5 1311.5 c 128,-1,21
 1052 1452 1052 1452 813 1452 c 0,22,23
 774 1452 774 1452 625.5 1448 c 128,-1,24
 477 1444 477 1444 416 1441 c 1,25,-1
 292 455 l 1,26,-1
 238 44 l 1,27,28
 271 44 271 44 361 41.5 c 128,-1,29
 451 39 451 39 521 37 c 128,-1,30
 591 35 591 35 614 35 c 0,15,16
EndSplineSet
Substitution2: "Single Substitution lookup 41 subtable" D.ss01
Substitution2: "'ss01' Style Set 1 lookup 35 subtable" D.ss01
Substitution2: "'aalt' Access All Alternates lookup 0 subtable" D.ss01
Position2: "'cpsp' Capital Spacing lookup 0 subtable" dx=16 dy=0 dh=33 dv=0
EndChar

StartChar: E
Encoding: 69 69 40
Width: 1007
GlyphClass: 2
Flags: W
AnchorPoint: "Anchor-1" 583 0 basechar 0
AnchorPoint: "Anchor-0" 726 1487 basechar 0
LayerCount: 2
Fore
SplineSet
416 1441 m 1,0,-1
 334 793 l 1,1,-1
 855 793 l 1,2,-1
 862 784 l 1,3,-1
 847 747 l 1,4,-1
 329 747 l 1,5,-1
 292 455 l 1,6,-1
 241 47 l 1,7,-1
 878 47 l 1,8,-1
 885 38 l 1,9,-1
 871 0 l 1,10,-1
 187 0 l 1,11,-1
 245 455 l 1,12,-1
 374 1488 l 1,13,-1
 1053 1488 l 1,14,-1
 1058 1477 l 1,15,-1
 1043 1441 l 1,16,-1
 416 1441 l 1,0,-1
EndSplineSet
Position2: "'cpsp' Capital Spacing lookup 0 subtable" dx=16 dy=0 dh=33 dv=0
EndChar

StartChar: F
Encoding: 70 70 41
Width: 918
GlyphClass: 2
Flags: W
LayerCount: 2
Fore
SplineSet
416 1441 m 1,0,-1
 332 771 l 1,1,-1
 831 771 l 1,2,-1
 836 762 l 1,3,-1
 822 724 l 1,4,-1
 325 724 l 1,5,-1
 292 455 l 1,6,-1
 234 0 l 1,7,-1
 187 0 l 1,8,-1
 245 455 l 1,9,-1
 374 1488 l 1,10,-1
 1029 1488 l 1,11,-1
 1036 1477 l 1,12,-1
 1023 1441 l 1,13,-1
 416 1441 l 1,0,-1
EndSplineSet
Position2: "'cpsp' Capital Spacing lookup 0 subtable" dx=16 dy=0 dh=33 dv=0
EndChar

StartChar: G
Encoding: 71 71 42
Width: 1341
GlyphClass: 2
Flags: W
AnchorPoint: "Anchor-1" 746 0 basechar 0
AnchorPoint: "Anchor-0" 803 1487 basechar 0
LayerCount: 2
Fore
SplineSet
882 1497 m 0,0,1
 978 1497 978 1497 1077.5 1464 c 128,-1,2
 1177 1431 1177 1431 1265 1370 c 1,3,-1
 1247 1328 l 1,4,-1
 1230 1328 l 1,5,6
 1054 1450 1054 1450 876 1450 c 0,7,8
 657 1450 657 1450 499 1347.5 c 128,-1,9
 341 1245 341 1245 258.5 1051 c 128,-1,10
 176 857 176 857 176 588 c 0,11,12
 176 323 176 323 290.5 179 c 128,-1,13
 405 35 405 35 621 35 c 0,14,15
 725 35 725 35 814 50 c 128,-1,16
 903 65 903 65 1043 105 c 1,17,-1
 1078 369 l 1,18,-1
 1100 551 l 1,19,-1
 1147 555 l 1,20,-1
 1125 369 l 1,21,-1
 1085 70 l 1,22,23
 929 24 929 24 833.5 7.5 c 128,-1,24
 738 -9 738 -9 621 -9 c 0,25,26
 461 -9 461 -9 350.5 60.5 c 128,-1,27
 240 130 240 130 184.5 262 c 128,-1,28
 129 394 129 394 129 584 c 0,29,30
 129 869 129 869 218 1074.5 c 128,-1,31
 307 1280 307 1280 477 1388.5 c 128,-1,32
 647 1497 647 1497 882 1497 c 0,0,1
EndSplineSet
Position2: "'cpsp' Capital Spacing lookup 0 subtable" dx=16 dy=0 dh=33 dv=0
EndChar

StartChar: H
Encoding: 72 72 43
Width: 1493
GlyphClass: 2
Flags: W
AnchorPoint: "Anchor-1" 0 0 basechar 0
AnchorPoint: "Anchor-0" 866 1487 basechar 0
LayerCount: 2
Fore
SplineSet
1366 1488 m 1,0,-1
 1237 455 l 1,1,-1
 1179 0 l 1,2,-1
 1132 0 l 1,3,-1
 1190 455 l 1,4,-1
 1226 733 l 1,5,-1
 327 733 l 1,6,-1
 292 455 l 1,7,-1
 234 0 l 1,8,-1
 187 0 l 1,9,-1
 245 455 l 1,10,-1
 374 1488 l 1,11,-1
 421 1488 l 1,12,-1
 332 780 l 1,13,-1
 1230 780 l 1,14,-1
 1319 1488 l 1,15,-1
 1366 1488 l 1,0,-1
EndSplineSet
Position2: "'cpsp' Capital Spacing lookup 0 subtable" dx=16 dy=0 dh=33 dv=0
EndChar

StartChar: I
Encoding: 73 73 44
Width: 548
GlyphClass: 2
Flags: W
AnchorPoint: "Anchor-1" 0 0 basechar 0
AnchorPoint: "Anchor-0" 392 1487 basechar 0
LayerCount: 2
Fore
SplineSet
292 455 m 1,0,-1
 234 0 l 1,1,-1
 187 0 l 1,2,-1
 245 455 l 1,3,-1
 374 1488 l 1,4,-1
 421 1488 l 1,5,-1
 292 455 l 1,0,-1
EndSplineSet
Substitution2: "Single Substitution lookup 41 subtable" I.ss01
Substitution2: "'ss01' Style Set 1 lookup 35 subtable" I.ss01
Substitution2: "'aalt' Access All Alternates lookup 0 subtable" I.ss01
Position2: "'cpsp' Capital Spacing lookup 0 subtable" dx=16 dy=0 dh=33 dv=0
EndChar

StartChar: J
Encoding: 74 74 45
Width: 606
GlyphClass: 2
Flags: W
AnchorPoint: "Anchor-1" 0 0 basechar 0
AnchorPoint: "Anchor-0" 305 1487 basechar 0
LayerCount: 2
Fore
SplineSet
467 1488 m 1,0,-1
 343 495 l 1,1,-1
 315 269 l 1,2,3
 293 104 293 104 212 -9 c 128,-1,4
 131 -122 131 -122 -42 -229 c 1,5,-1
 -63 -203 l 1,6,-1
 -63 -189 l 1,7,8
 97 -90 97 -90 175.5 17 c 128,-1,9
 254 124 254 124 271 269 c 2,10,-1
 296 486 l 1,11,-1
 416 1441 l 1,12,-1
 124 1441 l 1,13,-1
 114 1450 l 1,14,-1
 127 1488 l 1,15,-1
 467 1488 l 1,0,-1
EndSplineSet
Position2: "'cpsp' Capital Spacing lookup 0 subtable" dx=16 dy=0 dh=33 dv=0
EndChar

StartChar: K
Encoding: 75 75 46
Width: 1127
GlyphClass: 2
Flags: W
AnchorPoint: "Anchor-1" 621 0 basechar 0
AnchorPoint: "Anchor-0" 588 1487 basechar 0
LayerCount: 2
Fore
SplineSet
292 455 m 1,0,-1
 234 0 l 1,1,-1
 187 0 l 1,2,-1
 245 455 l 1,3,-1
 376 1488 l 1,4,-1
 423 1488 l 1,5,-1
 292 455 l 1,0,-1
1200 1488 m 1,6,-1
 463 791 l 1,7,8
 735 373 735 373 1041 11 c 1,9,-1
 1041 2 l 1,10,11
 1032 -7 1032 -7 1009 -16 c 1,12,-1
 1000 -14 l 1,13,14
 645 412 645 412 397 791 c 1,15,-1
 397 798 l 1,16,-1
 1016 1377 l 1,17,-1
 1125 1488 l 1,18,-1
 1200 1488 l 1,6,-1
EndSplineSet
Position2: "'cpsp' Capital Spacing lookup 0 subtable" dx=16 dy=0 dh=33 dv=0
EndChar

StartChar: L
Encoding: 76 76 47
Width: 882
GlyphClass: 2
Flags: W
AnchorPoint: "Anchor-1" 467 0 basechar 0
AnchorPoint: "Anchor-0" 399 1487 basechar 0
LayerCount: 2
Fore
SplineSet
815 38 m 1,0,-1
 800 0 l 1,1,-1
 185 0 l 1,2,-1
 243 455 l 1,3,-1
 372 1488 l 1,4,-1
 418 1488 l 1,5,-1
 290 455 l 1,6,-1
 238 47 l 1,7,-1
 808 47 l 1,8,-1
 815 38 l 1,0,-1
EndSplineSet
Substitution2: "Single Substitution lookup 41 subtable" L.ss01
Substitution2: "'ss01' Style Set 1 lookup 35 subtable" L.ss01
Substitution2: "'aalt' Access All Alternates lookup 0 subtable" L.ss01
Position2: "'cpsp' Capital Spacing lookup 0 subtable" dx=16 dy=0 dh=33 dv=0
EndChar

StartChar: M
Encoding: 77 77 48
Width: 1731
GlyphClass: 2
Flags: W
LayerCount: 2
Fore
SplineSet
1495 0 m 1,0,-1
 1446 0 l 1,1,-1
 1459 455 l 1,2,-1
 1477 1375 l 1,3,-1
 1468 1375 l 1,4,-1
 849 189 l 1,5,-1
 791 189 l 1,6,-1
 481 1375 l 1,7,-1
 472 1375 l 1,8,-1
 261 455 l 1,9,-1
 158 0 l 1,10,-1
 109 0 l 1,11,-1
 450 1488 l 1,12,-1
 504 1488 l 1,13,-1
 565 1256 l 1,14,-1
 822 256 l 1,15,-1
 831 256 l 1,16,-1
 1370 1281 l 1,17,-1
 1477 1488 l 1,18,-1
 1534 1488 l 1,19,-1
 1495 0 l 1,0,-1
EndSplineSet
Substitution2: "Single Substitution lookup 41 subtable" M.ss01
Substitution2: "'ss01' Style Set 1 lookup 35 subtable" M.ss01
Substitution2: "'aalt' Access All Alternates lookup 0 subtable" M.ss01
Position2: "'cpsp' Capital Spacing lookup 0 subtable" dx=16 dy=0 dh=33 dv=0
EndChar

StartChar: N
Encoding: 78 78 49
Width: 1493
GlyphClass: 2
Flags: W
AnchorPoint: "Anchor-1" 684 0 basechar 0
AnchorPoint: "Anchor-0" 866 1487 basechar 0
LayerCount: 2
Fore
SplineSet
1228 410 m 1,0,-1
 1174 0 l 1,1,-1
 1130 0 l 1,2,-1
 421 1390 l 1,3,-1
 410 1390 l 1,4,-1
 292 465 l 1,5,-1
 234 0 l 1,6,-1
 187 0 l 1,7,-1
 243 443 l 1,8,-1
 376 1488 l 1,9,-1
 421 1488 l 1,10,-1
 1130 98 l 1,11,-1
 1139 98 l 1,12,-1
 1319 1485 l 1,13,-1
 1366 1490 l 1,14,-1
 1228 410 l 1,0,-1
EndSplineSet
Position2: "'cpsp' Capital Spacing lookup 0 subtable" dx=16 dy=0 dh=33 dv=0
EndChar

StartChar: O
Encoding: 79 79 50
Width: 1397
GlyphClass: 2
Flags: W
AnchorPoint: "Anchor-1" 0 0 basechar 0
AnchorPoint: "Anchor-0" 817 1487 basechar 0
LayerCount: 2
Fore
SplineSet
829 1499 m 0,0,1
 1071 1499 1071 1499 1198.5 1347 c 128,-1,2
 1326 1195 1326 1195 1326 913 c 0,3,4
 1326 628 1326 628 1244.5 420.5 c 128,-1,5
 1163 213 1163 213 1004 101 c 128,-1,6
 845 -11 845 -11 624 -11 c 0,7,8
 385 -11 385 -11 258 145.5 c 128,-1,9
 131 302 131 302 131 591 c 0,10,11
 131 872 131 872 212.5 1076.5 c 128,-1,12
 294 1281 294 1281 451.5 1390 c 128,-1,13
 609 1499 609 1499 829 1499 c 0,0,1
826 1452 m 0,14,15
 624 1452 624 1452 478 1349 c 128,-1,16
 332 1246 332 1246 256 1053.5 c 128,-1,17
 180 861 180 861 180 597 c 0,18,19
 180 328 180 328 295 181.5 c 128,-1,20
 410 35 410 35 626 35 c 0,21,22
 830 35 830 35 977 141.5 c 128,-1,23
 1124 248 1124 248 1200.5 443 c 128,-1,24
 1277 638 1277 638 1277 904 c 0,25,26
 1277 1169 1277 1169 1162 1310.5 c 128,-1,27
 1047 1452 1047 1452 826 1452 c 0,14,15
EndSplineSet
Position2: "'cpsp' Capital Spacing lookup 0 subtable" dx=16 dy=0 dh=33 dv=0
EndChar

StartChar: P
Encoding: 80 80 51
Width: 1083
GlyphClass: 2
Flags: W
LayerCount: 2
Fore
SplineSet
374 1488 m 1,0,-1
 684 1492 l 1,1,2
 853 1492 853 1492 944.5 1400.5 c 128,-1,3
 1036 1309 1036 1309 1036 1141 c 0,4,5
 1036 877 1036 877 896.5 729 c 128,-1,6
 757 581 757 581 499 581 c 2,7,-1
 308 581 l 1,8,-1
 292 455 l 1,9,-1
 234 0 l 1,10,-1
 187 0 l 1,11,-1
 245 455 l 1,12,-1
 374 1488 l 1,0,-1
312 628 m 1,13,-1
 575 628 l 1,14,15
 769 648 769 648 879.5 784 c 128,-1,16
 990 920 990 920 990 1132 c 0,17,18
 990 1276 990 1276 914 1357.5 c 128,-1,19
 838 1439 838 1439 695 1446 c 1,20,-1
 416 1443 l 1,21,-1
 312 628 l 1,13,-1
EndSplineSet
Position2: "'cpsp' Capital Spacing lookup 0 subtable" dx=16 dy=0 dh=33 dv=0
EndChar

StartChar: Q
Encoding: 81 81 52
Width: 1381
GlyphClass: 2
Flags: W
LayerCount: 2
Fore
SplineSet
742 -2 m 1,0,1
 849 -105 849 -105 975.5 -183.5 c 128,-1,2
 1102 -262 1102 -262 1247 -313 c 128,-1,3
 1392 -364 1392 -364 1546 -383 c 1,4,-1
 1544 -397 l 1,5,6
 1522 -425 1522 -425 1520 -425 c 2,7,-1
 1510 -425 l 1,8,9
 1276 -395 1276 -395 1062.5 -287.5 c 128,-1,10
 849 -180 849 -180 682 -9 c 1,11,12
 663 -11 663 -11 624 -11 c 0,13,14
 385 -11 385 -11 258 145.5 c 128,-1,15
 131 302 131 302 131 591 c 0,16,17
 131 872 131 872 212.5 1076.5 c 128,-1,18
 294 1281 294 1281 451.5 1390 c 128,-1,19
 609 1499 609 1499 829 1499 c 0,20,21
 1071 1499 1071 1499 1198.5 1347 c 128,-1,22
 1326 1195 1326 1195 1326 913 c 0,23,24
 1326 655 1326 655 1258.5 459.5 c 128,-1,25
 1191 264 1191 264 1059 145.5 c 128,-1,26
 927 27 927 27 742 -2 c 1,0,1
180 597 m 0,27,28
 180 328 180 328 295 181.5 c 128,-1,29
 410 35 410 35 626 35 c 0,30,31
 830 35 830 35 977 141.5 c 128,-1,32
 1124 248 1124 248 1200.5 443 c 128,-1,33
 1277 638 1277 638 1277 904 c 0,34,35
 1277 1169 1277 1169 1162 1310.5 c 128,-1,36
 1047 1452 1047 1452 826 1452 c 0,37,38
 624 1452 624 1452 478 1349 c 128,-1,39
 332 1246 332 1246 256 1053.5 c 128,-1,40
 180 861 180 861 180 597 c 0,27,28
EndSplineSet
Substitution2: "Single Substitution lookup 41 subtable" Q.corta
Position2: "'cpsp' Capital Spacing lookup 0 subtable" dx=16 dy=0 dh=33 dv=0
EndChar

StartChar: R
Encoding: 82 82 53
Width: 1152
GlyphClass: 2
Flags: W
AnchorPoint: "Anchor-1" 511 0 basechar 0
AnchorPoint: "Anchor-0" 693 1487 basechar 0
LayerCount: 2
Fore
SplineSet
1039 1147 m 0,0,1
 1039 1018 1039 1018 994 913 c 128,-1,2
 949 808 949 808 862.5 733.5 c 128,-1,3
 776 659 776 659 653 621 c 1,4,5
 793 312 793 312 974 11 c 1,6,-1
 971 2 l 1,7,8
 959 -10 959 -10 940 -16 c 1,9,-1
 929 -11 l 1,10,11
 738 313 738 313 602 614 c 1,12,-1
 310 614 l 1,13,-1
 292 455 l 1,14,-1
 234 0 l 1,15,-1
 187 0 l 1,16,-1
 245 455 l 1,17,-1
 374 1488 l 1,18,-1
 684 1492 l 1,19,20
 856 1492 856 1492 947.5 1403 c 128,-1,21
 1039 1314 1039 1314 1039 1147 c 0,0,1
318 661 m 1,22,-1
 630 661 l 1,23,24
 802 707 802 707 897 832 c 128,-1,25
 992 957 992 957 992 1139 c 0,26,27
 992 1232 992 1232 958.5 1299 c 128,-1,28
 925 1366 925 1366 858.5 1403.5 c 128,-1,29
 792 1441 792 1441 695 1446 c 1,30,-1
 416 1443 l 1,31,-1
 318 661 l 1,22,-1
EndSplineSet
Position2: "'cpsp' Capital Spacing lookup 0 subtable" dx=16 dy=0 dh=33 dv=0
EndChar

StartChar: S
Encoding: 83 83 54
Width: 987
GlyphClass: 2
Flags: W
AnchorPoint: "Anchor-1" 429 0 basechar 0
AnchorPoint: "Anchor-0" 612 1487 basechar 0
LayerCount: 2
Fore
SplineSet
663 1495 m 0,0,1
 804 1495 804 1495 929 1426 c 1,2,-1
 915 1384 l 1,3,-1
 898 1382 l 1,4,5
 789 1448 789 1448 656 1448 c 0,6,7
 570 1448 570 1448 496 1418.5 c 128,-1,8
 422 1389 422 1389 373 1341.5 c 128,-1,9
 324 1294 324 1294 296.5 1234.5 c 128,-1,10
 269 1175 269 1175 269 1114 c 0,11,12
 269 1059 269 1059 289 1012 c 128,-1,13
 309 965 309 965 342.5 929.5 c 128,-1,14
 376 894 376 894 419.5 862.5 c 128,-1,15
 463 831 463 831 511 802 c 128,-1,16
 559 773 559 773 607 743.5 c 128,-1,17
 655 714 655 714 698.5 678.5 c 128,-1,18
 742 643 742 643 776 603 c 128,-1,19
 810 563 810 563 829.5 508.5 c 128,-1,20
 849 454 849 454 849 390 c 0,21,22
 849 281 849 281 788 189.5 c 128,-1,23
 727 98 727 98 621 44.5 c 128,-1,24
 515 -9 515 -9 388 -9 c 0,25,26
 301 -9 301 -9 214.5 19.5 c 128,-1,27
 128 48 128 48 65 100 c 1,28,-1
 72 145 l 1,29,-1
 87 149 l 1,30,31
 147 94 147 94 228.5 66 c 128,-1,32
 310 38 310 38 392 38 c 0,33,34
 481 38 481 38 558.5 67 c 128,-1,35
 636 96 636 96 689.5 144 c 128,-1,36
 743 192 743 192 773.5 255 c 128,-1,37
 804 318 804 318 804 385 c 0,38,39
 804 438 804 438 787.5 483.5 c 128,-1,40
 771 529 771 529 743 562.5 c 128,-1,41
 715 596 715 596 678 628.5 c 128,-1,42
 641 661 641 661 599 686 c 128,-1,43
 557 711 557 711 513 739 c 128,-1,44
 469 767 469 767 427 793.5 c 128,-1,45
 385 820 385 820 348 854 c 128,-1,46
 311 888 311 888 283 924.5 c 128,-1,47
 255 961 255 961 238.5 1010 c 128,-1,48
 222 1059 222 1059 222 1116 c 0,49,50
 222 1194 222 1194 256 1264.5 c 128,-1,51
 290 1335 290 1335 349 1385 c 128,-1,52
 408 1435 408 1435 489.5 1465 c 128,-1,53
 571 1495 571 1495 663 1495 c 0,0,1
EndSplineSet
Position2: "'cpsp' Capital Spacing lookup 0 subtable" dx=16 dy=0 dh=33 dv=0
EndChar

StartChar: T
Encoding: 84 84 55
Width: 1049
GlyphClass: 2
Flags: W
AnchorPoint: "Anchor-1" 462 0 basechar 0
AnchorPoint: "Anchor-0" 644 1487 basechar 0
LayerCount: 2
Fore
SplineSet
1107 1477 m 1,0,-1
 1092 1441 l 1,1,-1
 666 1441 l 1,2,-1
 539 455 l 1,3,-1
 483 0 l 1,4,-1
 437 0 l 1,5,-1
 492 455 l 1,6,-1
 619 1441 l 1,7,-1
 187 1441 l 1,8,-1
 180 1450 l 1,9,-1
 194 1488 l 1,10,-1
 1100 1488 l 1,11,-1
 1107 1477 l 1,0,-1
EndSplineSet
Position2: "'cpsp' Capital Spacing lookup 0 subtable" dx=16 dy=0 dh=33 dv=0
EndChar

StartChar: U
Encoding: 85 85 56
Width: 1360
GlyphClass: 2
Flags: W
AnchorPoint: "Anchor-1" 0 0 basechar 0
AnchorPoint: "Anchor-0" 798 1487 basechar 0
LayerCount: 2
Fore
SplineSet
1190 728 m 1,0,-1
 1167 535 l 1,1,2
 1141 277 1141 277 998 134 c 128,-1,3
 855 -9 855 -9 621 -9 c 0,4,5
 414 -9 414 -9 301.5 99.5 c 128,-1,6
 189 208 189 208 189 410 c 0,7,8
 189 478 189 478 198 535 c 2,9,-1
 229 751 l 1,10,-1
 323 1488 l 1,11,-1
 369 1488 l 1,12,-1
 245 535 l 1,13,14
 236 455 236 455 236 421 c 0,15,16
 236 235 236 235 334.5 136.5 c 128,-1,17
 433 38 433 38 619 38 c 0,18,19
 831 38 831 38 960 166 c 128,-1,20
 1089 294 1089 294 1121 535 c 1,21,-1
 1239 1488 l 1,22,-1
 1286 1488 l 1,23,-1
 1190 728 l 1,0,-1
EndSplineSet
Position2: "'cpsp' Capital Spacing lookup 0 subtable" dx=16 dy=0 dh=33 dv=0
EndChar

StartChar: V
Encoding: 86 86 57
Width: 1185
GlyphClass: 2
Flags: W
LayerCount: 2
Fore
SplineSet
542 0 m 1,0,-1
 490 0 l 1,1,-1
 165 1488 l 1,2,-1
 220 1488 l 1,3,-1
 236 1387 l 1,4,-1
 521 80 l 1,5,-1
 530 80 l 1,6,-1
 1183 1387 l 1,7,-1
 1226 1488 l 1,8,-1
 1281 1488 l 1,9,-1
 542 0 l 1,0,-1
EndSplineSet
Substitution2: "Single Substitution lookup 41 subtable" V.ss01
Substitution2: "'ss01' Style Set 1 lookup 35 subtable" V.ss01
Substitution2: "'aalt' Access All Alternates lookup 0 subtable" V.ss01
Position2: "'cpsp' Capital Spacing lookup 0 subtable" dx=16 dy=0 dh=33 dv=0
EndChar

StartChar: W
Encoding: 87 87 58
Width: 1947
GlyphClass: 2
Flags: W
AnchorPoint: "Anchor-1" 0 0 basechar 0
AnchorPoint: "Anchor-0" 1043 1487 basechar 0
LayerCount: 2
Fore
SplineSet
1305 0 m 1,0,-1
 1259 0 l 1,1,-1
 1047 1023 l 1,2,-1
 1036 1023 l 1,3,-1
 539 0 l 1,4,-1
 488 0 l 1,5,-1
 173 1488 l 1,6,-1
 227 1488 l 1,7,-1
 243 1387 l 1,8,-1
 521 80 l 1,9,-1
 530 80 l 1,10,-1
 1027 1100 l 1,11,-1
 943 1488 l 1,12,-1
 994 1488 l 1,13,-1
 1011 1387 l 1,14,-1
 1286 80 l 1,15,-1
 1296 80 l 1,16,-1
 1940 1387 l 1,17,-1
 1985 1488 l 1,18,-1
 2038 1488 l 1,19,-1
 1305 0 l 1,0,-1
EndSplineSet
Position2: "'cpsp' Capital Spacing lookup 0 subtable" dx=16 dy=0 dh=33 dv=0
EndChar

StartChar: X
Encoding: 88 88 59
Width: 1252
GlyphClass: 2
Flags: W
LayerCount: 2
Fore
SplineSet
677 768 m 1,0,-1
 1081 0 l 1,1,-1
 1023 0 l 1,2,-1
 985 89 l 1,3,-1
 640 733 l 1,4,-1
 138 84 l 1,5,-1
 80 0 l 1,6,-1
 16 0 l 1,7,-1
 617 773 l 1,8,-1
 241 1488 l 1,9,-1
 301 1488 l 1,10,-1
 339 1406 l 1,11,-1
 651 808 l 1,12,-1
 1107 1394 l 1,13,-1
 1170 1488 l 1,14,-1
 1232 1488 l 1,15,-1
 677 768 l 1,0,-1
EndSplineSet
Substitution2: "Single Substitution lookup 41 subtable" X.ss01
Substitution2: "'ss01' Style Set 1 lookup 35 subtable" X.ss01
Substitution2: "'aalt' Access All Alternates lookup 0 subtable" X.ss01
Position2: "'cpsp' Capital Spacing lookup 0 subtable" dx=16 dy=0 dh=33 dv=0
EndChar

StartChar: Y
Encoding: 89 89 60
Width: 1094
GlyphClass: 2
Flags: W
AnchorPoint: "Anchor-1" 0 0 basechar 0
AnchorPoint: "Anchor-0" 665 1487 basechar 0
LayerCount: 2
Fore
SplineSet
555 577 m 1,0,-1
 539 455 l 1,1,-1
 483 0 l 1,2,-1
 437 0 l 1,3,-1
 492 455 l 1,4,-1
 508 572 l 1,5,-1
 180 1488 l 1,6,-1
 238 1488 l 1,7,-1
 254 1426 l 1,8,-1
 535 646 l 1,9,-1
 546 646 l 1,10,-1
 1056 1426 l 1,11,-1
 1088 1488 l 1,12,-1
 1149 1488 l 1,13,-1
 555 577 l 1,0,-1
EndSplineSet
Position2: "'cpsp' Capital Spacing lookup 0 subtable" dx=16 dy=0 dh=33 dv=0
EndChar

StartChar: Z
Encoding: 90 90 61
Width: 1125
GlyphClass: 2
Flags: W
AnchorPoint: "Anchor-1" 0 0 basechar 0
AnchorPoint: "Anchor-0" 614 1487 basechar 0
LayerCount: 2
Fore
SplineSet
1137 1448 m 1,0,-1
 80 47 l 1,1,-1
 804 47 l 1,2,-1
 955 49 l 1,3,-1
 964 38 l 1,4,-1
 951 0 l 1,5,-1
 91 0 l 1,6,-1
 11 -2 l 1,7,-1
 16 40 l 1,8,-1
 1074 1441 l 1,9,-1
 374 1441 l 1,10,-1
 245 1439 l 1,11,-1
 236 1450 l 1,12,-1
 250 1490 l 1,13,-1
 392 1488 l 1,14,-1
 1060 1488 l 1,15,-1
 1141 1490 l 1,16,-1
 1137 1448 l 1,0,-1
EndSplineSet
Position2: "'cpsp' Capital Spacing lookup 0 subtable" dx=16 dy=0 dh=33 dv=0
EndChar

StartChar: bracketleft
Encoding: 91 91 62
Width: 657
GlyphClass: 2
Flags: W
LayerCount: 2
Fore
SplineSet
735 1499 m 1,0,-1
 731 1464 l 1,1,-1
 425 1443 l 1,2,-1
 220 -245 l 1,3,-1
 519 -266 l 1,4,-1
 516 -301 l 1,5,-1
 504 -310 l 1,6,-1
 165 -287 l 1,7,-1
 276 600 l 1,8,-1
 385 1485 l 1,9,-1
 728 1508 l 1,10,-1
 735 1499 l 1,0,-1
EndSplineSet
EndChar

StartChar: backslash
Encoding: 92 92 63
Width: 840
GlyphClass: 2
Flags: W
LayerCount: 2
Fore
SplineSet
241 1575 m 1,0,-1
 717 -247 l 1,1,-1
 710 -256 l 1,2,-1
 673 -256 l 1,3,-1
 196 1564 l 1,4,-1
 203 1575 l 1,5,-1
 241 1575 l 1,0,-1
EndSplineSet
EndChar

StartChar: bracketright
Encoding: 93 93 64
Width: 657
GlyphClass: 2
Flags: W
LayerCount: 2
Fore
SplineSet
-60 -301 m 1,0,-1
 -56 -266 l 1,1,-1
 250 -245 l 1,2,-1
 455 1443 l 1,3,-1
 156 1464 l 1,4,-1
 158 1499 l 1,5,-1
 171 1508 l 1,6,-1
 508 1485 l 1,7,-1
 399 597 l 1,8,-1
 290 -287 l 1,9,-1
 -54 -310 l 1,10,-1
 -60 -301 l 1,0,-1
EndSplineSet
EndChar

StartChar: asciicircum
Encoding: 94 94 65
Width: 949
GlyphClass: 2
Flags: W
LayerCount: 2
Fore
SplineSet
862 283 m 1,0,-1
 857 274 l 1,1,-1
 820 261 l 1,2,-1
 563 1078 l 1,3,-1
 553 1078 l 1,4,-1
 70 271 l 1,5,-1
 58 263 l 1,6,-1
 28 280 l 1,7,-1
 532 1130 l 1,8,-1
 542 1137 l 1,9,-1
 593 1137 l 1,10,-1
 862 283 l 1,0,-1
EndSplineSet
EndChar

StartChar: underscore
Encoding: 95 95 66
Width: 1061
GlyphClass: 2
Flags: W
LayerCount: 2
Fore
SplineSet
1007 -207 m 1,0,-1
 996 -247 l 1,1,-1
 -124 -247 l 1,2,-1
 -129 -241 l 1,3,-1
 -119 -201 l 1,4,-1
 1002 -201 l 1,5,-1
 1007 -207 l 1,0,-1
EndSplineSet
EndChar

StartChar: grave
Encoding: 96 96 67
Width: 909
GlyphClass: 2
Flags: W
LayerCount: 2
Fore
SplineSet
394 1560 m 1,0,-1
 406 1562 l 1,1,2
 580 1384 580 1384 747 1243 c 1,3,-1
 722 1212 l 1,4,-1
 710 1210 l 1,5,6
 526 1372 526 1372 374 1524 c 1,7,-1
 372 1537 l 1,8,-1
 394 1560 l 1,0,-1
EndSplineSet
EndChar

StartChar: a
Encoding: 97 97 68
Width: 984
GlyphClass: 2
Flags: W
AnchorPoint: "Anchor-1" 0 0 basechar 0
AnchorPoint: "Anchor-0" 588 1055 basechar 0
LayerCount: 2
Fore
SplineSet
838 1065 m 1,0,-1
 731 247 l 1,1,-1
 710 0 l 1,2,-1
 651 -9 l 1,3,-1
 735 633 l 1,4,-1
 726 633 l 1,5,6
 657 502 657 502 579.5 384 c 128,-1,7
 502 266 502 266 419 165.5 c 128,-1,8
 336 65 336 65 254 -9 c 1,9,-1
 229 -9 l 1,10,11
 165 38 165 38 136 112 c 128,-1,12
 107 186 107 186 107 320 c 0,13,14
 107 438 107 438 129 546 c 128,-1,15
 151 654 151 654 195.5 746 c 128,-1,16
 240 838 240 838 303 907 c 128,-1,17
 366 976 366 976 451.5 1018 c 128,-1,18
 537 1060 537 1060 637 1067 c 1,19,-1
 646 1067 l 1,20,-1
 798 1056 l 1,21,-1
 826 1072 l 1,22,-1
 838 1065 l 1,0,-1
247 56 m 0,23,24
 257 56 257 56 289.5 86 c 128,-1,25
 322 116 322 116 374.5 179 c 128,-1,26
 427 242 427 242 486.5 325 c 128,-1,27
 546 408 546 408 618 528 c 128,-1,28
 690 648 690 648 755 777 c 1,29,-1
 764 845 l 1,30,-1
 780 1009 l 1,31,-1
 642 1020 l 1,32,33
 552 1018 552 1018 474 980 c 128,-1,34
 396 942 396 942 338 876.5 c 128,-1,35
 280 811 280 811 238 724 c 128,-1,36
 196 637 196 637 175 536.5 c 128,-1,37
 154 436 154 436 154 329 c 0,38,39
 154 270 154 270 161 221.5 c 128,-1,40
 168 173 168 173 178.5 143 c 128,-1,41
 189 113 189 113 202 92.5 c 128,-1,42
 215 72 215 72 226.5 64 c 128,-1,43
 238 56 238 56 247 56 c 0,23,24
EndSplineSet
Substitution2: "'ss02' Style Set 2 lookup 36 subtable" left
Substitution2: "'case' Case-Sensitive Forms lookup 28 subtable" A
Substitution2: "'ordn' Ordinals lookup 22 subtable" a.sups
Substitution2: "'sups' Superscript lookup 16 subtable" a.sups
AlternateSubs2: "'aalt' Access All Alternates lookup 1 subtable" a.sups A left
EndChar

StartChar: b
Encoding: 98 98 69
Width: 987
GlyphClass: 2
Flags: W
AnchorPoint: "Anchor-1" 761 0 basechar 0
AnchorPoint: "Anchor-0" 552 1102 basechar 0
LayerCount: 2
Fore
SplineSet
733 1060 m 1,0,-1
 759 1060 l 1,1,2
 824 1009 824 1009 852 938.5 c 128,-1,3
 880 868 880 868 880 740 c 0,4,5
 880 621 880 621 857.5 512 c 128,-1,6
 835 403 835 403 789.5 310.5 c 128,-1,7
 744 218 744 218 680 149 c 128,-1,8
 616 80 616 80 529 38.5 c 128,-1,9
 442 -3 442 -3 341 -9 c 1,10,-1
 332 -9 l 1,11,-1
 171 31 l 1,12,-1
 149 33 l 1,13,-1
 334 1419 l 1,14,-1
 350 1630 l 1,15,-1
 408 1639 l 1,16,-1
 245 418 l 1,17,-1
 254 418 l 1,18,19
 360 616 360 616 484 782.5 c 128,-1,20
 608 949 608 949 733 1060 c 1,0,-1
203 70 m 1,21,-1
 336 38 l 1,22,23
 427 38 427 38 507 75.5 c 128,-1,24
 587 113 587 113 646 178.5 c 128,-1,25
 705 244 705 244 747.5 331 c 128,-1,26
 790 418 790 418 811.5 519.5 c 128,-1,27
 833 621 833 621 833 728 c 0,28,29
 833 786 833 786 826 833.5 c 128,-1,30
 819 881 819 881 808.5 910 c 128,-1,31
 798 939 798 939 785 958.5 c 128,-1,32
 772 978 772 978 760.5 986 c 128,-1,33
 749 994 749 994 740 994 c 0,34,35
 730 994 730 994 697.5 964 c 128,-1,36
 665 934 665 934 612 871.5 c 128,-1,37
 559 809 559 809 499 726.5 c 128,-1,38
 439 644 439 644 365.5 524.5 c 128,-1,39
 292 405 292 405 227 276 c 1,40,-1
 203 70 l 1,21,-1
EndSplineSet
Substitution2: "'ss02' Style Set 2 lookup 36 subtable" up
Substitution2: "'case' Case-Sensitive Forms lookup 28 subtable" B
Substitution2: "'ordn' Ordinals lookup 22 subtable" b.sups
Substitution2: "'sups' Superscript lookup 16 subtable" b.sups
AlternateSubs2: "'aalt' Access All Alternates lookup 1 subtable" b.sups B up
EndChar

StartChar: c
Encoding: 99 99 70
Width: 753
GlyphClass: 2
Flags: W
AnchorPoint: "Anchor-1" 369 0 basechar 0
AnchorPoint: "Anchor-0" 516 1055 basechar 0
LayerCount: 2
Fore
SplineSet
742 1020 m 1,0,-1
 755 1004 l 1,1,-1
 740 971 l 1,2,-1
 728 964 l 1,3,4
 644 1018 644 1018 579 1018 c 0,5,6
 448 1017 448 1017 352 933 c 128,-1,7
 256 849 256 849 206 694.5 c 128,-1,8
 156 540 156 540 156 329 c 0,9,10
 156 226 156 226 176.5 160.5 c 128,-1,11
 197 95 197 95 234 66.5 c 128,-1,12
 271 38 271 38 327 38 c 0,13,14
 362 38 362 38 396.5 49 c 128,-1,15
 431 60 431 60 469 86 c 128,-1,16
 507 112 507 112 546 160.5 c 128,-1,17
 585 209 585 209 619 276 c 1,18,-1
 633 276 l 1,19,-1
 653 245 l 1,20,21
 582 117 582 117 504.5 59 c 128,-1,22
 427 1 427 1 329 -11 c 1,23,-1
 310 -11 l 1,24,25
 273 -5 273 -5 246.5 4.5 c 128,-1,26
 220 14 220 14 192.5 37 c 128,-1,27
 165 60 165 60 148 95.5 c 128,-1,28
 131 131 131 131 120 191 c 128,-1,29
 109 251 109 251 109 332 c 0,30,31
 109 437 109 437 122.5 530.5 c 128,-1,32
 136 624 136 624 162.5 706.5 c 128,-1,33
 189 789 189 789 230.5 854.5 c 128,-1,34
 272 920 272 920 327 967 c 128,-1,35
 382 1014 382 1014 454.5 1039.5 c 128,-1,36
 527 1065 527 1065 612 1065 c 1,37,-1
 742 1020 l 1,0,-1
EndSplineSet
Substitution2: "Single Substitution lookup 41 subtable" C.ss01
Substitution2: "'ss02' Style Set 2 lookup 36 subtable" right
Substitution2: "'ss01' Style Set 1 lookup 35 subtable" C.ss01
Substitution2: "'case' Case-Sensitive Forms lookup 28 subtable" C
Substitution2: "'ordn' Ordinals lookup 22 subtable" c.sups
Substitution2: "'sups' Superscript lookup 16 subtable" c.sups
AlternateSubs2: "'aalt' Access All Alternates lookup 1 subtable" c.sups C C.ss01 right
EndChar

StartChar: d
Encoding: 100 100 71
Width: 987
GlyphClass: 2
Flags: W
AnchorPoint: "Anchor-1" 756 0 basechar 0
AnchorPoint: "Anchor-0" 756 1055 basechar 0
LayerCount: 2
Fore
SplineSet
920 1639 m 1,0,-1
 735 247 l 1,1,-1
 715 0 l 1,2,-1
 656 -9 l 1,3,-1
 742 633 l 1,4,-1
 731 633 l 1,5,6
 624 434 624 434 500 267.5 c 128,-1,7
 376 101 376 101 250 -9 c 1,8,-1
 225 -9 l 1,9,10
 162 36 162 36 133.5 108.5 c 128,-1,11
 105 181 105 181 105 310 c 0,12,13
 105 409 105 409 121 502 c 128,-1,14
 137 595 137 595 167.5 676.5 c 128,-1,15
 198 758 198 758 245 826.5 c 128,-1,16
 292 895 292 895 350.5 945 c 128,-1,17
 409 995 409 995 484 1025 c 128,-1,18
 559 1055 559 1055 644 1060 c 1,19,-1
 653 1060 l 1,20,-1
 798 1053 l 1,21,-1
 847 1419 l 1,22,-1
 862 1630 l 1,23,-1
 920 1639 l 1,0,-1
243 56 m 0,24,25
 253 56 253 56 286.5 86.5 c 128,-1,26
 320 117 320 117 373.5 181 c 128,-1,27
 427 245 427 245 488.5 328.5 c 128,-1,28
 550 412 550 412 624 533 c 128,-1,29
 698 654 698 654 764 784 c 1,30,-1
 791 1007 l 1,31,-1
 649 1013 l 1,32,33
 573 1013 573 1013 504.5 987 c 128,-1,34
 436 961 436 961 382 914 c 128,-1,35
 328 867 328 867 284 802 c 128,-1,36
 240 737 240 737 211.5 660.5 c 128,-1,37
 183 584 183 584 167.5 498 c 128,-1,38
 152 412 152 412 152 323 c 0,39,40
 152 265 152 265 159 217.5 c 128,-1,41
 166 170 166 170 176.5 141 c 128,-1,42
 187 112 187 112 199.5 92 c 128,-1,43
 212 72 212 72 223 64 c 128,-1,44
 234 56 234 56 243 56 c 0,24,25
EndSplineSet
Substitution2: "Single Substitution lookup 41 subtable" D.ss01
Substitution2: "'ss02' Style Set 2 lookup 36 subtable" down
Substitution2: "'ss01' Style Set 1 lookup 35 subtable" D.ss01
Substitution2: "'case' Case-Sensitive Forms lookup 28 subtable" D
Substitution2: "'ordn' Ordinals lookup 22 subtable" d.sups
Substitution2: "'sups' Superscript lookup 16 subtable" d.sups
AlternateSubs2: "'aalt' Access All Alternates lookup 1 subtable" d.sups D D.ss01 down
EndChar

StartChar: e
Encoding: 101 101 72
Width: 825
GlyphClass: 2
Flags: W
AnchorPoint: "Anchor-1" 361 0 basechar 0
AnchorPoint: "Anchor-0" 543 1055 basechar 0
LayerCount: 2
Fore
SplineSet
663 276 m 1,0,-1
 684 245 l 1,1,2
 614 127 614 127 533 64.5 c 128,-1,3
 452 2 452 2 345 -11 c 1,4,-1
 325 -11 l 1,5,6
 210 2 210 2 159.5 85.5 c 128,-1,7
 109 169 109 169 109 334 c 0,8,9
 109 488 109 488 144.5 623.5 c 128,-1,10
 180 759 180 759 241 855 c 128,-1,11
 302 951 302 951 386 1008 c 128,-1,12
 470 1065 470 1065 565 1067 c 1,13,-1
 577 1067 l 1,14,15
 621 1064 621 1064 654 1051.5 c 128,-1,16
 687 1039 687 1039 708.5 1018.5 c 128,-1,17
 730 998 730 998 740.5 970 c 128,-1,18
 751 942 751 942 751 906 c 0,19,20
 751 773 751 773 601 646.5 c 128,-1,21
 451 520 451 520 158 410 c 1,22,-1
 156 345 l 1,23,24
 156 239 156 239 176.5 170.5 c 128,-1,25
 197 102 197 102 237.5 70 c 128,-1,26
 278 38 278 38 341 38 c 0,27,28
 398 38 398 38 452.5 66 c 128,-1,29
 507 94 507 94 555.5 147 c 128,-1,30
 604 200 604 200 646 276 c 1,31,-1
 663 276 l 1,0,-1
570 1018 m 0,32,33
 469 1018 469 1018 381.5 947.5 c 128,-1,34
 294 877 294 877 236.5 750 c 128,-1,35
 179 623 179 623 163 463 c 1,36,37
 422 559 422 559 562 672.5 c 128,-1,38
 702 786 702 786 702 898 c 0,39,40
 702 933 702 933 688.5 959.5 c 128,-1,41
 675 986 675 986 644.5 1002 c 128,-1,42
 614 1018 614 1018 570 1018 c 0,32,33
EndSplineSet
Substitution2: "'ss02' Style Set 2 lookup 36 subtable" square1
Substitution2: "'case' Case-Sensitive Forms lookup 28 subtable" E
Substitution2: "'ordn' Ordinals lookup 22 subtable" e.sups
Substitution2: "'sups' Superscript lookup 16 subtable" e.sups
AlternateSubs2: "'aalt' Access All Alternates lookup 1 subtable" e.sups E square1
EndChar

StartChar: f
Encoding: 102 102 73
Width: 599
GlyphClass: 2
Flags: W
LayerCount: 2
Fore
SplineSet
896 1611 m 1,0,-1
 880 1564 l 1,1,-1
 866 1564 l 1,2,3
 771 1599 771 1599 705 1599 c 0,4,5
 585 1599 585 1599 513.5 1520 c 128,-1,6
 442 1441 442 1441 421 1286 c 2,7,-1
 390 1049 l 1,8,-1
 661 1049 l 1,9,-1
 668 1039 l 1,10,-1
 659 1002 l 1,11,-1
 383 1002 l 1,12,-1
 312 448 l 1,13,-1
 250 -56 l 1,14,-1
 229 -303 l 1,15,-1
 171 -312 l 1,16,-1
 266 443 l 1,17,-1
 336 1002 l 1,18,-1
 176 1002 l 1,19,-1
 165 1011 l 1,20,-1
 176 1049 l 1,21,-1
 343 1049 l 1,22,-1
 374 1286 l 2,23,24
 389 1405 389 1405 433.5 1485 c 128,-1,25
 478 1565 478 1565 549.5 1605.5 c 128,-1,26
 621 1646 621 1646 719 1646 c 1,27,-1
 891 1618 l 1,28,-1
 896 1611 l 1,0,-1
EndSplineSet
Substitution2: "Single Substitution lookup 41 subtable" f.t
Substitution2: "Single Substitution lookup 40 subtable" f.l
Substitution2: "Single Substitution lookup 39 subtable" f.f
Substitution2: "'ss02' Style Set 2 lookup 36 subtable" square2
Substitution2: "'case' Case-Sensitive Forms lookup 28 subtable" F
Substitution2: "'ordn' Ordinals lookup 22 subtable" f.sups
Substitution2: "'sups' Superscript lookup 16 subtable" f.sups
AlternateSubs2: "'aalt' Access All Alternates lookup 1 subtable" f.sups F square2
EndChar

StartChar: g
Encoding: 103 103 74
Width: 967
GlyphClass: 2
Flags: W
AnchorPoint: "Anchor-1" 0 0 basechar 0
AnchorPoint: "Anchor-0" 552 1055 basechar 0
LayerCount: 2
Fore
SplineSet
822 1065 m 1,0,-1
 726 310 l 1,1,-1
 698 82 l 2,2,3
 664 -189 664 -189 530.5 -324 c 128,-1,4
 397 -459 397 -459 192 -459 c 0,5,6
 104 -459 104 -459 37 -428.5 c 128,-1,7
 -30 -398 -30 -398 -72 -344 c 128,-1,8
 -114 -290 -114 -290 -136 -214 c 1,9,-1
 -131 -198 l 1,10,-1
 220 87 l 1,11,-1
 220 98 l 1,12,13
 178 140 178 140 158 203.5 c 128,-1,14
 138 267 138 267 138 369 c 0,15,16
 138 448 138 448 148.5 522.5 c 128,-1,17
 159 597 159 597 181 664.5 c 128,-1,18
 203 732 203 732 233.5 790.5 c 128,-1,19
 264 849 264 849 306 897.5 c 128,-1,20
 348 946 348 946 398 981.5 c 128,-1,21
 448 1017 448 1017 509 1038 c 128,-1,22
 570 1059 570 1059 637 1062 c 1,23,-1
 646 1062 l 1,24,-1
 784 1056 l 1,25,-1
 811 1072 l 1,26,-1
 822 1065 l 1,0,-1
764 1013 m 1,27,-1
 640 1018 l 1,28,29
 556 1018 556 1018 483 983.5 c 128,-1,30
 410 949 410 949 355.5 888.5 c 128,-1,31
 301 828 301 828 261.5 747 c 128,-1,32
 222 666 222 666 202 572 c 128,-1,33
 182 478 182 478 182 378 c 0,34,35
 182 325 182 325 188.5 281.5 c 128,-1,36
 195 238 195 238 205 211 c 128,-1,37
 215 184 215 184 226.5 166 c 128,-1,38
 238 148 238 148 248 140.5 c 128,-1,39
 258 133 258 133 266 133 c 0,40,41
 275 133 275 133 304 161.5 c 128,-1,42
 333 190 333 190 380 248.5 c 128,-1,43
 427 307 427 307 482.5 384.5 c 128,-1,44
 538 462 538 462 607.5 572.5 c 128,-1,45
 677 683 677 683 744 804 c 1,46,-1
 751 864 l 1,47,-1
 764 1013 l 1,27,-1
726 668 m 1,48,-1
 717 668 l 1,49,50
 642 550 642 550 601 487 c 128,-1,51
 560 424 560 424 498.5 336 c 128,-1,52
 437 248 437 248 383 185 c 128,-1,53
 329 122 329 122 274 72 c 1,54,-1
 -63 -201 l 2,55,56
 -72 -208 -72 -208 -75 -212 c 128,-1,57
 -78 -216 -78 -216 -78 -225 c 1,58,59
 -76 -240 -76 -240 -68 -259 c 128,-1,60
 -60 -278 -60 -278 -46 -299.5 c 128,-1,61
 -32 -321 -32 -321 -9.5 -340.5 c 128,-1,62
 13 -360 13 -360 41 -376.5 c 128,-1,63
 69 -393 69 -393 108 -403 c 128,-1,64
 147 -413 147 -413 192 -413 c 0,65,66
 375 -413 375 -413 495.5 -290 c 128,-1,67
 616 -167 616 -167 649 72 c 1,68,-1
 726 668 l 1,48,-1
EndSplineSet
Substitution2: "'ss02' Style Set 2 lookup 36 subtable" circle1
Substitution2: "'case' Case-Sensitive Forms lookup 28 subtable" G
Substitution2: "'ordn' Ordinals lookup 22 subtable" g.sups
Substitution2: "'sups' Superscript lookup 16 subtable" g.sups
AlternateSubs2: "'aalt' Access All Alternates lookup 1 subtable" g.sups G circle1
EndChar

StartChar: h
Encoding: 104 104 75
Width: 1040
GlyphClass: 2
Flags: W
AnchorPoint: "Anchor-1" 0 0 basechar 0
AnchorPoint: "Anchor-0" 376 1634 basechar 0
LayerCount: 2
Fore
SplineSet
757 1078 m 1,0,-1
 782 1078 l 1,1,2
 837 1063 837 1063 871 1007.5 c 128,-1,3
 905 952 905 952 902 880 c 1,4,-1
 898 849 l 1,5,-1
 798 236 l 1,6,-1
 771 0 l 1,7,-1
 712 -9 l 1,8,-1
 849 842 l 1,9,-1
 853 878 l 1,10,11
 854 936 854 936 829 977 c 128,-1,12
 804 1018 804 1018 773 1018 c 0,13,14
 712 1018 712 1018 562 819.5 c 128,-1,15
 412 621 412 621 229 280 c 1,16,-1
 225 247 l 1,17,-1
 203 0 l 1,18,-1
 142 -9 l 1,19,-1
 334 1419 l 1,20,-1
 348 1630 l 1,21,-1
 408 1639 l 1,22,-1
 247 430 l 1,23,-1
 259 430 l 1,24,25
 357 599 357 599 434.5 716.5 c 128,-1,26
 512 834 512 834 595.5 930.5 c 128,-1,27
 679 1027 679 1027 757 1078 c 1,0,-1
EndSplineSet
Substitution2: "'ss02' Style Set 2 lookup 36 subtable" circle2
Substitution2: "'case' Case-Sensitive Forms lookup 28 subtable" H
Substitution2: "'ordn' Ordinals lookup 22 subtable" h.sups
Substitution2: "'sups' Superscript lookup 16 subtable" h.sups
AlternateSubs2: "'aalt' Access All Alternates lookup 1 subtable" h.sups H circle2
EndChar

StartChar: i
Encoding: 105 105 76
Width: 473
GlyphClass: 2
Flags: W
AnchorPoint: "Anchor-1" 0 0 basechar 0
AnchorPoint: "Anchor-0" 300 1055 basechar 0
LayerCount: 2
Fore
SplineSet
345.5 1471 m 128,-1,1
 367 1471 367 1471 379.5 1458 c 128,-1,2
 392 1445 392 1445 392 1423.5 c 128,-1,3
 392 1402 392 1402 379.5 1389.5 c 128,-1,4
 367 1377 367 1377 345.5 1377 c 128,-1,5
 324 1377 324 1377 311.5 1389.5 c 128,-1,6
 299 1402 299 1402 299 1423.5 c 128,-1,7
 299 1445 299 1445 311.5 1458 c 128,-1,0
 324 1471 324 1471 345.5 1471 c 128,-1,1
222 247 m 1,8,-1
 205 0 l 1,9,-1
 142 -9 l 1,10,-1
 256 845 l 1,11,-1
 271 1056 l 1,12,-1
 329 1065 l 1,13,-1
 222 247 l 1,8,-1
EndSplineSet
Substitution2: "Single Substitution lookup 41 subtable" I.ss01
Substitution2: "'ss01' Style Set 1 lookup 35 subtable" I.ss01
Substitution2: "'case' Case-Sensitive Forms lookup 28 subtable" I
Substitution2: "'ordn' Ordinals lookup 22 subtable" i.sups
Substitution2: "'sups' Superscript lookup 16 subtable" i.sups
Substitution2: "'locl' Localized Forms in Latin lookup 9 subtable" idotaccent
Substitution2: "'locl' Localized Forms in Latin lookup 8 subtable" idotaccent
Substitution2: "'locl' Localized Forms in Latin lookup 7 subtable" idotaccent
Substitution2: "'locl' Localized Forms in Latin lookup 6 subtable" idotaccent
Substitution2: "'locl' Localized Forms in Latin lookup 5 subtable" idotaccent
AlternateSubs2: "'aalt' Access All Alternates lookup 1 subtable" idotaccent i.sups I I.ss01
EndChar

StartChar: j
Encoding: 106 106 77
Width: 494
GlyphClass: 2
Flags: W
AnchorPoint: "Anchor-1" 0 0 basechar 0
AnchorPoint: "Anchor-0" 282 1055 basechar 0
LayerCount: 2
Fore
SplineSet
327.5 1471 m 128,-1,1
 349 1471 349 1471 361.5 1458 c 128,-1,2
 374 1445 374 1445 374 1423.5 c 128,-1,3
 374 1402 374 1402 361.5 1389.5 c 128,-1,4
 349 1377 349 1377 327.5 1377 c 128,-1,5
 306 1377 306 1377 293 1389.5 c 128,-1,6
 280 1402 280 1402 280 1423.5 c 128,-1,7
 280 1445 280 1445 293 1458 c 128,-1,0
 306 1471 306 1471 327.5 1471 c 128,-1,1
350 1053 m 1,8,-1
 245 217 l 1,9,-1
 220 42 l 1,10,11
 203 -85 203 -85 170.5 -170 c 128,-1,12
 138 -255 138 -255 83 -319 c 128,-1,13
 28 -383 28 -383 -67 -448 c 1,14,-1
 -93 -423 l 1,15,-1
 -91 -408 l 1,16,17
 36 -321 36 -321 90 -231.5 c 128,-1,18
 144 -142 144 -142 165 18 c 2,19,-1
 280 855 l 1,20,-1
 292 1002 l 1,21,-1
 98 1002 l 1,22,-1
 89 1011 l 1,23,-1
 98 1049 l 1,24,-1
 301 1049 l 1,25,-1
 345 1056 l 1,26,-1
 350 1053 l 1,8,-1
EndSplineSet
Substitution2: "'case' Case-Sensitive Forms lookup 28 subtable" J
Substitution2: "'ordn' Ordinals lookup 22 subtable" j.sups
Substitution2: "'sups' Superscript lookup 16 subtable" j.sups
AlternateSubs2: "'aalt' Access All Alternates lookup 1 subtable" j.sups J
EndChar

StartChar: k
Encoding: 107 107 78
Width: 994
GlyphClass: 2
Flags: W
AnchorPoint: "Anchor-1" 454 0 basechar 0
AnchorPoint: "Anchor-0" 240 1055 basechar 0
LayerCount: 2
Fore
SplineSet
922 891 m 0,0,1
 922 652 922 652 528 428 c 1,2,3
 691 191 691 191 847 0 c 1,4,-1
 847 -7 l 1,5,-1
 811 -26 l 1,6,-1
 800 -21 l 1,7,8
 684 124 684 124 470 423 c 1,9,-1
 472 443 l 1,10,11
 876 666 876 666 876 885 c 0,12,13
 876 951 876 951 844.5 984.5 c 128,-1,14
 813 1018 813 1018 777 1018 c 0,15,16
 699 1018 699 1018 559.5 832 c 128,-1,17
 420 646 420 646 229 287 c 1,18,-1
 225 247 l 1,19,-1
 203 0 l 1,20,-1
 142 -9 l 1,21,-1
 334 1419 l 1,22,-1
 348 1630 l 1,23,-1
 408 1639 l 1,24,-1
 250 441 l 1,25,-1
 259 441 l 1,26,27
 302 516 302 516 334.5 571.5 c 128,-1,28
 367 627 367 627 405.5 688.5 c 128,-1,29
 444 750 444 750 475.5 795 c 128,-1,30
 507 840 507 840 543 885.5 c 128,-1,31
 579 931 579 931 611.5 963.5 c 128,-1,32
 644 996 644 996 679 1023 c 128,-1,33
 714 1050 714 1050 749 1067 c 1,34,-1
 787 1069 l 1,35,36
 827 1062 827 1062 856.5 1041 c 128,-1,37
 886 1020 886 1020 904 981.5 c 128,-1,38
 922 943 922 943 922 891 c 0,0,1
EndSplineSet
Substitution2: "'case' Case-Sensitive Forms lookup 28 subtable" K
Substitution2: "'ordn' Ordinals lookup 22 subtable" k.sups
Substitution2: "'sups' Superscript lookup 16 subtable" k.sups
AlternateSubs2: "'aalt' Access All Alternates lookup 1 subtable" k.sups K
EndChar

StartChar: l
Encoding: 108 108 79
Width: 477
GlyphClass: 2
Flags: W
AnchorPoint: "Anchor-1" 173 0 basechar 0
AnchorPoint: "Anchor-0" 378 1634 basechar 0
LayerCount: 2
Fore
SplineSet
225 247 m 1,0,-1
 203 0 l 1,1,-1
 142 -9 l 1,2,-1
 334 1419 l 1,3,-1
 348 1630 l 1,4,-1
 408 1639 l 1,5,-1
 225 247 l 1,0,-1
EndSplineSet
Substitution2: "Single Substitution lookup 41 subtable" L.ss01
Substitution2: "'ss01' Style Set 1 lookup 35 subtable" L.ss01
Substitution2: "'case' Case-Sensitive Forms lookup 28 subtable" L
Substitution2: "'ordn' Ordinals lookup 22 subtable" l.sups
Substitution2: "'sups' Superscript lookup 16 subtable" l.sups
AlternateSubs2: "'aalt' Access All Alternates lookup 1 subtable" l.sups L L.ss01
EndChar

StartChar: m
Encoding: 109 109 80
Width: 1617
GlyphClass: 2
Flags: W
AnchorPoint: "Anchor-1" 650 0 basechar 0
AnchorPoint: "Anchor-0" 298 1055 basechar 0
LayerCount: 2
Fore
SplineSet
1333 1078 m 1,0,-1
 1359 1078 l 1,1,2
 1414 1063 1414 1063 1447.5 1008 c 128,-1,3
 1481 953 1481 953 1477 880 c 2,4,-1
 1475 849 l 1,5,-1
 1375 236 l 1,6,-1
 1347 0 l 1,7,-1
 1288 -9 l 1,8,-1
 1426 842 l 1,9,-1
 1428 878 l 2,10,11
 1430 916 1430 916 1418.5 949 c 128,-1,12
 1407 982 1407 982 1388.5 1000 c 128,-1,13
 1370 1018 1370 1018 1350 1018 c 0,14,15
 1288 1018 1288 1018 1136 816.5 c 128,-1,16
 984 615 984 615 798 271 c 1,17,-1
 793 236 l 1,18,-1
 766 0 l 1,19,-1
 708 -9 l 1,20,-1
 847 842 l 1,21,-1
 849 878 l 1,22,23
 849 907 849 907 842 933.5 c 128,-1,24
 835 960 835 960 823.5 978 c 128,-1,25
 812 996 812 996 797.5 1007 c 128,-1,26
 783 1018 783 1018 768 1018 c 0,27,28
 708 1018 708 1018 559.5 820 c 128,-1,29
 411 622 411 622 227 280 c 1,30,-1
 222 247 l 1,31,-1
 201 0 l 1,32,-1
 142 -9 l 1,33,-1
 254 845 l 1,34,-1
 271 1056 l 1,35,-1
 329 1065 l 1,36,-1
 245 430 l 1,37,-1
 256 430 l 1,38,39
 408 691 408 691 523.5 847 c 128,-1,40
 639 1003 639 1003 751 1078 c 1,41,-1
 777 1078 l 1,42,43
 813 1068 813 1068 841.5 1040 c 128,-1,44
 870 1012 870 1012 885.5 970 c 128,-1,45
 901 928 901 928 898 880 c 2,46,-1
 896 849 l 1,47,-1
 826 430 l 1,48,-1
 838 430 l 1,49,50
 989 691 989 691 1104.5 847 c 128,-1,51
 1220 1003 1220 1003 1333 1078 c 1,0,-1
EndSplineSet
Substitution2: "Single Substitution lookup 41 subtable" M.ss01
Substitution2: "'ss01' Style Set 1 lookup 35 subtable" M.ss01
Substitution2: "'case' Case-Sensitive Forms lookup 28 subtable" M
Substitution2: "'ordn' Ordinals lookup 22 subtable" m.sups
Substitution2: "'sups' Superscript lookup 16 subtable" m.sups
AlternateSubs2: "'aalt' Access All Alternates lookup 1 subtable" m.sups M M.ss01
EndChar

StartChar: n
Encoding: 110 110 81
Width: 1038
GlyphClass: 2
Flags: W
AnchorPoint: "Anchor-1" 465 0 basechar 0
AnchorPoint: "Anchor-0" 595 1055 basechar 0
LayerCount: 2
Fore
SplineSet
755 1078 m 1,0,-1
 780 1078 l 1,1,2
 834 1063 834 1063 868 1008 c 128,-1,3
 902 953 902 953 898 880 c 2,4,-1
 896 849 l 1,5,-1
 796 236 l 1,6,-1
 768 0 l 1,7,-1
 710 -9 l 1,8,-1
 847 842 l 1,9,-1
 849 878 l 1,10,11
 850 916 850 916 839 949 c 128,-1,12
 828 982 828 982 809.5 1000 c 128,-1,13
 791 1018 791 1018 771 1018 c 0,14,15
 710 1018 710 1018 560 819.5 c 128,-1,16
 410 621 410 621 227 280 c 1,17,-1
 222 247 l 1,18,-1
 201 0 l 1,19,-1
 142 -9 l 1,20,-1
 254 845 l 1,21,-1
 271 1056 l 1,22,-1
 329 1065 l 1,23,-1
 245 430 l 1,24,-1
 256 430 l 1,25,26
 407 690 407 690 523.5 846.5 c 128,-1,27
 640 1003 640 1003 755 1078 c 1,0,-1
EndSplineSet
Substitution2: "'case' Case-Sensitive Forms lookup 28 subtable" N
Substitution2: "'ordn' Ordinals lookup 22 subtable" n.sups
Substitution2: "'sups' Superscript lookup 16 subtable" n.sups
AlternateSubs2: "'aalt' Access All Alternates lookup 1 subtable" n.sups N
EndChar

StartChar: o
Encoding: 111 111 82
Width: 924
GlyphClass: 2
Flags: W
AnchorPoint: "Anchor-1" 0 0 basechar 0
AnchorPoint: "Anchor-0" 539 1055 basechar 0
LayerCount: 2
Fore
SplineSet
579 1069 m 1,0,-1
 591 1069 l 1,1,2
 707 1061 707 1061 760 983 c 128,-1,3
 813 905 813 905 813 747 c 0,4,5
 813 534 813 534 757.5 365.5 c 128,-1,6
 702 197 702 197 596 96 c 128,-1,7
 490 -5 490 -5 348 -14 c 1,8,-1
 336 -14 l 1,9,10
 221 -7 221 -7 166.5 71.5 c 128,-1,11
 112 150 112 150 112 312 c 0,12,13
 112 525 112 525 167.5 695 c 128,-1,14
 223 865 223 865 330 965.5 c 128,-1,15
 437 1066 437 1066 579 1069 c 1,0,-1
579 1020 m 0,16,17
 487 1020 487 1020 408.5 966.5 c 128,-1,18
 330 913 330 913 275 820 c 128,-1,19
 220 727 220 727 189 597.5 c 128,-1,20
 158 468 158 468 158 320 c 0,21,22
 158 174 158 174 203.5 104.5 c 128,-1,23
 249 35 249 35 345 35 c 0,24,25
 467 35 467 35 563 127.5 c 128,-1,26
 659 220 659 220 711.5 380.5 c 128,-1,27
 764 541 764 541 764 740 c 0,28,29
 764 884 764 884 719.5 952 c 128,-1,30
 675 1020 675 1020 579 1020 c 0,16,17
EndSplineSet
Substitution2: "'case' Case-Sensitive Forms lookup 28 subtable" O
Substitution2: "'ordn' Ordinals lookup 22 subtable" o.sups
Substitution2: "'sups' Superscript lookup 16 subtable" o.sups
AlternateSubs2: "'aalt' Access All Alternates lookup 1 subtable" o.sups O
EndChar

StartChar: p
Encoding: 112 112 83
Width: 984
GlyphClass: 2
Flags: W
AnchorPoint: "Anchor-1" 759 0 basechar 0
AnchorPoint: "Anchor-0" 550 1102 basechar 0
LayerCount: 2
Fore
SplineSet
733 1060 m 1,0,-1
 759 1060 l 1,1,2
 824 1009 824 1009 852 938.5 c 128,-1,3
 880 868 880 868 880 740 c 0,4,5
 880 621 880 621 857.5 512 c 128,-1,6
 835 403 835 403 790 310.5 c 128,-1,7
 745 218 745 218 681 149 c 128,-1,8
 617 80 617 80 530 38.5 c 128,-1,9
 443 -3 443 -3 341 -9 c 1,10,-1
 332 -9 l 1,11,-1
 196 23 l 1,12,-1
 171 -185 l 1,13,-1
 149 -432 l 1,14,-1
 91 -441 l 1,15,-1
 256 845 l 1,16,-1
 271 1056 l 1,17,-1
 329 1065 l 1,18,-1
 247 418 l 1,19,-1
 256 418 l 1,20,21
 362 615 362 615 485.5 782 c 128,-1,22
 609 949 609 949 733 1060 c 1,0,-1
203 72 m 1,23,-1
 339 38 l 1,24,25
 414 38 414 38 482.5 64 c 128,-1,26
 551 90 551 90 605 137 c 128,-1,27
 659 184 659 184 702.5 249 c 128,-1,28
 746 314 746 314 774.5 390.5 c 128,-1,29
 803 467 803 467 818 553 c 128,-1,30
 833 639 833 639 833 728 c 0,31,32
 833 777 833 777 828.5 818.5 c 128,-1,33
 824 860 824 860 816 888 c 128,-1,34
 808 916 808 916 798.5 937.5 c 128,-1,35
 789 959 789 959 778.5 970.5 c 128,-1,36
 768 982 768 982 759 988 c 128,-1,37
 750 994 750 994 742 994 c 0,38,39
 732 994 732 994 699.5 964.5 c 128,-1,40
 667 935 667 935 614.5 872.5 c 128,-1,41
 562 810 562 810 501.5 728 c 128,-1,42
 441 646 441 646 368 527.5 c 128,-1,43
 295 409 295 409 229 280 c 1,44,-1
 203 72 l 1,23,-1
EndSplineSet
Substitution2: "'case' Case-Sensitive Forms lookup 28 subtable" P
Substitution2: "'ordn' Ordinals lookup 22 subtable" p.sups
Substitution2: "'sups' Superscript lookup 16 subtable" p.sups
AlternateSubs2: "'aalt' Access All Alternates lookup 1 subtable" p.sups P
EndChar

StartChar: q
Encoding: 113 113 84
Width: 982
GlyphClass: 2
Flags: W
LayerCount: 2
Fore
SplineSet
836 1065 m 1,0,-1
 677 -185 l 1,1,-1
 656 -432 l 1,2,-1
 597 -441 l 1,3,-1
 735 633 l 1,4,-1
 726 633 l 1,5,6
 621 436 621 436 497 269 c 128,-1,7
 373 102 373 102 250 -9 c 1,8,-1
 225 -9 l 1,9,10
 162 36 162 36 133.5 108.5 c 128,-1,11
 105 181 105 181 105 310 c 0,12,13
 105 429 105 429 127.5 538 c 128,-1,14
 150 647 150 647 195.5 739.5 c 128,-1,15
 241 832 241 832 304.5 901.5 c 128,-1,16
 368 971 368 971 454.5 1012.5 c 128,-1,17
 541 1054 541 1054 642 1060 c 1,18,-1
 651 1060 l 1,19,-1
 793 1053 l 1,20,-1
 824 1072 l 1,21,-1
 836 1065 l 1,0,-1
243 56 m 0,22,23
 248 56 248 56 261 65.5 c 128,-1,24
 274 75 274 75 293.5 94.5 c 128,-1,25
 313 114 313 114 337.5 141 c 128,-1,26
 362 168 362 168 392.5 206 c 128,-1,27
 423 244 423 244 456 287.5 c 128,-1,28
 489 331 489 331 526 386 c 128,-1,29
 563 441 563 441 600 500 c 128,-1,30
 637 559 637 559 677 629.5 c 128,-1,31
 717 700 717 700 755 773 c 1,32,-1
 764 845 l 1,33,-1
 777 1009 l 1,34,-1
 644 1013 l 1,35,36
 555 1013 555 1013 476 976 c 128,-1,37
 397 939 397 939 339 873 c 128,-1,38
 281 807 281 807 239 720 c 128,-1,39
 197 633 197 633 175.5 531.5 c 128,-1,40
 154 430 154 430 154 323 c 0,41,42
 154 274 154 274 158.5 232.5 c 128,-1,43
 163 191 163 191 171 163 c 128,-1,44
 179 135 179 135 188.5 113.5 c 128,-1,45
 198 92 198 92 208 80 c 128,-1,46
 218 68 218 68 227 62 c 128,-1,47
 236 56 236 56 243 56 c 0,22,23
EndSplineSet
Substitution2: "'case' Case-Sensitive Forms lookup 28 subtable" Q
Substitution2: "'ordn' Ordinals lookup 22 subtable" q.sups
Substitution2: "'sups' Superscript lookup 16 subtable" q.sups
AlternateSubs2: "'aalt' Access All Alternates lookup 1 subtable" q.sups Q
EndChar

StartChar: r
Encoding: 114 114 85
Width: 715
GlyphClass: 2
Flags: W
AnchorPoint: "Anchor-1" 173 0 basechar 0
AnchorPoint: "Anchor-0" 503 1055 basechar 0
LayerCount: 2
Fore
SplineSet
762 1051 m 1,0,-1
 755 1004 l 1,1,-1
 747 1000 l 1,2,-1
 722 1004 l 1,3,4
 629 989 629 989 498.5 793 c 128,-1,5
 368 597 368 597 222 243 c 1,6,-1
 198 0 l 1,7,-1
 142 -9 l 1,8,-1
 252 845 l 1,9,-1
 271 1056 l 1,10,-1
 325 1065 l 1,11,-1
 243 423 l 1,12,-1
 254 423 l 1,13,14
 382 712 382 712 504.5 876 c 128,-1,15
 627 1040 627 1040 724 1056 c 1,16,-1
 762 1051 l 1,0,-1
EndSplineSet
Substitution2: "'case' Case-Sensitive Forms lookup 28 subtable" R
Substitution2: "'ordn' Ordinals lookup 22 subtable" r.sups
Substitution2: "'sups' Superscript lookup 16 subtable" r.sups
AlternateSubs2: "'aalt' Access All Alternates lookup 1 subtable" r.sups R
EndChar

StartChar: s
Encoding: 115 115 86
Width: 713
GlyphClass: 2
Flags: W
AnchorPoint: "Anchor-1" 300 0 basechar 0
AnchorPoint: "Anchor-0" 438 1055 basechar 0
LayerCount: 2
Fore
SplineSet
483 1062 m 1,0,1
 579 1053 579 1053 651 1016 c 1,2,-1
 635 971 l 1,3,-1
 621 969 l 1,4,5
 542 1016 542 1016 459 1016 c 0,6,7
 404 1016 404 1016 355 996 c 128,-1,8
 306 976 306 976 273 943.5 c 128,-1,9
 240 911 240 911 220.5 870.5 c 128,-1,10
 201 830 201 830 201 789 c 0,11,12
 201 752 201 752 217 718 c 128,-1,13
 233 684 233 684 259 657.5 c 128,-1,14
 285 631 285 631 318.5 603 c 128,-1,15
 352 575 352 575 386.5 551 c 128,-1,16
 421 527 421 527 454.5 497 c 128,-1,17
 488 467 488 467 514 437 c 128,-1,18
 540 407 540 407 556 366 c 128,-1,19
 572 325 572 325 572 280 c 0,20,21
 572 159 572 159 475 73.5 c 128,-1,22
 378 -12 378 -12 225 -14 c 1,23,24
 109 1 109 1 23 65 c 1,25,-1
 31 107 l 1,26,-1
 47 116 l 1,27,28
 140 35 140 35 252 35 c 0,29,30
 368 35 368 35 445.5 105.5 c 128,-1,31
 523 176 523 176 523 274 c 0,32,33
 523 315 523 315 507.5 352.5 c 128,-1,34
 492 390 492 390 466 417.5 c 128,-1,35
 440 445 440 445 406.5 473 c 128,-1,36
 373 501 373 501 338.5 524.5 c 128,-1,37
 304 548 304 548 271 576.5 c 128,-1,38
 238 605 238 605 212 634 c 128,-1,39
 186 663 186 663 170 702 c 128,-1,40
 154 741 154 741 154 784 c 0,41,42
 154 904 154 904 248 984 c 128,-1,43
 342 1064 342 1064 483 1062 c 1,0,1
EndSplineSet
Substitution2: "'case' Case-Sensitive Forms lookup 28 subtable" S
Substitution2: "'ordn' Ordinals lookup 22 subtable" s.sups
Substitution2: "'sups' Superscript lookup 16 subtable" s.sups
AlternateSubs2: "'aalt' Access All Alternates lookup 1 subtable" s.sups S
EndChar

StartChar: t
Encoding: 116 116 87
Width: 737
GlyphClass: 2
Flags: W
AnchorPoint: "Anchor-1" 371 0 basechar 0
AnchorPoint: "Anchor-0" 0 0 basechar 0
LayerCount: 2
Fore
SplineSet
247 203 m 1,0,-1
 243 156 l 1,1,2
 243 101 243 101 269 69.5 c 128,-1,3
 295 38 295 38 336 38 c 0,4,5
 383 38 383 38 447.5 100 c 128,-1,6
 512 162 512 162 577 280 c 1,7,-1
 593 280 l 1,8,-1
 614 250 l 1,9,10
 584 200 584 200 556.5 161.5 c 128,-1,11
 529 123 529 123 502.5 92.5 c 128,-1,12
 476 62 476 62 449.5 39.5 c 128,-1,13
 423 17 423 17 395.5 1.5 c 128,-1,14
 368 -14 368 -14 339 -23 c 1,15,-1
 315 -23 l 1,16,17
 260 -9 260 -9 228 36.5 c 128,-1,18
 196 82 196 82 196 149 c 1,19,-1
 201 201 l 1,20,-1
 310 845 l 1,21,-1
 334 1002 l 1,22,-1
 168 1002 l 1,23,-1
 158 1011 l 1,24,-1
 165 1049 l 1,25,-1
 341 1049 l 1,26,-1
 385 1354 l 1,27,-1
 437 1377 l 1,28,-1
 443 1370 l 1,29,-1
 390 1049 l 1,30,-1
 726 1049 l 1,31,-1
 733 1039 l 1,32,-1
 726 1002 l 1,33,-1
 381 1002 l 1,34,-1
 247 203 l 1,0,-1
EndSplineSet
Substitution2: "'case' Case-Sensitive Forms lookup 28 subtable" T
Substitution2: "'ordn' Ordinals lookup 22 subtable" t.sups
Substitution2: "'sups' Superscript lookup 16 subtable" t.sups
AlternateSubs2: "'aalt' Access All Alternates lookup 1 subtable" t.sups T
EndChar

StartChar: u
Encoding: 117 117 88
Width: 1059
GlyphClass: 2
Flags: W
AnchorPoint: "Anchor-1" 0 0 basechar 0
AnchorPoint: "Anchor-0" 595 1055 basechar 0
LayerCount: 2
Fore
SplineSet
915 1065 m 1,0,-1
 808 247 l 1,1,-1
 787 0 l 1,2,-1
 728 -9 l 1,3,-1
 813 624 l 1,4,-1
 800 624 l 1,5,6
 648 361 648 361 532.5 205 c 128,-1,7
 417 49 417 49 303 -26 c 1,8,-1
 278 -26 l 1,9,10
 223 -11 223 -11 189 45 c 128,-1,11
 155 101 155 101 158 173 c 1,12,-1
 161 203 l 1,13,-1
 261 817 l 1,14,-1
 290 1053 l 1,15,-1
 348 1062 l 1,16,-1
 210 210 l 1,17,-1
 207 176 l 1,18,19
 206 118 206 118 231 76.5 c 128,-1,20
 256 35 256 35 287 35 c 0,21,22
 349 35 349 35 498.5 233 c 128,-1,23
 648 431 648 431 831 771 c 1,24,-1
 840 845 l 1,25,-1
 857 1056 l 1,26,-1
 915 1065 l 1,0,-1
EndSplineSet
Substitution2: "'case' Case-Sensitive Forms lookup 28 subtable" U
Substitution2: "'ordn' Ordinals lookup 22 subtable" u.sups
Substitution2: "'sups' Superscript lookup 16 subtable" u.sups
AlternateSubs2: "'aalt' Access All Alternates lookup 1 subtable" u.sups U
EndChar

StartChar: v
Encoding: 118 118 89
Width: 891
GlyphClass: 2
Flags: W
LayerCount: 2
Fore
SplineSet
742 1049 m 1,0,-1
 784 1062 l 1,1,2
 853 966 853 966 853 871 c 0,3,4
 853 755 853 755 757 602 c 1,5,-1
 374 0 l 1,6,-1
 325 0 l 1,7,-1
 210 1051 l 1,8,-1
 263 1065 l 1,9,-1
 278 891 l 1,10,-1
 361 70 l 1,11,-1
 369 70 l 1,12,-1
 717 626 l 1,13,14
 806 772 806 772 806 873 c 0,15,16
 806 947 806 947 740 1036 c 1,17,-1
 742 1049 l 1,0,-1
EndSplineSet
Substitution2: "Single Substitution lookup 41 subtable" V.ss01
Substitution2: "'ss01' Style Set 1 lookup 35 subtable" V.ss01
Substitution2: "'case' Case-Sensitive Forms lookup 28 subtable" V
Substitution2: "'ordn' Ordinals lookup 22 subtable" v.sups
Substitution2: "'sups' Superscript lookup 16 subtable" v.sups
AlternateSubs2: "'aalt' Access All Alternates lookup 1 subtable" v.sups V V.ss01
EndChar

StartChar: w
Encoding: 119 119 90
Width: 1535
GlyphClass: 2
Flags: W
AnchorPoint: "Anchor-1" 0 0 basechar 0
AnchorPoint: "Anchor-0" 833 1055 basechar 0
LayerCount: 2
Fore
SplineSet
1047 0 m 1,0,-1
 1000 0 l 1,1,-1
 882 976 l 1,2,-1
 873 976 l 1,3,-1
 399 0 l 1,4,-1
 339 0 l 1,5,-1
 210 1051 l 1,6,-1
 261 1062 l 1,7,-1
 271 955 l 1,8,-1
 378 70 l 1,9,-1
 388 70 l 1,10,-1
 813 955 l 1,11,-1
 862 1056 l 1,12,-1
 918 1056 l 1,13,-1
 927 955 l 1,14,-1
 1034 70 l 1,15,-1
 1043 70 l 1,16,-1
 1363 626 l 2,17,18
 1452 781 1452 781 1452 873 c 0,19,20
 1452 949 1452 949 1387 1036 c 1,21,-1
 1390 1049 l 1,22,-1
 1431 1062 l 1,23,24
 1499 966 1499 966 1499 871 c 0,25,26
 1499 765 1499 765 1403 602 c 2,27,-1
 1047 0 l 1,0,-1
EndSplineSet
Substitution2: "'case' Case-Sensitive Forms lookup 28 subtable" W
Substitution2: "'ordn' Ordinals lookup 22 subtable" w.sups
Substitution2: "'sups' Superscript lookup 16 subtable" w.sups
AlternateSubs2: "'aalt' Access All Alternates lookup 1 subtable" w.sups W
EndChar

StartChar: x
Encoding: 120 120 91
Width: 965
GlyphClass: 2
Flags: W
LayerCount: 2
Fore
SplineSet
811 9 m 1,0,-1
 762 -9 l 1,1,-1
 717 84 l 1,2,-1
 490 497 l 1,3,-1
 147 75 l 1,4,-1
 93 0 l 1,5,-1
 28 0 l 1,6,-1
 465 544 l 1,7,-1
 198 1047 l 1,8,-1
 247 1065 l 1,9,-1
 283 987 l 1,10,-1
 495 581 l 1,11,-1
 817 976 l 1,12,-1
 873 1056 l 1,13,-1
 938 1056 l 1,14,-1
 523 535 l 1,15,-1
 811 9 l 1,0,-1
EndSplineSet
Substitution2: "Single Substitution lookup 41 subtable" X.ss01
Substitution2: "'ss01' Style Set 1 lookup 35 subtable" X.ss01
Substitution2: "'case' Case-Sensitive Forms lookup 28 subtable" X
Substitution2: "'ordn' Ordinals lookup 22 subtable" x.sups
Substitution2: "'sups' Superscript lookup 16 subtable" x.sups
AlternateSubs2: "'aalt' Access All Alternates lookup 1 subtable" x.sups X X.ss01
EndChar

StartChar: y
Encoding: 121 121 92
Width: 882
GlyphClass: 2
Flags: W
AnchorPoint: "Anchor-1" 0 0 basechar 0
AnchorPoint: "Anchor-0" 506 1055 basechar 0
LayerCount: 2
Fore
SplineSet
735 1049 m 1,0,-1
 777 1062 l 1,1,2
 845 968 845 968 845 871 c 0,3,4
 845 755 845 755 755 602 c 2,5,-1
 421 35 l 2,6,7
 269 -223 269 -223 135.5 -338 c 128,-1,8
 2 -453 2 -453 -131 -453 c 0,9,10
 -209 -453 -209 -453 -290 -418 c 1,11,-1
 -292 -372 l 1,12,-1
 -280 -367 l 1,13,14
 -198 -406 -198 -406 -127 -406 c 0,15,16
 -17 -406 -17 -406 102.5 -300.5 c 128,-1,17
 222 -195 222 -195 359 28 c 1,18,-1
 173 1051 l 1,19,-1
 227 1065 l 1,20,-1
 254 891 l 1,21,-1
 392 98 l 1,22,-1
 401 98 l 1,23,-1
 715 626 l 2,24,25
 798 766 798 766 798 873 c 0,26,27
 798 949 798 949 733 1036 c 1,28,-1
 735 1049 l 1,0,-1
EndSplineSet
Substitution2: "'case' Case-Sensitive Forms lookup 28 subtable" Y
Substitution2: "'ordn' Ordinals lookup 22 subtable" y.sups
Substitution2: "'sups' Superscript lookup 16 subtable" y.sups
AlternateSubs2: "'aalt' Access All Alternates lookup 1 subtable" y.sups Y
EndChar

StartChar: z
Encoding: 122 122 93
Width: 916
GlyphClass: 2
Flags: W
AnchorPoint: "Anchor-1" 0 0 basechar 0
AnchorPoint: "Anchor-0" 525 1055 basechar 0
LayerCount: 2
Fore
SplineSet
836 1062 m 1,0,-1
 105 91 l 1,1,-1
 168 103 l 1,2,3
 212 103 212 103 272 83 c 128,-1,4
 332 63 332 63 391.5 43 c 128,-1,5
 451 23 451 23 495 23 c 0,6,7
 576 23 576 23 632 64 c 128,-1,8
 688 105 688 105 719 187 c 128,-1,9
 750 269 750 269 757 394 c 1,10,-1
 777 397 l 1,11,-1
 800 372 l 1,12,13
 790 176 790 176 712 76.5 c 128,-1,14
 634 -23 634 -23 490 -23 c 0,15,16
 437 -23 437 -23 323.5 15.5 c 128,-1,17
 210 54 210 54 156 54 c 0,18,19
 73 54 73 54 14 -11 c 1,20,-1
 7 -11 l 1,21,-1
 -14 7 l 1,22,-1
 740 1009 l 1,23,-1
 274 1009 l 1,24,-1
 176 1007 l 1,25,-1
 171 1016 l 1,26,-1
 180 1056 l 1,27,-1
 185 1060 l 1,28,-1
 292 1056 l 1,29,-1
 771 1056 l 1,30,-1
 811 1083 l 1,31,-1
 836 1062 l 1,0,-1
EndSplineSet
Substitution2: "'case' Case-Sensitive Forms lookup 28 subtable" Z
Substitution2: "'ordn' Ordinals lookup 22 subtable" z.sups
Substitution2: "'sups' Superscript lookup 16 subtable" z.sups
AlternateSubs2: "'aalt' Access All Alternates lookup 1 subtable" z.sups Z
EndChar

StartChar: braceleft
Encoding: 123 123 94
Width: 657
GlyphClass: 2
Flags: W
LayerCount: 2
Fore
SplineSet
635 1524 m 0,0,1
 681 1524 681 1524 719 1513 c 1,2,-1
 726 1506 l 1,3,-1
 712 1466 l 1,4,5
 650 1477 650 1477 621 1477 c 0,6,7
 553 1477 553 1477 511 1447 c 128,-1,8
 469 1417 469 1417 447 1345 c 128,-1,9
 425 1273 425 1273 425 1151 c 1,10,-1
 428 929 l 1,11,12
 428 832 428 832 406 765 c 128,-1,13
 384 698 384 698 343 657.5 c 128,-1,14
 302 617 302 617 238 593 c 1,15,-1
 238 588 l 1,16,17
 364 536 364 536 364 385 c 0,18,19
 364 330 364 330 337.5 230 c 128,-1,20
 311 130 311 130 285 27 c 128,-1,21
 259 -76 259 -76 259 -138 c 0,22,23
 259 -219 259 -219 295 -257.5 c 128,-1,24
 331 -296 331 -296 404 -296 c 0,25,26
 431 -296 431 -296 497 -285 c 1,27,-1
 502 -325 l 1,28,-1
 492 -332 l 1,29,30
 449 -343 449 -343 404 -343 c 0,31,32
 309 -343 309 -343 260.5 -291.5 c 128,-1,33
 212 -240 212 -240 212 -140 c 0,34,35
 212 -75 212 -75 238.5 29 c 128,-1,36
 265 133 265 133 291.5 231.5 c 128,-1,37
 318 330 318 330 318 381 c 0,38,39
 318 465 318 465 271 511.5 c 128,-1,40
 224 558 224 558 124 570 c 1,41,-1
 129 612 l 1,42,43
 196 620 196 620 242.5 640.5 c 128,-1,44
 289 661 289 661 320.5 699.5 c 128,-1,45
 352 738 352 738 366.5 795 c 128,-1,46
 381 852 381 852 381 934 c 1,47,-1
 378 1154 l 1,48,49
 378 1349 378 1349 442 1436.5 c 128,-1,50
 506 1524 506 1524 635 1524 c 0,0,1
EndSplineSet
EndChar

StartChar: bar
Encoding: 124 124 95
Width: 748
GlyphClass: 2
Flags: W
LayerCount: 2
Fore
SplineSet
561 1842 m 1,0,-1
 416 666 l 1,1,-1
 256 -619 l 1,2,-1
 217 -619 l 1,3,-1
 212 -610 l 1,4,-1
 369 666 l 1,5,-1
 514 1842 l 1,6,-1
 555 1847 l 1,7,-1
 561 1842 l 1,0,-1
EndSplineSet
EndChar

StartChar: braceright
Encoding: 125 125 96
Width: 655
GlyphClass: 2
Flags: W
LayerCount: 2
Fore
SplineSet
38 -343 m 0,0,1
 -9 -343 -9 -343 -47 -332 c 1,2,-1
 -54 -325 l 1,3,-1
 -40 -285 l 1,4,5
 23 -296 23 -296 51 -296 c 0,6,7
 120 -296 120 -296 162 -265.5 c 128,-1,8
 204 -235 204 -235 225.5 -163 c 128,-1,9
 247 -91 247 -91 247 31 c 1,10,-1
 245 252 l 1,11,12
 245 395 245 395 291.5 473.5 c 128,-1,13
 338 552 338 552 434 588 c 1,14,-1
 434 593 l 1,15,16
 308 646 308 646 308 796 c 0,17,18
 308 851 308 851 334 951 c 128,-1,19
 360 1051 360 1051 386.5 1154 c 128,-1,20
 413 1257 413 1257 413 1319 c 0,21,22
 413 1400 413 1400 377.5 1438.5 c 128,-1,23
 342 1477 342 1477 269 1477 c 0,24,25
 242 1477 242 1477 176 1466 c 1,26,-1
 171 1506 l 1,27,-1
 180 1513 l 1,28,29
 224 1524 224 1524 269 1524 c 0,30,31
 459 1524 459 1524 459 1321 c 0,32,33
 459 1256 459 1256 433 1152 c 128,-1,34
 407 1048 407 1048 381 949.5 c 128,-1,35
 355 851 355 851 355 800 c 0,36,37
 355 744 355 744 375.5 705 c 128,-1,38
 396 666 396 666 439 643 c 128,-1,39
 482 620 482 620 548 612 c 1,40,-1
 544 570 l 1,41,42
 410 554 410 554 351 480.5 c 128,-1,43
 292 407 292 407 292 247 c 1,44,-1
 294 28 l 1,45,46
 294 -166 294 -166 230 -254.5 c 128,-1,47
 166 -343 166 -343 38 -343 c 0,0,1
EndSplineSet
EndChar

StartChar: asciitilde
Encoding: 126 126 97
Width: 1122
GlyphClass: 2
Flags: W
LayerCount: 2
Fore
SplineSet
343 651 m 0,0,1
 334 651 334 651 324 646.5 c 128,-1,2
 314 642 314 642 299.5 631 c 128,-1,3
 285 620 285 620 273 610 c 128,-1,4
 261 600 261 600 237.5 579.5 c 128,-1,5
 214 559 214 559 196 544 c 1,6,-1
 182 544 l 1,7,-1
 165 565 l 1,8,-1
 165 577 l 1,9,-1
 315 700 l 1,10,-1
 329 708 l 1,11,12
 378 702 378 702 559 652 c 128,-1,13
 740 602 740 602 777 602 c 0,14,15
 786 602 786 602 796 606 c 128,-1,16
 806 610 806 610 821.5 621.5 c 128,-1,17
 837 633 837 633 847 642 c 128,-1,18
 857 651 857 651 883 674 c 128,-1,19
 909 697 909 697 925 710 c 1,20,-1
 938 710 l 1,21,-1
 955 686 l 1,22,-1
 955 677 l 1,23,-1
 804 551 l 1,24,-1
 789 546 l 1,25,26
 736 551 736 551 557.5 601 c 128,-1,27
 379 651 379 651 343 651 c 0,0,1
EndSplineSet
EndChar

StartChar: exclamdown
Encoding: 161 161 99
Width: 580
GlyphClass: 2
Flags: W
LayerCount: 2
Fore
SplineSet
336.5 978 m 128,-1,1
 315 978 315 978 302.5 990.5 c 128,-1,2
 290 1003 290 1003 290 1025 c 0,3,4
 290 1039 290 1039 295.5 1049.5 c 128,-1,5
 301 1060 301 1060 311.5 1066 c 128,-1,6
 322 1072 322 1072 336 1072 c 0,7,8
 358 1072 358 1072 370.5 1059 c 128,-1,9
 383 1046 383 1046 383 1024.5 c 128,-1,10
 383 1003 383 1003 370.5 990.5 c 128,-1,0
 358 978 358 978 336.5 978 c 128,-1,1
119 -453 m 1,11,-1
 266 604 l 1,12,-1
 303 604 l 1,13,-1
 312 593 l 1,14,-1
 165 -453 l 1,15,-1
 156 -459 l 1,16,-1
 124 -459 l 1,17,-1
 119 -453 l 1,11,-1
EndSplineSet
EndChar

StartChar: cent
Encoding: 162 162 100
Width: 884
GlyphClass: 2
Flags: W
LayerCount: 2
Fore
SplineSet
806 1112 m 1,0,-1
 791 1078 l 1,1,-1
 780 1072 l 1,2,3
 688 1125 688 1125 621 1125 c 1,4,-1
 579 1123 l 1,5,-1
 408 145 l 1,6,7
 560 174 560 174 673 378 c 1,8,-1
 686 378 l 1,9,-1
 705 352 l 1,10,11
 637 236 637 236 564 178.5 c 128,-1,12
 491 121 491 121 401 103 c 1,13,-1
 336 -266 l 1,14,-1
 301 -266 l 1,15,-1
 292 -256 l 1,16,-1
 355 96 l 1,17,-1
 343 96 l 1,18,19
 304 102 304 102 276 111.5 c 128,-1,20
 248 121 248 121 218 144.5 c 128,-1,21
 188 168 188 168 170 204.5 c 128,-1,22
 152 241 152 241 140.5 302 c 128,-1,23
 129 363 129 363 129 446 c 0,24,25
 129 556 129 556 144 653.5 c 128,-1,26
 159 751 159 751 191 836 c 128,-1,27
 223 921 223 921 271 986.5 c 128,-1,28
 319 1052 319 1052 386.5 1097 c 128,-1,29
 454 1142 454 1142 537 1161 c 1,30,-1
 597 1517 l 1,31,-1
 635 1517 l 1,32,-1
 646 1506 l 1,33,-1
 586 1167 l 1,34,35
 632 1172 632 1172 656 1172 c 1,36,-1
 793 1127 l 1,37,-1
 806 1112 l 1,0,-1
361 140 m 1,38,-1
 528 1114 l 1,39,40
 444 1094 444 1094 378 1038.5 c 128,-1,41
 312 983 312 983 267.5 898 c 128,-1,42
 223 813 223 813 199.5 697.5 c 128,-1,43
 176 582 176 582 176 443 c 0,44,45
 176 337 176 337 197.5 269 c 128,-1,46
 219 201 219 201 259 170.5 c 128,-1,47
 299 140 299 140 359 140 c 2,48,-1
 361 140 l 1,38,-1
EndSplineSet
EndChar

StartChar: sterling
Encoding: 163 163 101
Width: 893
GlyphClass: 2
Flags: W
LayerCount: 2
Fore
SplineSet
640 1379 m 0,0,1
 745 1379 745 1379 866 1335 c 1,2,-1
 855 1292 l 1,3,-1
 847 1286 l 1,4,5
 758 1333 758 1333 640 1333 c 0,6,7
 390 1333 390 1333 355 1043 c 1,8,-1
 320 766 l 1,9,-1
 614 766 l 1,10,-1
 619 757 l 1,11,-1
 606 719 l 1,12,-1
 315 719 l 1,13,-1
 263 303 l 1,14,15
 243 131 243 131 140 51 c 1,16,-1
 140 47 l 1,17,-1
 579 47 l 1,18,-1
 740 49 l 1,19,-1
 747 38 l 1,20,-1
 735 0 l 1,21,-1
 18 0 l 1,22,-1
 11 9 l 1,23,-1
 23 42 l 1,24,25
 102 52 102 52 152.5 120 c 128,-1,26
 203 188 203 188 217 303 c 2,27,-1
 269 719 l 1,28,-1
 112 719 l 1,29,-1
 105 728 l 1,30,-1
 116 766 l 1,31,-1
 274 766 l 1,32,-1
 308 1043 l 2,33,34
 329 1207 329 1207 413 1293 c 128,-1,35
 497 1379 497 1379 640 1379 c 0,0,1
EndSplineSet
EndChar

StartChar: currency
Encoding: 164 164 102
Width: 1016
GlyphClass: 2
Flags: W
LayerCount: 2
Fore
SplineSet
974 1214 m 1,0,-1
 971 1203 l 1,1,-1
 804 1053 l 1,2,3
 855 984 855 984 855 887 c 0,4,5
 855 757 855 757 755 663 c 1,6,-1
 889 508 l 1,7,-1
 887 497 l 1,8,-1
 860 474 l 1,9,-1
 847 477 l 1,10,-1
 715 628 l 1,11,12
 625 553 625 553 514 553 c 0,13,14
 487 553 487 553 461 558 c 128,-1,15
 435 563 435 563 411 573 c 128,-1,16
 387 583 387 583 366 597 c 128,-1,17
 345 611 345 611 327 628 c 1,18,-1
 154 474 l 1,19,-1
 142 477 l 1,20,-1
 124 499 l 1,21,-1
 127 512 l 1,22,-1
 296 663 l 1,23,24
 245 729 245 729 245 829 c 0,25,26
 245 953 245 953 345 1053 c 1,27,-1
 210 1207 l 1,28,-1
 214 1219 l 1,29,-1
 238 1239 l 1,30,-1
 250 1239 l 1,31,-1
 385 1085 l 1,32,33
 475 1161 475 1161 586 1161 c 0,34,35
 692 1161 692 1161 773 1088 c 1,36,-1
 943 1239 l 1,37,-1
 955 1237 l 1,38,-1
 974 1214 l 1,0,-1
581 1114 m 0,39,40
 508 1114 508 1114 441 1075.5 c 128,-1,41
 374 1037 374 1037 333 971 c 128,-1,42
 292 905 292 905 292 831 c 0,43,44
 292 735 292 735 357 667.5 c 128,-1,45
 422 600 422 600 519 600 c 0,46,47
 592 600 592 600 659 638.5 c 128,-1,48
 726 677 726 677 767 742.5 c 128,-1,49
 808 808 808 808 808 882 c 0,50,51
 808 945 808 945 779 998 c 128,-1,52
 750 1051 750 1051 698 1082.5 c 128,-1,53
 646 1114 646 1114 581 1114 c 0,39,40
EndSplineSet
EndChar

StartChar: yen
Encoding: 165 165 103
Width: 1068
GlyphClass: 2
Flags: W
LayerCount: 2
Fore
SplineSet
1011 653 m 1,0,-1
 1018 646 l 1,1,-1
 1007 606 l 1,2,-1
 649 606 l 1,3,-1
 528 432 l 1,4,-1
 519 350 l 1,5,-1
 974 350 l 1,6,-1
 980 343 l 1,7,-1
 969 303 l 1,8,-1
 512 303 l 1,9,-1
 472 0 l 1,10,-1
 425 0 l 1,11,-1
 465 303 l 1,12,-1
 42 303 l 1,13,-1
 38 310 l 1,14,-1
 47 350 l 1,15,-1
 472 350 l 1,16,-1
 483 441 l 1,17,-1
 416 606 l 1,18,-1
 80 606 l 1,19,-1
 75 614 l 1,20,-1
 84 653 l 1,21,-1
 397 653 l 1,22,-1
 196 1147 l 1,23,-1
 254 1147 l 1,24,-1
 269 1098 l 1,25,-1
 508 506 l 1,26,-1
 519 506 l 1,27,-1
 936 1098 l 1,28,-1
 967 1147 l 1,29,-1
 1025 1147 l 1,30,-1
 682 653 l 1,31,-1
 1011 653 l 1,0,-1
EndSplineSet
EndChar

StartChar: brokenbar
Encoding: 166 166 104
Width: 748
GlyphClass: 2
Flags: W
LayerCount: 2
Fore
SplineSet
561 1842 m 1,0,-1
 439 860 l 1,1,-1
 399 855 l 1,2,-1
 392 862 l 1,3,-1
 514 1842 l 1,4,-1
 555 1847 l 1,5,-1
 561 1842 l 1,0,-1
378 361 m 1,6,-1
 256 -619 l 1,7,-1
 217 -619 l 1,8,-1
 212 -610 l 1,9,-1
 332 367 l 1,10,-1
 372 374 l 1,11,-1
 378 361 l 1,6,-1
EndSplineSet
EndChar

StartChar: section
Encoding: 167 167 105
Width: 949
GlyphClass: 2
Flags: W
LayerCount: 2
Fore
SplineSet
679 1495 m 0,0,1
 781 1495 781 1495 887 1448 c 1,2,-1
 873 1403 l 1,3,-1
 860 1401 l 1,4,5
 765 1448 765 1448 668 1448 c 0,6,7
 603 1448 603 1448 547.5 1426 c 128,-1,8
 492 1404 492 1404 456.5 1369 c 128,-1,9
 421 1334 421 1334 401 1291 c 128,-1,10
 381 1248 381 1248 381 1205 c 0,11,12
 381 1159 381 1159 405.5 1112.5 c 128,-1,13
 430 1066 430 1066 469.5 1025.5 c 128,-1,14
 509 985 509 985 556.5 943.5 c 128,-1,15
 604 902 604 902 651.5 858.5 c 128,-1,16
 699 815 699 815 738 770.5 c 128,-1,17
 777 726 777 726 801.5 671.5 c 128,-1,18
 826 617 826 617 826 561 c 0,19,20
 826 376 826 376 579 250 c 1,21,22
 659 154 659 154 659 58 c 0,23,24
 659 -22 659 -22 611 -91.5 c 128,-1,25
 563 -161 563 -161 478 -203 c 128,-1,26
 393 -245 393 -245 292 -245 c 0,27,28
 222 -245 222 -245 154 -223.5 c 128,-1,29
 86 -202 86 -202 35 -163 c 1,30,-1
 47 -124 l 1,31,-1
 60 -116 l 1,32,33
 160 -198 160 -198 299 -198 c 0,34,35
 368 -198 368 -198 427.5 -176.5 c 128,-1,36
 487 -155 487 -155 526.5 -120 c 128,-1,37
 566 -85 566 -85 588 -40.5 c 128,-1,38
 610 4 610 4 610 51 c 0,39,40
 610 100 610 100 585 148.5 c 128,-1,41
 560 197 560 197 520.5 238.5 c 128,-1,42
 481 280 481 280 433 321.5 c 128,-1,43
 385 363 385 363 337.5 406 c 128,-1,44
 290 449 290 449 250 493 c 128,-1,45
 210 537 210 537 185.5 590 c 128,-1,46
 161 643 161 643 161 698 c 0,47,48
 161 760 161 760 193 819.5 c 128,-1,49
 225 879 225 879 279.5 927.5 c 128,-1,50
 334 976 334 976 408 1016 c 1,51,52
 332 1107 332 1107 332 1203 c 0,53,54
 332 1260 332 1260 359 1314 c 128,-1,55
 386 1368 386 1368 432 1407.5 c 128,-1,56
 478 1447 478 1447 543 1471 c 128,-1,57
 608 1495 608 1495 679 1495 c 0,0,1
780 555 m 0,58,59
 780 604 780 604 758.5 651 c 128,-1,60
 737 698 737 698 697.5 741 c 128,-1,61
 658 784 658 784 618 820 c 128,-1,62
 578 856 578 856 524.5 902.5 c 128,-1,63
 471 949 471 949 439 983 c 1,64,65
 329 927 329 927 268 852.5 c 128,-1,66
 207 778 207 778 207 702 c 0,67,68
 207 657 207 657 229 612 c 128,-1,69
 251 567 251 567 290.5 525 c 128,-1,70
 330 483 330 483 370 447.5 c 128,-1,71
 410 412 410 412 463 365.5 c 128,-1,72
 516 319 516 319 548 285 c 1,73,74
 780 395 780 395 780 555 c 0,58,59
EndSplineSet
EndChar

StartChar: dieresis
Encoding: 168 168 106
Width: 909
GlyphClass: 2
Flags: W
LayerCount: 2
Fore
SplineSet
385 1439 m 0,0,1
 407 1439 407 1439 419.5 1426 c 128,-1,2
 432 1413 432 1413 432 1392 c 128,-1,3
 432 1371 432 1371 419.5 1358 c 128,-1,4
 407 1345 407 1345 385.5 1345 c 128,-1,5
 364 1345 364 1345 351.5 1358 c 128,-1,6
 339 1371 339 1371 339 1392 c 0,7,8
 339 1406 339 1406 344.5 1416.5 c 128,-1,9
 350 1427 350 1427 360.5 1433 c 128,-1,10
 371 1439 371 1439 385 1439 c 0,0,1
735.5 1439 m 128,-1,12
 757 1439 757 1439 769.5 1426 c 128,-1,13
 782 1413 782 1413 782 1392 c 128,-1,14
 782 1371 782 1371 769.5 1358 c 128,-1,15
 757 1345 757 1345 735.5 1345 c 128,-1,16
 714 1345 714 1345 701.5 1358 c 128,-1,17
 689 1371 689 1371 689 1392 c 128,-1,18
 689 1413 689 1413 701.5 1426 c 128,-1,11
 714 1439 714 1439 735.5 1439 c 128,-1,12
EndSplineSet
EndChar

StartChar: copyright
Encoding: 169 169 107
Width: 1606
GlyphClass: 2
Flags: W
LayerCount: 2
Fore
SplineSet
819.5 1396 m 128,-1,1
 971 1396 971 1396 1098 1344.5 c 128,-1,2
 1225 1293 1225 1293 1314 1200.5 c 128,-1,3
 1403 1108 1403 1108 1452 975 c 128,-1,4
 1501 842 1501 842 1501 684 c 128,-1,5
 1501 526 1501 526 1452 393 c 128,-1,6
 1403 260 1403 260 1314 167.5 c 128,-1,7
 1225 75 1225 75 1098 23.5 c 128,-1,8
 971 -28 971 -28 819.5 -28 c 128,-1,9
 668 -28 668 -28 541.5 23.5 c 128,-1,10
 415 75 415 75 326.5 167.5 c 128,-1,11
 238 260 238 260 189 392.5 c 128,-1,12
 140 525 140 525 140 684 c 128,-1,13
 140 843 140 843 189 975.5 c 128,-1,14
 238 1108 238 1108 326.5 1200.5 c 128,-1,15
 415 1293 415 1293 541.5 1344.5 c 128,-1,0
 668 1396 668 1396 819.5 1396 c 128,-1,1
820 1350 m 0,16,17
 631 1350 631 1350 487.5 1267 c 128,-1,18
 344 1184 344 1184 265.5 1033 c 128,-1,19
 187 882 187 882 187 684 c 128,-1,20
 187 486 187 486 265.5 335 c 128,-1,21
 344 184 344 184 487.5 101 c 128,-1,22
 631 18 631 18 820 18 c 0,23,24
 961 18 961 18 1079.5 66.5 c 128,-1,25
 1198 115 1198 115 1280.5 201.5 c 128,-1,26
 1363 288 1363 288 1409 412 c 128,-1,27
 1455 536 1455 536 1455 684 c 128,-1,28
 1455 832 1455 832 1409 956 c 128,-1,29
 1363 1080 1363 1080 1280.5 1166.5 c 128,-1,30
 1198 1253 1198 1253 1079.5 1301.5 c 128,-1,31
 961 1350 961 1350 820 1350 c 0,16,17
840 1085 m 0,32,33
 966 1085 966 1085 1069 1018 c 1,34,-1
 1058 976 l 1,35,-1
 1047 976 l 1,36,37
 963 1039 963 1039 840 1039 c 0,38,39
 693 1039 693 1039 615 949 c 128,-1,40
 537 859 537 859 537 689 c 256,41,42
 537 519 537 519 612.5 429 c 128,-1,43
 688 339 688 339 829 339 c 0,44,45
 888 339 888 339 949.5 358 c 128,-1,46
 1011 377 1011 377 1060 413 c 1,47,-1
 1069 410 l 1,48,-1
 1065 367 l 1,49,50
 943 292 943 292 826 292 c 0,51,52
 662 292 662 292 576 394.5 c 128,-1,53
 490 497 490 497 490 689 c 0,54,55
 490 815 490 815 530 904 c 128,-1,56
 570 993 570 993 648.5 1039 c 128,-1,57
 727 1085 727 1085 840 1085 c 0,32,33
EndSplineSet
EndChar

StartChar: ordfeminine
Encoding: 170 170 108
Width: 697
GlyphClass: 2
Flags: W
AnchorPoint: "Anchor-1" 0 0 basechar 0
AnchorPoint: "Anchor-0" 20 0 basechar 0
LayerCount: 2
Fore
SplineSet
666 1501 m 1,0,-1
 595 976 l 1,1,-1
 584 817 l 1,2,-1
 530 811 l 1,3,-1
 581 1205 l 1,4,-1
 572 1205 l 1,5,6
 437 954 437 954 276 811 c 1,7,-1
 256 811 l 1,8,9
 209 841 209 841 188.5 889.5 c 128,-1,10
 168 938 168 938 168 1027 c 0,11,12
 168 1119 168 1119 191 1201.5 c 128,-1,13
 214 1284 214 1284 257 1348.5 c 128,-1,14
 300 1413 300 1413 367 1454 c 128,-1,15
 434 1495 434 1495 516 1501 c 1,16,-1
 523 1501 l 1,17,-1
 624 1492 l 1,18,-1
 656 1506 l 1,19,-1
 666 1501 l 1,0,-1
274 866 m 0,20,21
 279 866 279 866 291 876 c 128,-1,22
 303 886 303 886 322 906 c 128,-1,23
 341 926 341 926 364 954 c 128,-1,24
 387 982 387 982 415 1020.5 c 128,-1,25
 443 1059 443 1059 472 1103.5 c 128,-1,26
 501 1148 501 1148 533 1204 c 128,-1,27
 565 1260 565 1260 595 1319 c 1,28,-1
 600 1357 l 1,29,-1
 610 1452 l 1,30,-1
 516 1459 l 1,31,32
 425 1458 425 1458 354.5 1398.5 c 128,-1,33
 284 1339 284 1339 248 1244.5 c 128,-1,34
 212 1150 212 1150 212 1039 c 0,35,36
 212 1001 212 1001 216.5 970.5 c 128,-1,37
 221 940 221 940 228 921 c 128,-1,38
 235 902 235 902 244 889.5 c 128,-1,39
 253 877 253 877 260.5 871.5 c 128,-1,40
 268 866 268 866 274 866 c 0,20,21
EndSplineSet
EndChar

StartChar: guillemetleft
Encoding: 171 171 109
Width: 849
GlyphClass: 2
Flags: W
LayerCount: 2
Fore
SplineSet
109 514 m 1,0,-1
 114 539 l 1,1,-1
 523 925 l 1,2,-1
 548 904 l 1,3,-1
 546 889 l 1,4,-1
 163 521 l 1,5,-1
 457 152 l 1,6,-1
 455 138 l 1,7,-1
 425 116 l 1,8,-1
 109 514 l 1,0,-1
450 514 m 1,9,-1
 455 539 l 1,10,-1
 864 925 l 1,11,-1
 889 904 l 1,12,-1
 887 889 l 1,13,-1
 504 521 l 1,14,-1
 798 152 l 1,15,-1
 796 138 l 1,16,-1
 766 116 l 1,17,-1
 450 514 l 1,9,-1
EndSplineSet
EndChar

StartChar: logicalnot
Encoding: 172 172 110
Width: 1120
GlyphClass: 2
Flags: W
LayerCount: 2
Fore
SplineSet
985 640 m 1,0,-1
 927 165 l 1,1,-1
 887 161 l 1,2,-1
 880 168 l 1,3,-1
 934 606 l 1,4,-1
 98 606 l 1,5,-1
 93 614 l 1,6,-1
 103 653 l 1,7,-1
 974 653 l 1,8,-1
 985 640 l 1,0,-1
EndSplineSet
EndChar

StartChar: softhyphen
Encoding: 173 173 111
Width: 727
GlyphClass: 2
Flags: W
LayerCount: 2
Fore
SplineSet
668 646 m 1,0,-1
 666 610 l 1,1,-1
 82 532 l 1,2,-1
 75 542 l 1,3,-1
 80 579 l 1,4,-1
 661 656 l 1,5,-1
 668 646 l 1,0,-1
EndSplineSet
EndChar

StartChar: registered
Encoding: 174 174 112
Width: 1007
GlyphClass: 2
Flags: W
LayerCount: 2
Fore
SplineSet
506 1639 m 0,0,1
 692 1639 692 1639 805 1526 c 128,-1,2
 918 1413 918 1413 918 1228 c 0,3,4
 918 1104 918 1104 867 1010.5 c 128,-1,5
 816 917 816 917 722.5 866 c 128,-1,6
 629 815 629 815 506 815 c 0,7,8
 319 815 319 815 206 928 c 128,-1,9
 93 1041 93 1041 93 1228 c 0,10,11
 93 1414 93 1414 206 1526.5 c 128,-1,12
 319 1639 319 1639 506 1639 c 0,0,1
506 860 m 0,13,14
 588 860 588 860 656.5 886 c 128,-1,15
 725 912 725 912 772.5 960 c 128,-1,16
 820 1008 820 1008 846.5 1076.5 c 128,-1,17
 873 1145 873 1145 873 1228 c 0,18,19
 873 1394 873 1394 772.5 1494.5 c 128,-1,20
 672 1595 672 1595 506 1595 c 0,21,22
 396 1595 396 1595 312.5 1549.5 c 128,-1,23
 229 1504 229 1504 183.5 1421 c 128,-1,24
 138 1338 138 1338 138 1228 c 0,25,26
 138 1061 138 1061 238.5 960.5 c 128,-1,27
 339 860 339 860 506 860 c 0,13,14
649 1341 m 0,28,29
 649 1294 649 1294 624 1257 c 128,-1,30
 599 1220 599 1220 553 1200 c 1,31,32
 617 1101 617 1101 677 1029 c 1,33,-1
 677 1023 l 1,34,35
 672 1021 672 1021 662.5 1019 c 128,-1,36
 653 1017 653 1017 642.5 1015.5 c 128,-1,37
 632 1014 632 1014 628 1013 c 1,38,-1
 621 1018 l 1,39,40
 567 1089 567 1089 502 1190 c 1,41,-1
 421 1190 l 1,42,-1
 421 1161 l 1,43,-1
 423 1020 l 1,44,-1
 372 1020 l 1,45,-1
 372 1468 l 1,46,-1
 508 1468 l 2,47,48
 649 1468 649 1468 649 1341 c 0,28,29
421 1237 m 1,49,-1
 514 1232 l 1,50,51
 597 1260 597 1260 597 1335 c 0,52,53
 597 1363 597 1363 585.5 1383 c 128,-1,54
 574 1403 574 1403 551.5 1414 c 128,-1,55
 529 1425 529 1425 497 1426 c 1,56,-1
 423 1424 l 1,57,-1
 421 1237 l 1,49,-1
EndSplineSet
EndChar

StartChar: macron
Encoding: 175 175 113
Width: 909
GlyphClass: 2
Flags: W
LayerCount: 2
Fore
SplineSet
904 1410 m 1,0,-1
 898 1370 l 1,1,-1
 229 1370 l 1,2,-1
 222 1377 l 1,3,-1
 227 1417 l 1,4,-1
 896 1417 l 1,5,-1
 904 1410 l 1,0,-1
EndSplineSet
EndChar

StartChar: degree
Encoding: 176 176 114
Width: 688
GlyphClass: 2
Flags: W
LayerCount: 2
Fore
SplineSet
465 1499 m 0,0,1
 573 1499 573 1499 644 1427 c 128,-1,2
 715 1355 715 1355 715 1247 c 0,3,4
 715 1164 715 1164 670 1092.5 c 128,-1,5
 625 1021 625 1021 551 980.5 c 128,-1,6
 477 940 477 940 394 940 c 0,7,8
 285 940 285 940 213.5 1011.5 c 128,-1,9
 142 1083 142 1083 142 1190 c 0,10,11
 142 1274 142 1274 187 1345.5 c 128,-1,12
 232 1417 232 1417 306.5 1458 c 128,-1,13
 381 1499 381 1499 465 1499 c 0,0,1
457 1452 m 0,14,15
 390 1452 390 1452 328 1417.5 c 128,-1,16
 266 1383 266 1383 227.5 1323.5 c 128,-1,17
 189 1264 189 1264 189 1198 c 0,18,19
 189 1112 189 1112 251 1049.5 c 128,-1,20
 313 987 313 987 401 987 c 0,21,22
 467 987 467 987 528.5 1022 c 128,-1,23
 590 1057 590 1057 628 1115.5 c 128,-1,24
 666 1174 666 1174 666 1239 c 0,25,26
 666 1327 666 1327 605 1389.5 c 128,-1,27
 544 1452 544 1452 457 1452 c 0,14,15
EndSplineSet
EndChar

StartChar: plusminus
Encoding: 177 177 115
Width: 1117
GlyphClass: 2
Flags: W
LayerCount: 2
Fore
SplineSet
651 1092 m 1,0,-1
 597 653 l 1,1,-1
 1034 653 l 1,2,-1
 1041 646 l 1,3,-1
 1032 606 l 1,4,-1
 591 606 l 1,5,-1
 537 165 l 1,6,-1
 497 161 l 1,7,-1
 490 168 l 1,8,-1
 544 606 l 1,9,-1
 107 606 l 1,10,-1
 100 614 l 1,11,-1
 109 653 l 1,12,-1
 551 653 l 1,13,-1
 604 1096 l 1,14,-1
 644 1100 l 1,15,-1
 651 1092 l 1,0,-1
947 -112 m 1,16,-1
 943 -152 l 1,17,-1
 16 -152 l 1,18,-1
 9 -145 l 1,19,-1
 14 -105 l 1,20,-1
 940 -105 l 1,21,-1
 947 -112 l 1,16,-1
EndSplineSet
EndChar

StartChar: twosuperior
Encoding: 178 178 116
Width: 784
GlyphClass: 2
Flags: W
LayerCount: 2
Fore
SplineSet
532 1639 m 0,0,1
 617 1639 617 1639 669.5 1595 c 128,-1,2
 722 1551 722 1551 722 1482 c 0,3,4
 722 1451 722 1451 710 1417.5 c 128,-1,5
 698 1384 698 1384 680 1353 c 128,-1,6
 662 1322 662 1322 624.5 1276.5 c 128,-1,7
 587 1231 587 1231 553.5 1193.5 c 128,-1,8
 520 1156 520 1156 459 1092 c 2,9,-1
 207 822 l 1,10,-1
 212 817 l 1,11,-1
 621 817 l 1,12,-1
 764 820 l 1,13,-1
 766 811 l 1,14,-1
 755 771 l 1,15,-1
 602 773 l 1,16,-1
 207 773 l 1,17,-1
 140 771 l 1,18,-1
 136 775 l 1,19,-1
 140 811 l 1,20,-1
 428 1116 l 2,21,22
 477 1169 477 1169 501 1195 c 128,-1,23
 525 1221 525 1221 559.5 1261 c 128,-1,24
 594 1301 594 1301 609.5 1323.5 c 128,-1,25
 625 1346 625 1346 642.5 1374.5 c 128,-1,26
 660 1403 660 1403 666.5 1425.5 c 128,-1,27
 673 1448 673 1448 673 1471 c 0,28,29
 673 1524 673 1524 633.5 1559.5 c 128,-1,30
 594 1595 594 1595 523 1595 c 0,31,32
 454 1595 454 1595 384.5 1560 c 128,-1,33
 315 1525 315 1525 256 1461 c 1,34,-1
 250 1461 l 1,35,-1
 245 1501 l 1,36,37
 305 1566 305 1566 379.5 1602.5 c 128,-1,38
 454 1639 454 1639 532 1639 c 0,0,1
EndSplineSet
EndChar

StartChar: threesuperior
Encoding: 179 179 117
Width: 686
GlyphClass: 2
Flags: W
LayerCount: 2
Fore
SplineSet
441 1642 m 0,0,1
 527 1642 527 1642 580 1598 c 128,-1,2
 633 1554 633 1554 633 1482 c 0,3,4
 633 1436 633 1436 609 1390.5 c 128,-1,5
 585 1345 585 1345 540.5 1307 c 128,-1,6
 496 1269 496 1269 439 1245 c 1,7,-1
 439 1239 l 1,8,9
 528 1219 528 1219 576 1169.5 c 128,-1,10
 624 1120 624 1120 624 1047 c 0,11,12
 624 926 624 926 520.5 847 c 128,-1,13
 417 768 417 768 261 768 c 0,14,15
 191 768 191 768 124 782 c 1,16,-1
 124 820 l 1,17,-1
 129 824 l 1,18,19
 203 813 203 813 269 813 c 0,20,21
 405 813 405 813 491 876 c 128,-1,22
 577 939 577 939 577 1043 c 0,23,24
 577 1120 577 1120 516 1164.5 c 128,-1,25
 455 1209 455 1209 343 1214 c 1,26,-1
 266 1214 l 1,27,-1
 261 1219 l 1,28,-1
 269 1254 l 1,29,-1
 336 1254 l 2,30,31
 373 1254 373 1254 415.5 1270.5 c 128,-1,32
 458 1287 458 1287 495 1315 c 128,-1,33
 532 1343 532 1343 556.5 1384.5 c 128,-1,34
 581 1426 581 1426 581 1471 c 0,35,36
 581 1529 581 1529 541 1563 c 128,-1,37
 501 1597 501 1597 432 1597 c 0,38,39
 334 1597 334 1597 220 1506 c 1,40,-1
 212 1506 l 1,41,-1
 207 1546 l 1,42,43
 328 1642 328 1642 441 1642 c 0,0,1
EndSplineSet
EndChar

StartChar: acute
Encoding: 180 180 118
Width: 909
GlyphClass: 2
Flags: W
LayerCount: 2
Fore
SplineSet
726 1560 m 1,0,-1
 749 1537 l 1,1,-1
 747 1524 l 1,2,3
 595 1372 595 1372 410 1210 c 1,4,-1
 399 1212 l 1,5,-1
 374 1243 l 1,6,7
 540 1384 540 1384 715 1562 c 1,8,-1
 726 1560 l 1,0,-1
EndSplineSet
EndChar

StartChar: micro
Encoding: 181 181 119
Width: 1068
GlyphClass: 2
Flags: W
LayerCount: 2
Fore
SplineSet
925 1065 m 1,0,-1
 817 247 l 1,1,-1
 796 0 l 1,2,-1
 738 -9 l 1,3,-1
 822 624 l 1,4,-1
 811 624 l 1,5,6
 659 362 659 362 543 205.5 c 128,-1,7
 427 49 427 49 312 -26 c 1,8,-1
 287 -26 l 1,9,10
 226 -9 226 -9 198 44 c 1,11,-1
 168 -196 l 1,12,-1
 147 -443 l 1,13,-1
 89 -453 l 1,14,-1
 256 845 l 1,15,-1
 271 1056 l 1,16,-1
 329 1065 l 1,17,-1
 214 176 l 1,18,19
 210 134 210 134 222.5 100.5 c 128,-1,20
 235 67 235 67 255 51 c 128,-1,21
 275 35 275 35 296 35 c 0,22,23
 358 35 358 35 507.5 233 c 128,-1,24
 657 431 657 431 840 771 c 1,25,-1
 849 845 l 1,26,-1
 866 1056 l 1,27,-1
 925 1065 l 1,0,-1
EndSplineSet
EndChar

StartChar: paragraph
Encoding: 182 182 120
Width: 1045
GlyphClass: 2
Flags: W
LayerCount: 2
Fore
SplineSet
1078 1477 m 1,0,-1
 1067 1441 l 1,1,-1
 878 1441 l 1,2,-1
 749 392 l 1,3,-1
 735 285 l 1,4,5
 720 155 720 155 636.5 47.5 c 128,-1,6
 553 -60 553 -60 392 -158 c 1,7,-1
 372 -133 l 1,8,-1
 374 -119 l 1,9,10
 521 -30 521 -30 598 67 c 128,-1,11
 675 164 675 164 689 276 c 2,12,-1
 700 369 l 1,13,-1
 831 1441 l 1,14,-1
 666 1441 l 1,15,16
 461 1431 461 1431 346 1317 c 128,-1,17
 231 1203 231 1203 231 1009 c 0,18,19
 231 855 231 855 324.5 757.5 c 128,-1,20
 418 660 418 660 595 628 c 1,21,-1
 581 581 l 1,22,23
 391 614 391 614 288 720 c 128,-1,24
 185 826 185 826 185 1000 c 0,25,26
 185 1228 185 1228 317.5 1358 c 128,-1,27
 450 1488 450 1488 689 1488 c 2,28,-1
 1072 1488 l 1,29,-1
 1078 1477 l 1,0,-1
EndSplineSet
EndChar

StartChar: periodcentered
Encoding: 183 183 121
Width: 536
GlyphClass: 2
Flags: W
LayerCount: 2
Fore
SplineSet
271.5 602 m 128,-1,1
 293 602 293 602 305.5 589.5 c 128,-1,2
 318 577 318 577 318 555.5 c 128,-1,3
 318 534 318 534 305.5 521 c 128,-1,4
 293 508 293 508 271 508 c 0,5,6
 257 508 257 508 246.5 514 c 128,-1,7
 236 520 236 520 230.5 530.5 c 128,-1,8
 225 541 225 541 225 555 c 0,9,10
 225 577 225 577 237.5 589.5 c 128,-1,0
 250 602 250 602 271.5 602 c 128,-1,1
EndSplineSet
EndChar

StartChar: cedilla
Encoding: 184 184 122
Width: 909
GlyphClass: 2
Flags: W
LayerCount: 2
Fore
SplineSet
339 -129 m 1,0,-1
 410 -176 l 1,1,2
 451 -201 451 -201 469.5 -228 c 128,-1,3
 488 -255 488 -255 488 -292 c 0,4,5
 488 -348 488 -348 447 -382 c 128,-1,6
 406 -416 406 -416 348 -416 c 0,7,8
 300 -416 300 -416 265 -393 c 128,-1,9
 230 -370 230 -370 210 -339 c 1,10,-1
 225 -296 l 1,11,-1
 234 -296 l 1,12,13
 259 -333 259 -333 283.5 -351 c 128,-1,14
 308 -369 308 -369 348 -369 c 0,15,16
 390 -369 390 -369 415.5 -348.5 c 128,-1,17
 441 -328 441 -328 441 -292 c 0,18,19
 441 -266 441 -266 428 -250 c 128,-1,20
 415 -234 415 -234 385 -214 c 2,21,-1
 285 -149 l 1,22,-1
 341 26 l 1,23,-1
 388 26 l 1,24,-1
 339 -129 l 1,0,-1
EndSplineSet
EndChar

StartChar: onesuperior
Encoding: 185 185 123
Width: 559
GlyphClass: 2
Flags: W
LayerCount: 2
Fore
SplineSet
457 1637 m 1,0,-1
 388 1076 l 1,1,-1
 350 773 l 1,2,-1
 303 773 l 1,3,-1
 341 1067 l 1,4,-1
 404 1586 l 1,5,-1
 168 1522 l 1,6,-1
 158 1526 l 1,7,-1
 163 1564 l 1,8,-1
 450 1646 l 1,9,-1
 457 1637 l 1,0,-1
EndSplineSet
EndChar

StartChar: ordmasculine
Encoding: 186 186 124
Width: 657
GlyphClass: 2
Flags: W
LayerCount: 2
Fore
SplineSet
483 1504 m 1,0,-1
 490 1504 l 1,1,2
 570 1497 570 1497 607 1446 c 128,-1,3
 644 1395 644 1395 644 1292 c 0,4,5
 644 1155 644 1155 607.5 1048 c 128,-1,6
 571 941 571 941 499.5 877.5 c 128,-1,7
 428 814 428 814 332 808 c 1,8,-1
 323 808 l 1,9,10
 269 812 269 812 234 836 c 128,-1,11
 199 860 199 860 182 907 c 128,-1,12
 165 954 165 954 165 1025 c 0,13,14
 165 1161 165 1161 203 1268 c 128,-1,15
 241 1375 241 1375 313.5 1438 c 128,-1,16
 386 1501 386 1501 483 1504 c 1,0,-1
479 1461 m 0,17,18
 400 1461 400 1461 339 1405 c 128,-1,19
 278 1349 278 1349 245 1251 c 128,-1,20
 212 1153 212 1153 212 1029 c 0,21,22
 212 936 212 936 241.5 892.5 c 128,-1,23
 271 849 271 849 334 849 c 0,24,25
 412 849 412 849 472 905.5 c 128,-1,26
 532 962 532 962 564.5 1060.5 c 128,-1,27
 597 1159 597 1159 597 1284 c 0,28,29
 597 1375 597 1375 569 1418 c 128,-1,30
 541 1461 541 1461 479 1461 c 0,17,18
EndSplineSet
EndChar

StartChar: guillemetright
Encoding: 187 187 125
Width: 828
GlyphClass: 2
Flags: W
LayerCount: 2
Fore
SplineSet
406 528 m 1,0,-1
 401 502 l 1,1,-1
 -7 116 l 1,2,-1
 -33 138 l 1,3,-1
 -31 152 l 1,4,-1
 352 521 l 1,5,-1
 58 889 l 1,6,-1
 60 904 l 1,7,-1
 91 925 l 1,8,-1
 406 528 l 1,0,-1
747 528 m 1,9,-1
 742 502 l 1,10,-1
 334 116 l 1,11,-1
 308 138 l 1,12,-1
 310 152 l 1,13,-1
 693 521 l 1,14,-1
 399 889 l 1,15,-1
 401 904 l 1,16,-1
 432 925 l 1,17,-1
 747 528 l 1,9,-1
EndSplineSet
EndChar

StartChar: onequarter
Encoding: 188 188 126
Width: 1526
GlyphClass: 2
Flags: W
LayerCount: 2
Fore
SplineSet
1352 1531 m 1,0,-1
 5 -210 l 1,1,-1
 -14 -201 l 1,2,-1
 -21 -180 l 1,3,-1
 1324 1562 l 1,4,-1
 1347 1550 l 1,5,-1
 1352 1531 l 1,0,-1
152 1375 m 1,6,-1
 142 1379 l 1,7,-1
 147 1417 l 1,8,-1
 434 1499 l 1,9,-1
 441 1490 l 1,10,-1
 372 929 l 1,11,-1
 334 626 l 1,12,-1
 287 626 l 1,13,-1
 325 920 l 1,14,-1
 388 1439 l 1,15,-1
 152 1375 l 1,6,-1
1408 312 m 1,16,-1
 1396 276 l 1,17,-1
 1279 278 l 1,18,-1
 1235 278 l 1,19,-1
 1205 5 l 1,20,-1
 1198 0 l 1,21,-1
 1161 -5 l 1,22,-1
 1156 0 l 1,23,-1
 1190 278 l 1,24,-1
 864 278 l 1,25,-1
 791 276 l 1,26,-1
 784 283 l 1,27,-1
 789 318 l 1,28,-1
 1263 862 l 1,29,-1
 1308 862 l 1,30,-1
 1239 320 l 1,31,-1
 1401 320 l 1,32,-1
 1408 312 l 1,16,-1
1196 320 m 1,33,-1
 1254 787 l 1,34,-1
 1247 787 l 1,35,-1
 840 320 l 1,36,-1
 1196 320 l 1,33,-1
EndSplineSet
EndChar

StartChar: onehalf
Encoding: 189 189 127
Width: 1528
GlyphClass: 2
Flags: W
LayerCount: 2
Fore
SplineSet
1347 1550 m 1,0,-1
 1352 1531 l 1,1,-1
 5 -210 l 1,2,-1
 -14 -201 l 1,3,-1
 -21 -180 l 1,4,-1
 1324 1562 l 1,5,-1
 1347 1550 l 1,0,-1
441 1490 m 1,6,-1
 372 929 l 1,7,-1
 334 626 l 1,8,-1
 287 626 l 1,9,-1
 325 920 l 1,10,-1
 388 1439 l 1,11,-1
 152 1375 l 1,12,-1
 142 1379 l 1,13,-1
 147 1417 l 1,14,-1
 434 1499 l 1,15,-1
 441 1490 l 1,6,-1
1179 866 m 0,16,17
 1264 866 1264 866 1316 822.5 c 128,-1,18
 1368 779 1368 779 1368 710 c 0,19,20
 1368 679 1368 679 1356.5 645.5 c 128,-1,21
 1345 612 1345 612 1326.5 581 c 128,-1,22
 1308 550 1308 550 1271.5 505 c 128,-1,23
 1235 460 1235 460 1200.5 422 c 128,-1,24
 1166 384 1166 384 1107 320 c 2,25,-1
 855 49 l 1,26,-1
 860 44 l 1,27,-1
 1268 44 l 1,28,-1
 1410 47 l 1,29,-1
 1412 38 l 1,30,-1
 1401 -2 l 1,31,-1
 1249 0 l 1,32,-1
 855 0 l 1,33,-1
 787 -2 l 1,34,-1
 782 2 l 1,35,-1
 787 38 l 1,36,-1
 1074 343 l 2,37,38
 1124 396 1124 396 1147.5 422 c 128,-1,39
 1171 448 1171 448 1205.5 488 c 128,-1,40
 1240 528 1240 528 1256 550.5 c 128,-1,41
 1272 573 1272 573 1289 601.5 c 128,-1,42
 1306 630 1306 630 1312.5 652.5 c 128,-1,43
 1319 675 1319 675 1319 698 c 0,44,45
 1319 751 1319 751 1279.5 786.5 c 128,-1,46
 1240 822 1240 822 1170 822 c 0,47,48
 1150 822 1150 822 1129.5 819 c 128,-1,49
 1109 816 1109 816 1089.5 810 c 128,-1,50
 1070 804 1070 804 1050.5 796 c 128,-1,51
 1031 788 1031 788 1012 776.5 c 128,-1,52
 993 765 993 765 974.5 751.5 c 128,-1,53
 956 738 956 738 938.5 722.5 c 128,-1,54
 921 707 921 707 904 689 c 1,55,-1
 896 689 l 1,56,-1
 891 728 l 1,57,58
 951 793 951 793 1025.5 829.5 c 128,-1,59
 1100 866 1100 866 1179 866 c 0,16,17
EndSplineSet
EndChar

StartChar: threequarters
Encoding: 190 190 128
Width: 1608
GlyphClass: 2
Flags: W
LayerCount: 2
Fore
SplineSet
1433 1531 m 1,0,-1
 87 -210 l 1,1,-1
 67 -201 l 1,2,-1
 60 -180 l 1,3,-1
 1406 1562 l 1,4,-1
 1428 1550 l 1,5,-1
 1433 1531 l 1,0,-1
604 898 m 0,6,7
 604 778 604 778 501.5 699.5 c 128,-1,8
 399 621 399 621 243 621 c 0,9,10
 172 621 172 621 105 635 c 1,11,-1
 105 673 l 1,12,-1
 109 677 l 1,13,14
 184 666 184 666 250 666 c 0,15,16
 386 666 386 666 471.5 729 c 128,-1,17
 557 792 557 792 557 896 c 0,18,19
 557 973 557 973 497 1017.5 c 128,-1,20
 437 1062 437 1062 325 1067 c 1,21,-1
 247 1067 l 1,22,-1
 243 1072 l 1,23,-1
 250 1107 l 1,24,-1
 318 1107 l 2,25,26
 354 1107 354 1107 396.5 1123.5 c 128,-1,27
 439 1140 439 1140 476.5 1168 c 128,-1,28
 514 1196 514 1196 538.5 1237.5 c 128,-1,29
 563 1279 563 1279 563 1324 c 0,30,31
 563 1382 563 1382 522 1416 c 128,-1,32
 481 1450 481 1450 413 1450 c 0,33,34
 314 1450 314 1450 201 1359 c 1,35,-1
 194 1359 l 1,36,-1
 189 1399 l 1,37,38
 310 1495 310 1495 423 1495 c 0,39,40
 479 1495 479 1495 522.5 1475 c 128,-1,41
 566 1455 566 1455 590 1418.5 c 128,-1,42
 614 1382 614 1382 614 1335 c 0,43,44
 614 1265 614 1265 561 1200 c 128,-1,45
 508 1135 508 1135 421 1098 c 1,46,-1
 421 1092 l 1,47,48
 480 1079 480 1079 521 1052 c 128,-1,49
 562 1025 562 1025 583 986 c 128,-1,50
 604 947 604 947 604 898 c 0,6,7
1490 312 m 1,51,-1
 1477 276 l 1,52,-1
 1361 278 l 1,53,-1
 1317 278 l 1,54,-1
 1286 5 l 1,55,-1
 1279 0 l 1,56,-1
 1243 -5 l 1,57,-1
 1237 0 l 1,58,-1
 1272 278 l 1,59,-1
 945 278 l 1,60,-1
 873 276 l 1,61,-1
 866 283 l 1,62,-1
 871 318 l 1,63,-1
 1345 862 l 1,64,-1
 1390 862 l 1,65,-1
 1321 320 l 1,66,-1
 1482 320 l 1,67,-1
 1490 312 l 1,51,-1
1277 320 m 1,68,-1
 1335 787 l 1,69,-1
 1328 787 l 1,70,-1
 922 320 l 1,71,-1
 1277 320 l 1,68,-1
EndSplineSet
EndChar

StartChar: questiondown
Encoding: 191 191 129
Width: 753
GlyphClass: 2
Flags: W
LayerCount: 2
Fore
SplineSet
485.5 978 m 128,-1,1
 464 978 464 978 451.5 990.5 c 128,-1,2
 439 1003 439 1003 439 1024.5 c 128,-1,3
 439 1046 439 1046 451.5 1059 c 128,-1,4
 464 1072 464 1072 486 1072 c 0,5,6
 500 1072 500 1072 510.5 1066 c 128,-1,7
 521 1060 521 1060 526.5 1049.5 c 128,-1,8
 532 1039 532 1039 532 1025 c 0,9,10
 532 1003 532 1003 519.5 990.5 c 128,-1,0
 507 978 507 978 485.5 978 c 128,-1,1
450 -453 m 1,11,-1
 434 -459 l 1,12,13
 208 -442 208 -442 79.5 -355.5 c 128,-1,14
 -49 -269 -49 -269 -49 -131 c 0,15,16
 -49 -37 -49 -37 8 47 c 128,-1,17
 65 131 65 131 171 198 c 2,18,-1
 413 352 l 1,19,-1
 418 359 l 1,20,-1
 437 612 l 1,21,-1
 477 614 l 1,22,-1
 481 604 l 1,23,-1
 465 343 l 1,24,-1
 450 323 l 1,25,-1
 194 161 l 2,26,27
 0 38 0 38 0 -121 c 0,28,29
 0 -205 0 -205 52.5 -268 c 128,-1,30
 105 -331 105 -331 209.5 -369 c 128,-1,31
 314 -407 314 -407 463 -416 c 1,32,-1
 467 -423 l 1,33,-1
 450 -453 l 1,11,-1
EndSplineSet
EndChar

StartChar: Agrave
Encoding: 192 192 130
Width: 1223
GlyphClass: 2
Flags: W
AnchorPoint: "Anchor-1" 0 0 basechar 0
AnchorPoint: "Anchor-0" 744 1487 basechar 0
LayerCount: 2
Fore
SplineSet
987 1697 m 1,0,-1
 976 1691 l 1,1,2
 731 1814 731 1814 570 1907 c 1,3,-1
 565 1919 l 1,4,-1
 581 1947 l 1,5,-1
 593 1952 l 1,6,7
 787 1836 787 1836 1004 1733 c 1,8,-1
 987 1697 l 1,0,-1
1098 0 m 1,9,-1
 1043 0 l 1,10,-1
 1029 100 l 1,11,-1
 943 497 l 1,12,-1
 283 497 l 1,13,-1
 84 100 l 1,14,-1
 38 0 l 1,15,-1
 -18 0 l 1,16,-1
 726 1488 l 1,17,-1
 775 1488 l 1,18,-1
 1098 0 l 1,9,-1
931 544 m 1,19,-1
 742 1408 l 1,20,-1
 735 1408 l 1,21,-1
 306 544 l 1,22,-1
 931 544 l 1,19,-1
EndSplineSet
Position2: "'cpsp' Capital Spacing lookup 0 subtable" dx=16 dy=0 dh=33 dv=0
EndChar

StartChar: Aacute
Encoding: 193 193 131
Width: 1223
GlyphClass: 2
Flags: W
AnchorPoint: "Anchor-1" 0 0 basechar 0
AnchorPoint: "Anchor-0" 744 1487 basechar 0
LayerCount: 2
Fore
SplineSet
606 1697 m 1,0,-1
 591 1733 l 1,1,2
 808 1836 808 1836 1002 1952 c 1,3,-1
 1013 1947 l 1,4,-1
 1029 1919 l 1,5,-1
 1025 1907 l 1,6,7
 863 1814 863 1814 619 1691 c 1,8,-1
 606 1697 l 1,0,-1
1098 0 m 1,9,-1
 1043 0 l 1,10,-1
 1029 100 l 1,11,-1
 943 497 l 1,12,-1
 283 497 l 1,13,-1
 84 100 l 1,14,-1
 38 0 l 1,15,-1
 -18 0 l 1,16,-1
 726 1488 l 1,17,-1
 775 1488 l 1,18,-1
 1098 0 l 1,9,-1
931 544 m 1,19,-1
 742 1408 l 1,20,-1
 735 1408 l 1,21,-1
 306 544 l 1,22,-1
 931 544 l 1,19,-1
EndSplineSet
Position2: "'cpsp' Capital Spacing lookup 0 subtable" dx=16 dy=0 dh=33 dv=0
EndChar

StartChar: Acircumflex
Encoding: 194 194 132
Width: 1223
GlyphClass: 2
Flags: W
AnchorPoint: "Anchor-1" 0 0 basechar 0
AnchorPoint: "Anchor-0" 744 1487 basechar 0
LayerCount: 2
Fore
SplineSet
548 1718 m 1,0,-1
 537 1751 l 1,1,2
 621 1805 621 1805 784 1929 c 1,3,-1
 822 1929 l 1,4,5
 964 1806 964 1806 1034 1751 c 1,6,-1
 1016 1718 l 1,7,-1
 1004 1718 l 1,8,9
 905 1792 905 1792 800 1882 c 1,10,11
 659 1780 659 1780 561 1718 c 1,12,-1
 548 1718 l 1,0,-1
1098 0 m 1,13,-1
 1043 0 l 1,14,-1
 1029 100 l 1,15,-1
 943 497 l 1,16,-1
 283 497 l 1,17,-1
 84 100 l 1,18,-1
 38 0 l 1,19,-1
 -18 0 l 1,20,-1
 726 1488 l 1,21,-1
 775 1488 l 1,22,-1
 1098 0 l 1,13,-1
931 544 m 1,23,-1
 742 1408 l 1,24,-1
 735 1408 l 1,25,-1
 306 544 l 1,26,-1
 931 544 l 1,23,-1
EndSplineSet
Position2: "'cpsp' Capital Spacing lookup 0 subtable" dx=16 dy=0 dh=33 dv=0
EndChar

StartChar: Atilde
Encoding: 195 195 133
Width: 1223
GlyphClass: 2
Flags: W
AnchorPoint: "Anchor-1" 0 0 basechar 0
AnchorPoint: "Anchor-0" 744 1487 basechar 0
LayerCount: 2
Fore
SplineSet
1112 1880 m 1,0,-1
 1112 1870 l 1,1,-1
 990 1760 l 1,2,-1
 976 1756 l 1,3,4
 933 1760 933 1760 787.5 1802.5 c 128,-1,5
 642 1845 642 1845 612 1845 c 0,6,7
 605 1845 605 1845 596.5 1840.5 c 128,-1,8
 588 1836 588 1836 576.5 1826.5 c 128,-1,9
 565 1817 565 1817 554.5 1807 c 128,-1,10
 544 1797 544 1797 526 1780 c 128,-1,11
 508 1763 508 1763 492 1749 c 1,12,-1
 483 1749 l 1,13,-1
 463 1774 l 1,14,-1
 463 1784 l 1,15,-1
 584 1894 l 1,16,-1
 597 1898 l 1,17,18
 640 1894 640 1894 786.5 1851.5 c 128,-1,19
 933 1809 933 1809 962 1809 c 0,20,21
 971 1809 971 1809 983.5 1817 c 128,-1,22
 996 1825 996 1825 1007 1835.5 c 128,-1,23
 1018 1846 1018 1846 1040.5 1867.5 c 128,-1,24
 1063 1889 1063 1889 1081 1905 c 1,25,-1
 1090 1905 l 1,26,-1
 1112 1880 l 1,0,-1
775 1488 m 1,27,-1
 1098 0 l 1,28,-1
 1043 0 l 1,29,-1
 1029 100 l 1,30,-1
 943 497 l 1,31,-1
 283 497 l 1,32,-1
 84 100 l 1,33,-1
 38 0 l 1,34,-1
 -18 0 l 1,35,-1
 726 1488 l 1,36,-1
 775 1488 l 1,27,-1
931 544 m 1,37,-1
 742 1408 l 1,38,-1
 735 1408 l 1,39,-1
 306 544 l 1,40,-1
 931 544 l 1,37,-1
EndSplineSet
Position2: "'cpsp' Capital Spacing lookup 0 subtable" dx=16 dy=0 dh=33 dv=0
EndChar

StartChar: Adieresis
Encoding: 196 196 134
Width: 1223
GlyphClass: 2
Flags: W
AnchorPoint: "Anchor-1" 0 0 basechar 0
AnchorPoint: "Anchor-0" 744 1487 basechar 0
LayerCount: 2
Fore
SplineSet
612 1777 m 0,0,1
 591 1777 591 1777 578 1789.5 c 128,-1,2
 565 1802 565 1802 565 1823 c 128,-1,3
 565 1844 565 1844 578 1857 c 128,-1,4
 591 1870 591 1870 612 1870 c 0,5,6
 626 1870 626 1870 636.5 1864 c 128,-1,7
 647 1858 647 1858 653 1847.5 c 128,-1,8
 659 1837 659 1837 659 1823 c 0,9,10
 659 1812 659 1812 655.5 1803.5 c 128,-1,11
 652 1795 652 1795 646 1789.5 c 128,-1,12
 640 1784 640 1784 631.5 1780.5 c 128,-1,13
 623 1777 623 1777 612 1777 c 0,0,1
962 1777 m 0,14,15
 941 1777 941 1777 928 1789.5 c 128,-1,16
 915 1802 915 1802 915 1823 c 128,-1,17
 915 1844 915 1844 928 1857 c 128,-1,18
 941 1870 941 1870 962.5 1870 c 128,-1,19
 984 1870 984 1870 996.5 1857 c 128,-1,20
 1009 1844 1009 1844 1009 1823 c 0,21,22
 1009 1812 1009 1812 1005.5 1803.5 c 128,-1,23
 1002 1795 1002 1795 996 1789.5 c 128,-1,24
 990 1784 990 1784 981.5 1780.5 c 128,-1,25
 973 1777 973 1777 962 1777 c 0,14,15
1098 0 m 1,26,-1
 1043 0 l 1,27,-1
 1029 100 l 1,28,-1
 943 497 l 1,29,-1
 283 497 l 1,30,-1
 84 100 l 1,31,-1
 38 0 l 1,32,-1
 -18 0 l 1,33,-1
 726 1488 l 1,34,-1
 775 1488 l 1,35,-1
 1098 0 l 1,26,-1
931 544 m 1,36,-1
 742 1408 l 1,37,-1
 735 1408 l 1,38,-1
 306 544 l 1,39,-1
 931 544 l 1,36,-1
EndSplineSet
Position2: "'cpsp' Capital Spacing lookup 0 subtable" dx=16 dy=0 dh=33 dv=0
EndChar

StartChar: Aring
Encoding: 197 197 135
Width: 1223
GlyphClass: 2
Flags: W
AnchorPoint: "Anchor-1" 0 0 basechar 0
AnchorPoint: "Anchor-0" 744 1487 basechar 0
LayerCount: 2
Fore
SplineSet
784 1667 m 0,0,1
 719 1667 719 1667 670 1712 c 128,-1,2
 621 1757 621 1757 621 1831 c 0,3,4
 621 1900 621 1900 666.5 1946 c 128,-1,5
 712 1992 712 1992 784 1992 c 0,6,7
 861 1992 861 1992 906 1943 c 128,-1,8
 951 1894 951 1894 951 1829 c 0,9,10
 951 1755 951 1755 900.5 1711 c 128,-1,11
 850 1667 850 1667 784 1667 c 0,0,1
784 1945 m 0,12,13
 731 1945 731 1945 699.5 1913.5 c 128,-1,14
 668 1882 668 1882 668 1831 c 0,15,16
 668 1794 668 1794 684 1767 c 128,-1,17
 700 1740 700 1740 726 1726.5 c 128,-1,18
 752 1713 752 1713 784 1713 c 0,19,20
 834 1713 834 1713 869 1744 c 128,-1,21
 904 1775 904 1775 904 1829 c 0,22,23
 904 1878 904 1878 873 1911.5 c 128,-1,24
 842 1945 842 1945 784 1945 c 0,12,13
1098 0 m 1,25,-1
 1043 0 l 1,26,-1
 1029 100 l 1,27,-1
 943 497 l 1,28,-1
 283 497 l 1,29,-1
 84 100 l 1,30,-1
 38 0 l 1,31,-1
 -18 0 l 1,32,-1
 726 1488 l 1,33,-1
 775 1488 l 1,34,-1
 1098 0 l 1,25,-1
931 544 m 1,35,-1
 742 1408 l 1,36,-1
 735 1408 l 1,37,-1
 306 544 l 1,38,-1
 931 544 l 1,35,-1
EndSplineSet
Position2: "'cpsp' Capital Spacing lookup 0 subtable" dx=16 dy=0 dh=33 dv=0
EndChar

StartChar: AE
Encoding: 198 198 136
Width: 1736
GlyphClass: 2
Flags: W
AnchorPoint: "Anchor-1" 0 0 basechar 0
AnchorPoint: "Anchor-0" 1204 1487 basechar 0
LayerCount: 2
Fore
SplineSet
1622 38 m 1,0,-1
 1609 0 l 1,1,-1
 940 0 l 1,2,-1
 940 100 l 1,3,-1
 922 677 l 1,4,-1
 341 577 l 1,5,-1
 26 100 l 1,6,-1
 -35 0 l 1,7,-1
 -98 0 l 1,8,-1
 896 1488 l 1,9,-1
 1562 1488 l 1,10,-1
 1566 1477 l 1,11,-1
 1550 1441 l 1,12,-1
 947 1441 l 1,13,-1
 969 731 l 1,14,-1
 1499 822 l 1,15,-1
 1504 815 l 1,16,-1
 1492 775 l 1,17,-1
 969 686 l 1,18,-1
 987 47 l 1,19,-1
 1620 47 l 1,20,-1
 1622 38 l 1,0,-1
920 724 m 1,21,-1
 898 1406 l 1,22,-1
 891 1406 l 1,23,-1
 378 630 l 1,24,-1
 920 724 l 1,21,-1
EndSplineSet
Position2: "'cpsp' Capital Spacing lookup 0 subtable" dx=16 dy=0 dh=33 dv=0
EndChar

StartChar: Ccedilla
Encoding: 199 199 137
Width: 1159
GlyphClass: 2
Flags: W
AnchorPoint: "Anchor-1" 648 0 basechar 0
AnchorPoint: "Anchor-0" 782 1487 basechar 0
LayerCount: 2
Fore
SplineSet
817 1497 m 0,0,1
 923 1497 923 1497 1021 1461 c 128,-1,2
 1119 1425 1119 1425 1190 1359 c 1,3,-1
 1170 1319 l 1,4,-1
 1154 1319 l 1,5,6
 1015 1450 1015 1450 813 1450 c 0,7,8
 662 1450 662 1450 542 1390.5 c 128,-1,9
 422 1331 422 1331 341.5 1220 c 128,-1,10
 261 1109 261 1109 218.5 949 c 128,-1,11
 176 789 176 789 176 591 c 0,12,13
 176 323 176 323 287 179 c 128,-1,14
 398 35 398 35 610 35 c 0,15,16
 715 35 715 35 824 75.5 c 128,-1,17
 933 116 933 116 1029 192 c 1,18,-1
 1047 187 l 1,19,-1
 1036 145 l 1,20,21
 840 5 840 5 651 -9 c 1,22,-1
 614 -129 l 1,23,-1
 686 -176 l 1,24,25
 727 -201 727 -201 745.5 -228 c 128,-1,26
 764 -255 764 -255 764 -292 c 0,27,28
 764 -348 764 -348 723 -382 c 128,-1,29
 682 -416 682 -416 624 -416 c 0,30,31
 591 -416 591 -416 562 -403.5 c 128,-1,32
 533 -391 533 -391 515.5 -374.5 c 128,-1,33
 498 -358 498 -358 486 -339 c 1,34,-1
 499 -296 l 1,35,-1
 508 -296 l 1,36,37
 533 -333 533 -333 558.5 -351 c 128,-1,38
 584 -369 584 -369 624 -369 c 0,39,40
 666 -369 666 -369 691.5 -348.5 c 128,-1,41
 717 -328 717 -328 717 -292 c 0,42,43
 717 -266 717 -266 704 -250 c 128,-1,44
 691 -234 691 -234 661 -214 c 2,45,-1
 561 -149 l 1,46,-1
 604 -11 l 1,47,48
 373 -10 373 -10 251 144.5 c 128,-1,49
 129 299 129 299 129 586 c 0,50,51
 129 868 129 868 209.5 1072.5 c 128,-1,52
 290 1277 290 1277 445.5 1387 c 128,-1,53
 601 1497 601 1497 817 1497 c 0,0,1
EndSplineSet
Position2: "'cpsp' Capital Spacing lookup 0 subtable" dx=16 dy=0 dh=33 dv=0
EndChar

StartChar: Egrave
Encoding: 200 200 138
Width: 1007
GlyphClass: 2
Flags: W
AnchorPoint: "Anchor-1" 583 0 basechar 0
AnchorPoint: "Anchor-0" 726 1487 basechar 0
LayerCount: 2
Fore
SplineSet
969 1697 m 1,0,-1
 958 1691 l 1,1,2
 704 1818 704 1818 551 1907 c 1,3,-1
 546 1919 l 1,4,-1
 563 1947 l 1,5,-1
 575 1952 l 1,6,7
 774 1834 774 1834 985 1733 c 1,8,-1
 969 1697 l 1,0,-1
416 1441 m 1,9,-1
 334 793 l 1,10,-1
 855 793 l 1,11,-1
 862 784 l 1,12,-1
 847 747 l 1,13,-1
 329 747 l 1,14,-1
 292 455 l 1,15,-1
 241 47 l 1,16,-1
 878 47 l 1,17,-1
 885 38 l 1,18,-1
 871 0 l 1,19,-1
 187 0 l 1,20,-1
 245 455 l 1,21,-1
 374 1488 l 1,22,-1
 1053 1488 l 1,23,-1
 1058 1477 l 1,24,-1
 1043 1441 l 1,25,-1
 416 1441 l 1,9,-1
EndSplineSet
Position2: "'cpsp' Capital Spacing lookup 0 subtable" dx=16 dy=0 dh=33 dv=0
EndChar

StartChar: Eacute
Encoding: 201 201 139
Width: 1007
GlyphClass: 2
Flags: W
AnchorPoint: "Anchor-1" 583 0 basechar 0
AnchorPoint: "Anchor-0" 726 1487 basechar 0
LayerCount: 2
Fore
SplineSet
588 1697 m 1,0,-1
 572 1733 l 1,1,2
 784 1834 784 1834 983 1952 c 1,3,-1
 994 1947 l 1,4,-1
 1011 1919 l 1,5,-1
 1007 1907 l 1,6,7
 853 1818 853 1818 600 1691 c 1,8,-1
 588 1697 l 1,0,-1
416 1441 m 1,9,-1
 334 793 l 1,10,-1
 855 793 l 1,11,-1
 862 784 l 1,12,-1
 847 747 l 1,13,-1
 329 747 l 1,14,-1
 292 455 l 1,15,-1
 241 47 l 1,16,-1
 878 47 l 1,17,-1
 885 38 l 1,18,-1
 871 0 l 1,19,-1
 187 0 l 1,20,-1
 245 455 l 1,21,-1
 374 1488 l 1,22,-1
 1053 1488 l 1,23,-1
 1058 1477 l 1,24,-1
 1043 1441 l 1,25,-1
 416 1441 l 1,9,-1
EndSplineSet
Position2: "'cpsp' Capital Spacing lookup 0 subtable" dx=16 dy=0 dh=33 dv=0
EndChar

StartChar: Ecircumflex
Encoding: 202 202 140
Width: 1007
GlyphClass: 2
Flags: W
AnchorPoint: "Anchor-1" 583 0 basechar 0
AnchorPoint: "Anchor-0" 726 1487 basechar 0
LayerCount: 2
Fore
SplineSet
530 1718 m 1,0,-1
 519 1751 l 1,1,2
 603 1805 603 1805 766 1929 c 1,3,-1
 804 1929 l 1,4,5
 946 1806 946 1806 1016 1751 c 1,6,-1
 996 1718 l 1,7,-1
 985 1718 l 1,8,9
 894 1785 894 1785 782 1882 c 1,10,11
 649 1786 649 1786 542 1718 c 1,12,-1
 530 1718 l 1,0,-1
416 1441 m 1,13,-1
 334 793 l 1,14,-1
 855 793 l 1,15,-1
 862 784 l 1,16,-1
 847 747 l 1,17,-1
 329 747 l 1,18,-1
 292 455 l 1,19,-1
 241 47 l 1,20,-1
 878 47 l 1,21,-1
 885 38 l 1,22,-1
 871 0 l 1,23,-1
 187 0 l 1,24,-1
 245 455 l 1,25,-1
 374 1488 l 1,26,-1
 1053 1488 l 1,27,-1
 1058 1477 l 1,28,-1
 1043 1441 l 1,29,-1
 416 1441 l 1,13,-1
EndSplineSet
Position2: "'cpsp' Capital Spacing lookup 0 subtable" dx=16 dy=0 dh=33 dv=0
EndChar

StartChar: Edieresis
Encoding: 203 203 141
Width: 1007
GlyphClass: 2
Flags: W
AnchorPoint: "Anchor-1" 583 0 basechar 0
AnchorPoint: "Anchor-0" 726 1487 basechar 0
LayerCount: 2
Fore
SplineSet
593 1777 m 0,0,1
 571 1777 571 1777 558.5 1789.5 c 128,-1,2
 546 1802 546 1802 546 1823 c 128,-1,3
 546 1844 546 1844 558.5 1857 c 128,-1,4
 571 1870 571 1870 592.5 1870 c 128,-1,5
 614 1870 614 1870 627 1857 c 128,-1,6
 640 1844 640 1844 640 1823 c 0,7,8
 640 1812 640 1812 636.5 1803.5 c 128,-1,9
 633 1795 633 1795 627 1789.5 c 128,-1,10
 621 1784 621 1784 612 1780.5 c 128,-1,11
 603 1777 603 1777 593 1777 c 0,0,1
942.5 1777 m 128,-1,13
 921 1777 921 1777 908.5 1789.5 c 128,-1,14
 896 1802 896 1802 896 1823 c 128,-1,15
 896 1844 896 1844 908.5 1857 c 128,-1,16
 921 1870 921 1870 942.5 1870 c 128,-1,17
 964 1870 964 1870 977 1857 c 128,-1,18
 990 1844 990 1844 990 1823 c 128,-1,19
 990 1802 990 1802 977 1789.5 c 128,-1,12
 964 1777 964 1777 942.5 1777 c 128,-1,13
416 1441 m 1,20,-1
 334 793 l 1,21,-1
 855 793 l 1,22,-1
 862 784 l 1,23,-1
 847 747 l 1,24,-1
 329 747 l 1,25,-1
 292 455 l 1,26,-1
 241 47 l 1,27,-1
 878 47 l 1,28,-1
 885 38 l 1,29,-1
 871 0 l 1,30,-1
 187 0 l 1,31,-1
 245 455 l 1,32,-1
 374 1488 l 1,33,-1
 1053 1488 l 1,34,-1
 1058 1477 l 1,35,-1
 1043 1441 l 1,36,-1
 416 1441 l 1,20,-1
EndSplineSet
Position2: "'cpsp' Capital Spacing lookup 0 subtable" dx=16 dy=0 dh=33 dv=0
EndChar

StartChar: Igrave
Encoding: 204 204 142
Width: 548
GlyphClass: 2
Flags: W
AnchorPoint: "Anchor-1" 0 0 basechar 0
AnchorPoint: "Anchor-0" 392 1487 basechar 0
LayerCount: 2
Fore
SplineSet
229 1947 m 1,0,-1
 241 1952 l 1,1,2
 440 1834 440 1834 651 1733 c 1,3,-1
 635 1697 l 1,4,-1
 624 1691 l 1,5,6
 370 1818 370 1818 217 1907 c 1,7,-1
 212 1919 l 1,8,-1
 229 1947 l 1,0,-1
292 455 m 1,9,-1
 234 0 l 1,10,-1
 187 0 l 1,11,-1
 245 455 l 1,12,-1
 374 1488 l 1,13,-1
 421 1488 l 1,14,-1
 292 455 l 1,9,-1
EndSplineSet
Position2: "'cpsp' Capital Spacing lookup 0 subtable" dx=16 dy=0 dh=33 dv=0
EndChar

StartChar: Iacute
Encoding: 205 205 143
Width: 548
GlyphClass: 2
Flags: W
AnchorPoint: "Anchor-1" 0 0 basechar 0
AnchorPoint: "Anchor-0" 392 1487 basechar 0
LayerCount: 2
Fore
SplineSet
661 1947 m 1,0,-1
 677 1919 l 1,1,-1
 673 1907 l 1,2,3
 519 1818 519 1818 266 1691 c 1,4,-1
 254 1697 l 1,5,-1
 238 1733 l 1,6,7
 450 1834 450 1834 649 1952 c 1,8,-1
 661 1947 l 1,0,-1
292 455 m 1,9,-1
 234 0 l 1,10,-1
 187 0 l 1,11,-1
 245 455 l 1,12,-1
 374 1488 l 1,13,-1
 421 1488 l 1,14,-1
 292 455 l 1,9,-1
EndSplineSet
Position2: "'cpsp' Capital Spacing lookup 0 subtable" dx=16 dy=0 dh=33 dv=0
EndChar

StartChar: Icircumflex
Encoding: 206 206 144
Width: 548
GlyphClass: 2
Flags: W
AnchorPoint: "Anchor-1" 0 0 basechar 0
AnchorPoint: "Anchor-0" 392 1487 basechar 0
LayerCount: 2
Fore
SplineSet
196 1718 m 1,0,-1
 185 1751 l 1,1,2
 269 1805 269 1805 432 1929 c 1,3,-1
 470 1929 l 1,4,5
 612 1806 612 1806 682 1751 c 1,6,-1
 663 1718 l 1,7,-1
 651 1718 l 1,8,9
 560 1785 560 1785 448 1882 c 1,10,11
 315 1786 315 1786 207 1718 c 1,12,-1
 196 1718 l 1,0,-1
292 455 m 1,13,-1
 234 0 l 1,14,-1
 187 0 l 1,15,-1
 245 455 l 1,16,-1
 374 1488 l 1,17,-1
 421 1488 l 1,18,-1
 292 455 l 1,13,-1
EndSplineSet
Position2: "'cpsp' Capital Spacing lookup 0 subtable" dx=16 dy=0 dh=33 dv=0
EndChar

StartChar: Idieresis
Encoding: 207 207 145
Width: 548
GlyphClass: 2
Flags: W
AnchorPoint: "Anchor-1" 0 0 basechar 0
AnchorPoint: "Anchor-0" 392 1487 basechar 0
LayerCount: 2
Fore
SplineSet
314.5 1870 m 128,-1,1
 336 1870 336 1870 348.5 1857 c 128,-1,2
 361 1844 361 1844 361 1823 c 128,-1,3
 361 1802 361 1802 348.5 1789.5 c 128,-1,4
 336 1777 336 1777 314.5 1777 c 128,-1,5
 293 1777 293 1777 281 1789 c 128,-1,6
 269 1801 269 1801 269 1822.5 c 128,-1,7
 269 1844 269 1844 281 1857 c 128,-1,0
 293 1870 293 1870 314.5 1870 c 128,-1,1
553 1870 m 128,-1,9
 574 1870 574 1870 587 1857 c 128,-1,10
 600 1844 600 1844 600 1823 c 128,-1,11
 600 1802 600 1802 587 1789.5 c 128,-1,12
 574 1777 574 1777 552.5 1777 c 128,-1,13
 531 1777 531 1777 518.5 1789.5 c 128,-1,14
 506 1802 506 1802 506 1823 c 128,-1,15
 506 1844 506 1844 519 1857 c 128,-1,8
 532 1870 532 1870 553 1870 c 128,-1,9
292 455 m 1,16,-1
 234 0 l 1,17,-1
 187 0 l 1,18,-1
 245 455 l 1,19,-1
 374 1488 l 1,20,-1
 421 1488 l 1,21,-1
 292 455 l 1,16,-1
EndSplineSet
Ligature2: "'liga' Standard Ligatures lookup 30 subtable" dieresis I
Position2: "'cpsp' Capital Spacing lookup 0 subtable" dx=16 dy=0 dh=33 dv=0
EndChar

StartChar: Eth
Encoding: 208 208 146
Width: 1470
GlyphClass: 2
Flags: W
AnchorPoint: "Anchor-1" 0 0 basechar 0
AnchorPoint: "Anchor-0" 826 1487 basechar 0
LayerCount: 2
Fore
SplineSet
421 1488 m 1,0,-1
 864 1499 l 1,1,2
 1036 1499 1036 1499 1156 1431 c 128,-1,3
 1276 1363 1276 1363 1337.5 1233 c 128,-1,4
 1399 1103 1399 1103 1399 918 c 0,5,6
 1399 635 1399 635 1312 426.5 c 128,-1,7
 1225 218 1225 218 1056 103.5 c 128,-1,8
 887 -11 887 -11 653 -11 c 0,9,10
 609 -11 609 -11 456.5 -7 c 128,-1,11
 304 -3 304 -3 234 0 c 1,12,-1
 292 455 l 1,13,-1
 327 744 l 1,14,-1
 75 744 l 1,15,-1
 72 751 l 1,16,-1
 78 791 l 1,17,-1
 334 791 l 1,18,-1
 421 1488 l 1,0,-1
661 35 m 0,19,20
 877 35 877 35 1033 143 c 128,-1,21
 1189 251 1189 251 1269.5 448 c 128,-1,22
 1350 645 1350 645 1350 911 c 0,23,24
 1350 1171 1350 1171 1224 1311.5 c 128,-1,25
 1098 1452 1098 1452 860 1452 c 0,26,27
 836 1452 836 1452 757.5 1450.5 c 128,-1,28
 679 1449 679 1449 591 1446 c 128,-1,29
 503 1443 503 1443 463 1441 c 1,30,-1
 381 791 l 1,31,-1
 800 791 l 1,32,-1
 806 784 l 1,33,-1
 798 744 l 1,34,-1
 374 744 l 1,35,-1
 339 455 l 1,36,-1
 285 44 l 1,37,38
 318 44 318 44 408 41.5 c 128,-1,39
 498 39 498 39 568 37 c 128,-1,40
 638 35 638 35 661 35 c 0,19,20
EndSplineSet
Position2: "'cpsp' Capital Spacing lookup 0 subtable" dx=16 dy=0 dh=33 dv=0
EndChar

StartChar: Ntilde
Encoding: 209 209 147
Width: 1493
GlyphClass: 2
Flags: W
AnchorPoint: "Anchor-1" 684 0 basechar 0
AnchorPoint: "Anchor-0" 866 1487 basechar 0
LayerCount: 2
Fore
SplineSet
1232 1880 m 1,0,-1
 1232 1870 l 1,1,-1
 1112 1760 l 1,2,-1
 1098 1756 l 1,3,4
 1055 1760 1055 1760 908.5 1802.5 c 128,-1,5
 762 1845 762 1845 733 1845 c 0,6,7
 725 1845 725 1845 717 1840.5 c 128,-1,8
 709 1836 709 1836 698 1826.5 c 128,-1,9
 687 1817 687 1817 676.5 1807 c 128,-1,10
 666 1797 666 1797 648 1780 c 128,-1,11
 630 1763 630 1763 614 1749 c 1,12,-1
 604 1749 l 1,13,-1
 584 1774 l 1,14,-1
 584 1784 l 1,15,-1
 705 1894 l 1,16,-1
 719 1898 l 1,17,18
 762 1894 762 1894 908 1851.5 c 128,-1,19
 1054 1809 1054 1809 1083 1809 c 0,20,21
 1088 1809 1088 1809 1093.5 1811 c 128,-1,22
 1099 1813 1099 1813 1104 1816 c 128,-1,23
 1109 1819 1109 1819 1116 1824.5 c 128,-1,24
 1123 1830 1123 1830 1129.5 1836 c 128,-1,25
 1136 1842 1136 1842 1144.5 1850 c 128,-1,26
 1153 1858 1153 1858 1161 1866 c 128,-1,27
 1169 1874 1169 1874 1180.5 1884.5 c 128,-1,28
 1192 1895 1192 1895 1203 1905 c 1,29,-1
 1212 1905 l 1,30,-1
 1232 1880 l 1,0,-1
1228 410 m 1,31,-1
 1174 0 l 1,32,-1
 1130 0 l 1,33,-1
 421 1390 l 1,34,-1
 410 1390 l 1,35,-1
 292 465 l 1,36,-1
 234 0 l 1,37,-1
 187 0 l 1,38,-1
 243 443 l 1,39,-1
 376 1488 l 1,40,-1
 421 1488 l 1,41,-1
 1130 98 l 1,42,-1
 1139 98 l 1,43,-1
 1319 1485 l 1,44,-1
 1366 1490 l 1,45,-1
 1228 410 l 1,31,-1
EndSplineSet
Position2: "'cpsp' Capital Spacing lookup 0 subtable" dx=16 dy=0 dh=33 dv=0
EndChar

StartChar: Ograve
Encoding: 210 210 148
Width: 1397
GlyphClass: 2
Flags: W
AnchorPoint: "Anchor-1" 0 0 basechar 0
AnchorPoint: "Anchor-0" 817 1487 basechar 0
LayerCount: 2
Fore
SplineSet
653 1947 m 1,0,-1
 666 1952 l 1,1,2
 865 1834 865 1834 1076 1733 c 1,3,-1
 1060 1697 l 1,4,-1
 1049 1691 l 1,5,6
 795 1818 795 1818 642 1907 c 1,7,-1
 637 1919 l 1,8,-1
 653 1947 l 1,0,-1
829 1499 m 0,9,10
 1071 1499 1071 1499 1198.5 1347 c 128,-1,11
 1326 1195 1326 1195 1326 913 c 0,12,13
 1326 628 1326 628 1244.5 420.5 c 128,-1,14
 1163 213 1163 213 1004 101 c 128,-1,15
 845 -11 845 -11 624 -11 c 0,16,17
 385 -11 385 -11 258 145.5 c 128,-1,18
 131 302 131 302 131 591 c 0,19,20
 131 872 131 872 212.5 1076.5 c 128,-1,21
 294 1281 294 1281 451.5 1390 c 128,-1,22
 609 1499 609 1499 829 1499 c 0,9,10
826 1452 m 0,23,24
 624 1452 624 1452 478 1349 c 128,-1,25
 332 1246 332 1246 256 1053.5 c 128,-1,26
 180 861 180 861 180 597 c 0,27,28
 180 328 180 328 295 181.5 c 128,-1,29
 410 35 410 35 626 35 c 0,30,31
 830 35 830 35 977 141.5 c 128,-1,32
 1124 248 1124 248 1200.5 443 c 128,-1,33
 1277 638 1277 638 1277 904 c 0,34,35
 1277 1169 1277 1169 1162 1310.5 c 128,-1,36
 1047 1452 1047 1452 826 1452 c 0,23,24
EndSplineSet
Position2: "'cpsp' Capital Spacing lookup 0 subtable" dx=16 dy=0 dh=33 dv=0
EndChar

StartChar: Oacute
Encoding: 211 211 149
Width: 1397
GlyphClass: 2
Flags: W
AnchorPoint: "Anchor-1" 0 0 basechar 0
AnchorPoint: "Anchor-0" 817 1487 basechar 0
LayerCount: 2
Fore
SplineSet
1085 1947 m 1,0,-1
 1102 1919 l 1,1,-1
 1098 1907 l 1,2,3
 944 1818 944 1818 691 1691 c 1,4,-1
 679 1697 l 1,5,-1
 663 1733 l 1,6,7
 875 1834 875 1834 1074 1952 c 1,8,-1
 1085 1947 l 1,0,-1
829 1499 m 0,9,10
 1071 1499 1071 1499 1198.5 1347 c 128,-1,11
 1326 1195 1326 1195 1326 913 c 0,12,13
 1326 628 1326 628 1244.5 420.5 c 128,-1,14
 1163 213 1163 213 1004 101 c 128,-1,15
 845 -11 845 -11 624 -11 c 0,16,17
 385 -11 385 -11 258 145.5 c 128,-1,18
 131 302 131 302 131 591 c 0,19,20
 131 872 131 872 212.5 1076.5 c 128,-1,21
 294 1281 294 1281 451.5 1390 c 128,-1,22
 609 1499 609 1499 829 1499 c 0,9,10
826 1452 m 0,23,24
 624 1452 624 1452 478 1349 c 128,-1,25
 332 1246 332 1246 256 1053.5 c 128,-1,26
 180 861 180 861 180 597 c 0,27,28
 180 328 180 328 295 181.5 c 128,-1,29
 410 35 410 35 626 35 c 0,30,31
 830 35 830 35 977 141.5 c 128,-1,32
 1124 248 1124 248 1200.5 443 c 128,-1,33
 1277 638 1277 638 1277 904 c 0,34,35
 1277 1169 1277 1169 1162 1310.5 c 128,-1,36
 1047 1452 1047 1452 826 1452 c 0,23,24
EndSplineSet
Position2: "'cpsp' Capital Spacing lookup 0 subtable" dx=16 dy=0 dh=33 dv=0
EndChar

StartChar: Ocircumflex
Encoding: 212 212 150
Width: 1397
GlyphClass: 2
Flags: W
AnchorPoint: "Anchor-1" 0 0 basechar 0
AnchorPoint: "Anchor-0" 817 1487 basechar 0
LayerCount: 2
Fore
SplineSet
621 1718 m 1,0,-1
 610 1751 l 1,1,2
 694 1805 694 1805 857 1929 c 1,3,-1
 894 1929 l 1,4,5
 1026 1814 1026 1814 1107 1751 c 1,6,-1
 1088 1718 l 1,7,-1
 1076 1718 l 1,8,9
 986 1785 986 1785 873 1882 c 1,10,11
 740 1786 740 1786 633 1718 c 1,12,-1
 621 1718 l 1,0,-1
829 1499 m 0,13,14
 1071 1499 1071 1499 1198.5 1347 c 128,-1,15
 1326 1195 1326 1195 1326 913 c 0,16,17
 1326 628 1326 628 1244.5 420.5 c 128,-1,18
 1163 213 1163 213 1004 101 c 128,-1,19
 845 -11 845 -11 624 -11 c 0,20,21
 385 -11 385 -11 258 145.5 c 128,-1,22
 131 302 131 302 131 591 c 0,23,24
 131 872 131 872 212.5 1076.5 c 128,-1,25
 294 1281 294 1281 451.5 1390 c 128,-1,26
 609 1499 609 1499 829 1499 c 0,13,14
826 1452 m 0,27,28
 624 1452 624 1452 478 1349 c 128,-1,29
 332 1246 332 1246 256 1053.5 c 128,-1,30
 180 861 180 861 180 597 c 0,31,32
 180 328 180 328 295 181.5 c 128,-1,33
 410 35 410 35 626 35 c 0,34,35
 830 35 830 35 977 141.5 c 128,-1,36
 1124 248 1124 248 1200.5 443 c 128,-1,37
 1277 638 1277 638 1277 904 c 0,38,39
 1277 1169 1277 1169 1162 1310.5 c 128,-1,40
 1047 1452 1047 1452 826 1452 c 0,27,28
EndSplineSet
Position2: "'cpsp' Capital Spacing lookup 0 subtable" dx=16 dy=0 dh=33 dv=0
EndChar

StartChar: Otilde
Encoding: 213 213 151
Width: 1397
GlyphClass: 2
Flags: W
AnchorPoint: "Anchor-1" 0 0 basechar 0
AnchorPoint: "Anchor-0" 817 1487 basechar 0
LayerCount: 2
Fore
SplineSet
1183 1880 m 1,0,-1
 1183 1870 l 1,1,-1
 1062 1760 l 1,2,-1
 1049 1756 l 1,3,4
 1006 1760 1006 1760 859.5 1802.5 c 128,-1,5
 713 1845 713 1845 684 1845 c 0,6,7
 678 1845 678 1845 670.5 1841.5 c 128,-1,8
 663 1838 663 1838 656 1832.5 c 128,-1,9
 649 1827 649 1827 638.5 1817.5 c 128,-1,10
 628 1808 628 1808 618.5 1798.5 c 128,-1,11
 609 1789 609 1789 594 1775 c 128,-1,12
 579 1761 579 1761 565 1749 c 1,13,-1
 555 1749 l 1,14,-1
 535 1774 l 1,15,-1
 535 1784 l 1,16,-1
 656 1894 l 1,17,-1
 670 1898 l 1,18,19
 713 1894 713 1894 859 1851.5 c 128,-1,20
 1005 1809 1005 1809 1034 1809 c 0,21,22
 1042 1809 1042 1809 1050.5 1813.5 c 128,-1,23
 1059 1818 1059 1818 1070 1827.5 c 128,-1,24
 1081 1837 1081 1837 1091.5 1847 c 128,-1,25
 1102 1857 1102 1857 1120 1874 c 128,-1,26
 1138 1891 1138 1891 1154 1905 c 1,27,-1
 1163 1905 l 1,28,-1
 1183 1880 l 1,0,-1
829 1499 m 0,29,30
 1071 1499 1071 1499 1198.5 1347 c 128,-1,31
 1326 1195 1326 1195 1326 913 c 0,32,33
 1326 628 1326 628 1244.5 420.5 c 128,-1,34
 1163 213 1163 213 1004 101 c 128,-1,35
 845 -11 845 -11 624 -11 c 0,36,37
 385 -11 385 -11 258 145.5 c 128,-1,38
 131 302 131 302 131 591 c 0,39,40
 131 872 131 872 212.5 1076.5 c 128,-1,41
 294 1281 294 1281 451.5 1390 c 128,-1,42
 609 1499 609 1499 829 1499 c 0,29,30
826 1452 m 0,43,44
 624 1452 624 1452 478 1349 c 128,-1,45
 332 1246 332 1246 256 1053.5 c 128,-1,46
 180 861 180 861 180 597 c 0,47,48
 180 328 180 328 295 181.5 c 128,-1,49
 410 35 410 35 626 35 c 0,50,51
 830 35 830 35 977 141.5 c 128,-1,52
 1124 248 1124 248 1200.5 443 c 128,-1,53
 1277 638 1277 638 1277 904 c 0,54,55
 1277 1169 1277 1169 1162 1310.5 c 128,-1,56
 1047 1452 1047 1452 826 1452 c 0,43,44
EndSplineSet
Position2: "'cpsp' Capital Spacing lookup 0 subtable" dx=16 dy=0 dh=33 dv=0
EndChar

StartChar: Odieresis
Encoding: 214 214 152
Width: 1397
GlyphClass: 2
Flags: W
AnchorPoint: "Anchor-1" 0 0 basechar 0
AnchorPoint: "Anchor-0" 817 1487 basechar 0
LayerCount: 2
Fore
SplineSet
684 1870 m 0,0,1
 698 1870 698 1870 708.5 1864 c 128,-1,2
 719 1858 719 1858 725 1847.5 c 128,-1,3
 731 1837 731 1837 731 1823 c 0,4,5
 731 1802 731 1802 718.5 1789.5 c 128,-1,6
 706 1777 706 1777 684 1777 c 128,-1,7
 662 1777 662 1777 649.5 1789.5 c 128,-1,8
 637 1802 637 1802 637 1823 c 128,-1,9
 637 1844 637 1844 650 1857 c 128,-1,10
 663 1870 663 1870 684 1870 c 0,0,1
1034 1870 m 128,-1,12
 1055 1870 1055 1870 1068 1857 c 128,-1,13
 1081 1844 1081 1844 1081 1823 c 128,-1,14
 1081 1802 1081 1802 1068 1789.5 c 128,-1,15
 1055 1777 1055 1777 1033.5 1777 c 128,-1,16
 1012 1777 1012 1777 999.5 1789.5 c 128,-1,17
 987 1802 987 1802 987 1823 c 128,-1,18
 987 1844 987 1844 1000 1857 c 128,-1,11
 1013 1870 1013 1870 1034 1870 c 128,-1,12
829 1499 m 0,19,20
 1071 1499 1071 1499 1198.5 1347 c 128,-1,21
 1326 1195 1326 1195 1326 913 c 0,22,23
 1326 628 1326 628 1244.5 420.5 c 128,-1,24
 1163 213 1163 213 1004 101 c 128,-1,25
 845 -11 845 -11 624 -11 c 0,26,27
 385 -11 385 -11 258 145.5 c 128,-1,28
 131 302 131 302 131 591 c 0,29,30
 131 872 131 872 212.5 1076.5 c 128,-1,31
 294 1281 294 1281 451.5 1390 c 128,-1,32
 609 1499 609 1499 829 1499 c 0,19,20
826 1452 m 0,33,34
 624 1452 624 1452 478 1349 c 128,-1,35
 332 1246 332 1246 256 1053.5 c 128,-1,36
 180 861 180 861 180 597 c 0,37,38
 180 328 180 328 295 181.5 c 128,-1,39
 410 35 410 35 626 35 c 0,40,41
 830 35 830 35 977 141.5 c 128,-1,42
 1124 248 1124 248 1200.5 443 c 128,-1,43
 1277 638 1277 638 1277 904 c 0,44,45
 1277 1169 1277 1169 1162 1310.5 c 128,-1,46
 1047 1452 1047 1452 826 1452 c 0,33,34
EndSplineSet
Ligature2: "'liga' Standard Ligatures lookup 30 subtable" dieresis O
Position2: "'cpsp' Capital Spacing lookup 0 subtable" dx=16 dy=0 dh=33 dv=0
EndChar

StartChar: multiply
Encoding: 215 215 153
Width: 1122
GlyphClass: 2
Flags: W
LayerCount: 2
Fore
SplineSet
958 951 m 1,0,-1
 955 940 l 1,1,-1
 606 630 l 1,2,-1
 878 320 l 1,3,-1
 878 310 l 1,4,-1
 845 285 l 1,5,-1
 570 597 l 1,6,-1
 220 285 l 1,7,-1
 192 310 l 1,8,-1
 192 320 l 1,9,-1
 542 630 l 1,10,-1
 269 940 l 1,11,-1
 271 951 l 1,12,-1
 303 976 l 1,13,-1
 577 663 l 1,14,-1
 929 976 l 1,15,-1
 958 951 l 1,0,-1
EndSplineSet
EndChar

StartChar: Oslash
Encoding: 216 216 154
Width: 1399
GlyphClass: 2
Flags: W
AnchorPoint: "Anchor-1" 0 0 basechar 0
AnchorPoint: "Anchor-0" 817 1487 basechar 0
LayerCount: 2
Fore
SplineSet
1272 1637 m 1,0,-1
 1141 1403 l 1,1,2
 1326 1254 1326 1254 1326 913 c 0,3,4
 1326 628 1326 628 1244.5 420.5 c 128,-1,5
 1163 213 1163 213 1004 101 c 128,-1,6
 845 -11 845 -11 624 -11 c 0,7,8
 478 -11 478 -11 378 44 c 1,9,-1
 238 -203 l 1,10,-1
 203 -196 l 1,11,-1
 198 -187 l 1,12,-1
 341 67 l 1,13,14
 238 139 238 139 184.5 272 c 128,-1,15
 131 405 131 405 131 591 c 0,16,17
 131 872 131 872 212.5 1076.5 c 128,-1,18
 294 1281 294 1281 451.5 1390 c 128,-1,19
 609 1499 609 1499 829 1499 c 0,20,21
 996 1499 996 1499 1105 1428 c 1,22,-1
 1232 1655 l 1,23,-1
 1270 1648 l 1,24,-1
 1272 1637 l 1,0,-1
180 597 m 0,25,26
 180 427 180 427 228 304 c 128,-1,27
 276 181 276 181 367 112 c 1,28,-1
 1081 1384 l 1,29,30
 977 1452 977 1452 826 1452 c 0,31,32
 624 1452 624 1452 478 1349 c 128,-1,33
 332 1246 332 1246 256 1053.5 c 128,-1,34
 180 861 180 861 180 597 c 0,25,26
626 35 m 0,35,36
 830 35 830 35 977 141.5 c 128,-1,37
 1124 248 1124 248 1200.5 443 c 128,-1,38
 1277 638 1277 638 1277 904 c 0,39,40
 1277 1222 1277 1222 1116 1359 c 1,41,-1
 401 89 l 1,42,43
 496 35 496 35 626 35 c 0,35,36
EndSplineSet
Position2: "'cpsp' Capital Spacing lookup 0 subtable" dx=16 dy=0 dh=33 dv=0
EndChar

StartChar: Ugrave
Encoding: 217 217 155
Width: 1360
GlyphClass: 2
Flags: W
AnchorPoint: "Anchor-1" 0 0 basechar 0
AnchorPoint: "Anchor-0" 798 1487 basechar 0
LayerCount: 2
Fore
SplineSet
635 1947 m 1,0,-1
 646 1952 l 1,1,2
 841 1836 841 1836 1058 1733 c 1,3,-1
 1041 1697 l 1,4,-1
 1029 1691 l 1,5,6
 785 1814 785 1814 624 1907 c 1,7,-1
 619 1919 l 1,8,-1
 635 1947 l 1,0,-1
1190 728 m 1,9,-1
 1167 535 l 1,10,11
 1141 277 1141 277 998 134 c 128,-1,12
 855 -9 855 -9 621 -9 c 0,13,14
 414 -9 414 -9 301.5 99.5 c 128,-1,15
 189 208 189 208 189 410 c 0,16,17
 189 478 189 478 198 535 c 2,18,-1
 229 751 l 1,19,-1
 323 1488 l 1,20,-1
 369 1488 l 1,21,-1
 245 535 l 1,22,23
 236 455 236 455 236 421 c 0,24,25
 236 235 236 235 334.5 136.5 c 128,-1,26
 433 38 433 38 619 38 c 0,27,28
 831 38 831 38 960 166 c 128,-1,29
 1089 294 1089 294 1121 535 c 1,30,-1
 1239 1488 l 1,31,-1
 1286 1488 l 1,32,-1
 1190 728 l 1,9,-1
EndSplineSet
Position2: "'cpsp' Capital Spacing lookup 0 subtable" dx=16 dy=0 dh=33 dv=0
EndChar

StartChar: Uacute
Encoding: 218 218 156
Width: 1360
GlyphClass: 2
Flags: W
AnchorPoint: "Anchor-1" 0 0 basechar 0
AnchorPoint: "Anchor-0" 798 1487 basechar 0
LayerCount: 2
Fore
SplineSet
1067 1947 m 1,0,-1
 1083 1919 l 1,1,-1
 1078 1907 l 1,2,3
 917 1814 917 1814 673 1691 c 1,4,-1
 661 1697 l 1,5,-1
 644 1733 l 1,6,7
 861 1836 861 1836 1056 1952 c 1,8,-1
 1067 1947 l 1,0,-1
1190 728 m 1,9,-1
 1167 535 l 1,10,11
 1141 277 1141 277 998 134 c 128,-1,12
 855 -9 855 -9 621 -9 c 0,13,14
 414 -9 414 -9 301.5 99.5 c 128,-1,15
 189 208 189 208 189 410 c 0,16,17
 189 478 189 478 198 535 c 2,18,-1
 229 751 l 1,19,-1
 323 1488 l 1,20,-1
 369 1488 l 1,21,-1
 245 535 l 1,22,23
 236 455 236 455 236 421 c 0,24,25
 236 235 236 235 334.5 136.5 c 128,-1,26
 433 38 433 38 619 38 c 0,27,28
 831 38 831 38 960 166 c 128,-1,29
 1089 294 1089 294 1121 535 c 1,30,-1
 1239 1488 l 1,31,-1
 1286 1488 l 1,32,-1
 1190 728 l 1,9,-1
EndSplineSet
Position2: "'cpsp' Capital Spacing lookup 0 subtable" dx=16 dy=0 dh=33 dv=0
EndChar

StartChar: Ucircumflex
Encoding: 219 219 157
Width: 1360
GlyphClass: 2
Flags: W
AnchorPoint: "Anchor-1" 0 0 basechar 0
AnchorPoint: "Anchor-0" 798 1487 basechar 0
LayerCount: 2
Fore
SplineSet
602 1718 m 1,0,-1
 591 1751 l 1,1,2
 675 1805 675 1805 838 1929 c 1,3,-1
 876 1929 l 1,4,5
 1017 1806 1017 1806 1088 1751 c 1,6,-1
 1069 1718 l 1,7,-1
 1058 1718 l 1,8,9
 967 1785 967 1785 855 1882 c 1,10,11
 722 1786 722 1786 614 1718 c 1,12,-1
 602 1718 l 1,0,-1
1190 728 m 1,13,-1
 1167 535 l 1,14,15
 1141 277 1141 277 998 134 c 128,-1,16
 855 -9 855 -9 621 -9 c 0,17,18
 414 -9 414 -9 301.5 99.5 c 128,-1,19
 189 208 189 208 189 410 c 0,20,21
 189 478 189 478 198 535 c 2,22,-1
 229 751 l 1,23,-1
 323 1488 l 1,24,-1
 369 1488 l 1,25,-1
 245 535 l 1,26,27
 236 455 236 455 236 421 c 0,28,29
 236 235 236 235 334.5 136.5 c 128,-1,30
 433 38 433 38 619 38 c 0,31,32
 831 38 831 38 960 166 c 128,-1,33
 1089 294 1089 294 1121 535 c 1,34,-1
 1239 1488 l 1,35,-1
 1286 1488 l 1,36,-1
 1190 728 l 1,13,-1
EndSplineSet
Position2: "'cpsp' Capital Spacing lookup 0 subtable" dx=16 dy=0 dh=33 dv=0
EndChar

StartChar: Udieresis
Encoding: 220 220 158
Width: 1360
GlyphClass: 2
Flags: W
AnchorPoint: "Anchor-1" 0 0 basechar 0
AnchorPoint: "Anchor-0" 798 1487 basechar 0
LayerCount: 2
Fore
SplineSet
666 1870 m 0,0,1
 680 1870 680 1870 690.5 1864 c 128,-1,2
 701 1858 701 1858 706.5 1847.5 c 128,-1,3
 712 1837 712 1837 712 1823 c 128,-1,4
 712 1809 712 1809 706.5 1798.5 c 128,-1,5
 701 1788 701 1788 690.5 1782.5 c 128,-1,6
 680 1777 680 1777 666 1777 c 0,7,8
 644 1777 644 1777 631.5 1789.5 c 128,-1,9
 619 1802 619 1802 619 1823 c 128,-1,10
 619 1844 619 1844 631.5 1857 c 128,-1,11
 644 1870 644 1870 666 1870 c 0,0,1
1015.5 1870 m 128,-1,13
 1037 1870 1037 1870 1049.5 1857 c 128,-1,14
 1062 1844 1062 1844 1062 1823 c 128,-1,15
 1062 1802 1062 1802 1049.5 1789.5 c 128,-1,16
 1037 1777 1037 1777 1015.5 1777 c 128,-1,17
 994 1777 994 1777 981.5 1789.5 c 128,-1,18
 969 1802 969 1802 969 1823 c 128,-1,19
 969 1844 969 1844 981.5 1857 c 128,-1,12
 994 1870 994 1870 1015.5 1870 c 128,-1,13
1190 728 m 1,20,-1
 1167 535 l 1,21,22
 1141 277 1141 277 998 134 c 128,-1,23
 855 -9 855 -9 621 -9 c 0,24,25
 414 -9 414 -9 301.5 99.5 c 128,-1,26
 189 208 189 208 189 410 c 0,27,28
 189 478 189 478 198 535 c 2,29,-1
 229 751 l 1,30,-1
 323 1488 l 1,31,-1
 369 1488 l 1,32,-1
 245 535 l 1,33,34
 236 455 236 455 236 421 c 0,35,36
 236 235 236 235 334.5 136.5 c 128,-1,37
 433 38 433 38 619 38 c 0,38,39
 831 38 831 38 960 166 c 128,-1,40
 1089 294 1089 294 1121 535 c 1,41,-1
 1239 1488 l 1,42,-1
 1286 1488 l 1,43,-1
 1190 728 l 1,20,-1
EndSplineSet
Position2: "'cpsp' Capital Spacing lookup 0 subtable" dx=16 dy=0 dh=33 dv=0
EndChar

StartChar: Yacute
Encoding: 221 221 159
Width: 1094
GlyphClass: 2
Flags: W
AnchorPoint: "Anchor-1" 0 0 basechar 0
AnchorPoint: "Anchor-0" 665 1487 basechar 0
LayerCount: 2
Fore
SplineSet
528 1697 m 1,0,-1
 512 1733 l 1,1,2
 723 1834 723 1834 922 1952 c 1,3,-1
 934 1947 l 1,4,-1
 951 1919 l 1,5,-1
 945 1907 l 1,6,7
 784 1814 784 1814 539 1691 c 1,8,-1
 528 1697 l 1,0,-1
555 577 m 1,9,-1
 539 455 l 1,10,-1
 483 0 l 1,11,-1
 437 0 l 1,12,-1
 492 455 l 1,13,-1
 508 572 l 1,14,-1
 180 1488 l 1,15,-1
 238 1488 l 1,16,-1
 254 1426 l 1,17,-1
 535 646 l 1,18,-1
 546 646 l 1,19,-1
 1056 1426 l 1,20,-1
 1088 1488 l 1,21,-1
 1149 1488 l 1,22,-1
 555 577 l 1,9,-1
EndSplineSet
Ligature2: "'liga' Standard Ligatures lookup 30 subtable" acute Y
Position2: "'cpsp' Capital Spacing lookup 0 subtable" dx=16 dy=0 dh=33 dv=0
EndChar

StartChar: Thorn
Encoding: 222 222 160
Width: 1089
GlyphClass: 2
Flags: W
LayerCount: 2
Fore
SplineSet
385 1200 m 1,0,-1
 649 1205 l 1,1,2
 820 1205 820 1205 911 1114 c 128,-1,3
 1002 1023 1002 1023 1002 855 c 0,4,5
 1002 680 1002 680 940 554.5 c 128,-1,6
 878 429 878 429 757 361.5 c 128,-1,7
 636 294 636 294 465 294 c 2,8,-1
 271 294 l 1,9,-1
 234 0 l 1,10,-1
 187 0 l 1,11,-1
 245 455 l 1,12,-1
 374 1488 l 1,13,-1
 421 1488 l 1,14,-1
 385 1200 l 1,0,-1
278 341 m 1,15,-1
 539 341 l 1,16,17
 733 360 733 360 844 496.5 c 128,-1,18
 955 633 955 633 955 845 c 0,19,20
 955 989 955 989 879.5 1070 c 128,-1,21
 804 1151 804 1151 661 1158 c 1,22,-1
 378 1156 l 1,23,-1
 292 455 l 1,24,-1
 278 341 l 1,15,-1
EndSplineSet
Position2: "'cpsp' Capital Spacing lookup 0 subtable" dx=16 dy=0 dh=33 dv=0
EndChar

StartChar: germandbls
Encoding: 223 223 161
Width: 1203
GlyphClass: 2
Flags: W
LayerCount: 2
Fore
SplineSet
726 829 m 0,0,1
 726 786 726 786 741 747 c 128,-1,2
 756 708 756 708 781 678.5 c 128,-1,3
 806 649 806 649 837.5 618 c 128,-1,4
 869 587 869 587 902 561 c 128,-1,5
 935 535 935 535 967 503 c 128,-1,6
 999 471 999 471 1023.5 439 c 128,-1,7
 1048 407 1048 407 1063 365 c 128,-1,8
 1078 323 1078 323 1078 276 c 0,9,10
 1078 153 1078 153 981.5 70.5 c 128,-1,11
 885 -12 885 -12 735 -14 c 1,12,13
 622 1 622 1 535 65 c 1,14,-1
 539 107 l 1,15,-1
 555 116 l 1,16,17
 649 35 649 35 764 35 c 128,-1,18
 879 35 879 35 954 104.5 c 128,-1,19
 1029 174 1029 174 1029 274 c 0,20,21
 1029 321 1029 321 1010 363.5 c 128,-1,22
 991 406 991 406 960 438.5 c 128,-1,23
 929 471 929 471 891.5 502.5 c 128,-1,24
 854 534 854 534 817 567 c 128,-1,25
 780 600 780 600 749 636 c 128,-1,26
 718 672 718 672 698.5 720.5 c 128,-1,27
 679 769 679 769 679 824 c 256,28,29
 679 879 679 879 698 926 c 128,-1,30
 717 973 717 973 747 1007.5 c 128,-1,31
 777 1042 777 1042 813.5 1074.5 c 128,-1,32
 850 1107 850 1107 886.5 1139.5 c 128,-1,33
 923 1172 923 1172 953 1206.5 c 128,-1,34
 983 1241 983 1241 1001.5 1287.5 c 128,-1,35
 1020 1334 1020 1334 1020 1387 c 0,36,37
 1020 1494 1020 1494 948 1545.5 c 128,-1,38
 876 1597 876 1597 757 1597 c 0,39,40
 609 1597 609 1597 524 1515 c 128,-1,41
 439 1433 439 1433 421 1294 c 2,42,-1
 312 448 l 1,43,-1
 250 -56 l 1,44,-1
 229 -303 l 1,45,-1
 171 -312 l 1,46,-1
 266 443 l 1,47,-1
 336 1002 l 1,48,-1
 176 1002 l 1,49,-1
 165 1011 l 1,50,-1
 176 1049 l 1,51,-1
 343 1049 l 1,52,-1
 374 1294 l 2,53,54
 395 1461 395 1461 495 1552.5 c 128,-1,55
 595 1644 595 1644 759 1644 c 0,56,57
 804 1644 804 1644 843 1637.5 c 128,-1,58
 882 1631 882 1631 917 1618 c 128,-1,59
 952 1605 952 1605 979 1584.5 c 128,-1,60
 1006 1564 1006 1564 1026 1536.5 c 128,-1,61
 1046 1509 1046 1509 1056.5 1472.5 c 128,-1,62
 1067 1436 1067 1436 1067 1392 c 0,63,64
 1067 1333 1067 1333 1048 1282 c 128,-1,65
 1029 1231 1029 1231 999 1194 c 128,-1,66
 969 1157 969 1157 933 1123 c 128,-1,67
 897 1089 897 1089 860.5 1057 c 128,-1,68
 824 1025 824 1025 794 992.5 c 128,-1,69
 764 960 764 960 745 918 c 128,-1,70
 726 876 726 876 726 829 c 0,0,1
EndSplineSet
Substitution2: "Single Substitution lookup 41 subtable" germandbls.calt
Substitution2: "'case' Case-Sensitive Forms lookup 28 subtable" Germandbls
Substitution2: "'aalt' Access All Alternates lookup 0 subtable" Germandbls
EndChar

StartChar: agrave
Encoding: 224 224 162
Width: 984
GlyphClass: 2
Flags: W
AnchorPoint: "Anchor-1" 0 0 basechar 0
AnchorPoint: "Anchor-0" 588 1055 basechar 0
LayerCount: 2
Fore
SplineSet
768 1212 m 1,0,-1
 757 1210 l 1,1,2
 573 1372 573 1372 421 1524 c 1,3,-1
 418 1537 l 1,4,-1
 441 1560 l 1,5,-1
 453 1562 l 1,6,7
 627 1384 627 1384 793 1243 c 1,8,-1
 768 1212 l 1,0,-1
838 1065 m 1,9,-1
 731 247 l 1,10,-1
 710 0 l 1,11,-1
 651 -9 l 1,12,-1
 735 633 l 1,13,-1
 726 633 l 1,14,15
 657 502 657 502 579.5 384 c 128,-1,16
 502 266 502 266 419 165.5 c 128,-1,17
 336 65 336 65 254 -9 c 1,18,-1
 229 -9 l 1,19,20
 165 38 165 38 136 112 c 128,-1,21
 107 186 107 186 107 320 c 0,22,23
 107 438 107 438 129 546 c 128,-1,24
 151 654 151 654 195.5 746 c 128,-1,25
 240 838 240 838 303 907 c 128,-1,26
 366 976 366 976 451.5 1018 c 128,-1,27
 537 1060 537 1060 637 1067 c 1,28,-1
 646 1067 l 1,29,-1
 798 1056 l 1,30,-1
 826 1072 l 1,31,-1
 838 1065 l 1,9,-1
247 56 m 0,32,33
 257 56 257 56 289.5 86 c 128,-1,34
 322 116 322 116 374.5 179 c 128,-1,35
 427 242 427 242 486.5 325 c 128,-1,36
 546 408 546 408 618 528 c 128,-1,37
 690 648 690 648 755 777 c 1,38,-1
 764 845 l 1,39,-1
 780 1009 l 1,40,-1
 642 1020 l 1,41,42
 552 1018 552 1018 474 980 c 128,-1,43
 396 942 396 942 338 876.5 c 128,-1,44
 280 811 280 811 238 724 c 128,-1,45
 196 637 196 637 175 536.5 c 128,-1,46
 154 436 154 436 154 329 c 0,47,48
 154 270 154 270 161 221.5 c 128,-1,49
 168 173 168 173 178.5 143 c 128,-1,50
 189 113 189 113 202 92.5 c 128,-1,51
 215 72 215 72 226.5 64 c 128,-1,52
 238 56 238 56 247 56 c 0,32,33
EndSplineSet
Substitution2: "'case' Case-Sensitive Forms lookup 28 subtable" Agrave
Substitution2: "'aalt' Access All Alternates lookup 0 subtable" Agrave
EndChar

StartChar: aacute
Encoding: 225 225 163
Width: 984
GlyphClass: 2
Flags: W
AnchorPoint: "Anchor-1" 0 0 basechar 0
AnchorPoint: "Anchor-0" 588 1055 basechar 0
LayerCount: 2
Fore
SplineSet
474 1212 m 1,0,-1
 448 1243 l 1,1,2
 615 1384 615 1384 789 1562 c 1,3,-1
 800 1560 l 1,4,-1
 824 1537 l 1,5,-1
 822 1524 l 1,6,7
 670 1372 670 1372 486 1210 c 1,8,-1
 474 1212 l 1,0,-1
838 1065 m 1,9,-1
 731 247 l 1,10,-1
 710 0 l 1,11,-1
 651 -9 l 1,12,-1
 735 633 l 1,13,-1
 726 633 l 1,14,15
 657 502 657 502 579.5 384 c 128,-1,16
 502 266 502 266 419 165.5 c 128,-1,17
 336 65 336 65 254 -9 c 1,18,-1
 229 -9 l 1,19,20
 165 38 165 38 136 112 c 128,-1,21
 107 186 107 186 107 320 c 0,22,23
 107 438 107 438 129 546 c 128,-1,24
 151 654 151 654 195.5 746 c 128,-1,25
 240 838 240 838 303 907 c 128,-1,26
 366 976 366 976 451.5 1018 c 128,-1,27
 537 1060 537 1060 637 1067 c 1,28,-1
 646 1067 l 1,29,-1
 798 1056 l 1,30,-1
 826 1072 l 1,31,-1
 838 1065 l 1,9,-1
247 56 m 0,32,33
 257 56 257 56 289.5 86 c 128,-1,34
 322 116 322 116 374.5 179 c 128,-1,35
 427 242 427 242 486.5 325 c 128,-1,36
 546 408 546 408 618 528 c 128,-1,37
 690 648 690 648 755 777 c 1,38,-1
 764 845 l 1,39,-1
 780 1009 l 1,40,-1
 642 1020 l 1,41,42
 552 1018 552 1018 474 980 c 128,-1,43
 396 942 396 942 338 876.5 c 128,-1,44
 280 811 280 811 238 724 c 128,-1,45
 196 637 196 637 175 536.5 c 128,-1,46
 154 436 154 436 154 329 c 0,47,48
 154 270 154 270 161 221.5 c 128,-1,49
 168 173 168 173 178.5 143 c 128,-1,50
 189 113 189 113 202 92.5 c 128,-1,51
 215 72 215 72 226.5 64 c 128,-1,52
 238 56 238 56 247 56 c 0,32,33
EndSplineSet
Substitution2: "'case' Case-Sensitive Forms lookup 28 subtable" Aacute
Substitution2: "'aalt' Access All Alternates lookup 0 subtable" Aacute
EndChar

StartChar: acircumflex
Encoding: 226 226 164
Width: 984
GlyphClass: 2
Flags: W
AnchorPoint: "Anchor-1" 0 0 basechar 0
AnchorPoint: "Anchor-0" 588 1055 basechar 0
LayerCount: 2
Fore
SplineSet
640 1513 m 1,0,-1
 682 1513 l 1,1,2
 783 1346 783 1346 882 1219 c 1,3,-1
 857 1190 l 1,4,-1
 845 1190 l 1,5,6
 748 1316 748 1316 656 1464 c 1,7,8
 509 1298 509 1298 399 1190 c 1,9,-1
 388 1190 l 1,10,-1
 369 1219 l 1,11,12
 384 1233 384 1233 398 1247 c 128,-1,13
 412 1261 412 1261 428 1278 c 128,-1,14
 444 1295 444 1295 456 1307.5 c 128,-1,15
 468 1320 468 1320 486.5 1340.5 c 128,-1,16
 505 1361 505 1361 514.5 1371 c 128,-1,17
 524 1381 524 1381 545.5 1405.5 c 128,-1,18
 567 1430 567 1430 574.5 1439 c 128,-1,19
 582 1448 582 1448 607 1476.5 c 128,-1,20
 632 1505 632 1505 640 1513 c 1,0,-1
826 1072 m 1,21,-1
 838 1065 l 1,22,-1
 731 247 l 1,23,-1
 710 0 l 1,24,-1
 651 -9 l 1,25,-1
 735 633 l 1,26,-1
 726 633 l 1,27,28
 657 502 657 502 579.5 384 c 128,-1,29
 502 266 502 266 419 165.5 c 128,-1,30
 336 65 336 65 254 -9 c 1,31,-1
 229 -9 l 1,32,33
 165 38 165 38 136 112 c 128,-1,34
 107 186 107 186 107 320 c 0,35,36
 107 438 107 438 129 546 c 128,-1,37
 151 654 151 654 195.5 746 c 128,-1,38
 240 838 240 838 303 907 c 128,-1,39
 366 976 366 976 451.5 1018 c 128,-1,40
 537 1060 537 1060 637 1067 c 1,41,-1
 646 1067 l 1,42,-1
 798 1056 l 1,43,-1
 826 1072 l 1,21,-1
247 56 m 0,44,45
 257 56 257 56 289.5 86 c 128,-1,46
 322 116 322 116 374.5 179 c 128,-1,47
 427 242 427 242 486.5 325 c 128,-1,48
 546 408 546 408 618 528 c 128,-1,49
 690 648 690 648 755 777 c 1,50,-1
 764 845 l 1,51,-1
 780 1009 l 1,52,-1
 642 1020 l 1,53,54
 552 1018 552 1018 474 980 c 128,-1,55
 396 942 396 942 338 876.5 c 128,-1,56
 280 811 280 811 238 724 c 128,-1,57
 196 637 196 637 175 536.5 c 128,-1,58
 154 436 154 436 154 329 c 0,59,60
 154 270 154 270 161 221.5 c 128,-1,61
 168 173 168 173 178.5 143 c 128,-1,62
 189 113 189 113 202 92.5 c 128,-1,63
 215 72 215 72 226.5 64 c 128,-1,64
 238 56 238 56 247 56 c 0,44,45
EndSplineSet
Substitution2: "'case' Case-Sensitive Forms lookup 28 subtable" Acircumflex
Substitution2: "'aalt' Access All Alternates lookup 0 subtable" Acircumflex
EndChar

StartChar: atilde
Encoding: 227 227 165
Width: 984
GlyphClass: 2
Flags: W
AnchorPoint: "Anchor-1" 0 0 basechar 0
AnchorPoint: "Anchor-0" 588 1055 basechar 0
LayerCount: 2
Fore
SplineSet
955 1448 m 1,0,-1
 955 1439 l 1,1,-1
 833 1328 l 1,2,-1
 820 1324 l 1,3,4
 777 1328 777 1328 630.5 1370 c 128,-1,5
 484 1412 484 1412 455 1412 c 0,6,7
 446 1412 446 1412 433.5 1404.5 c 128,-1,8
 421 1397 421 1397 410 1386.5 c 128,-1,9
 399 1376 399 1376 376.5 1354.5 c 128,-1,10
 354 1333 354 1333 336 1317 c 1,11,-1
 327 1317 l 1,12,-1
 306 1343 l 1,13,-1
 306 1352 l 1,14,-1
 428 1461 l 1,15,-1
 441 1466 l 1,16,17
 484 1462 484 1462 630.5 1419.5 c 128,-1,18
 777 1377 777 1377 806 1377 c 0,19,20
 814 1377 814 1377 822 1381.5 c 128,-1,21
 830 1386 830 1386 841 1395.5 c 128,-1,22
 852 1405 852 1405 862.5 1415 c 128,-1,23
 873 1425 873 1425 891 1442 c 128,-1,24
 909 1459 909 1459 925 1473 c 1,25,-1
 934 1473 l 1,26,-1
 955 1448 l 1,0,-1
826 1072 m 1,27,-1
 838 1065 l 1,28,-1
 731 247 l 1,29,-1
 710 0 l 1,30,-1
 651 -9 l 1,31,-1
 735 633 l 1,32,-1
 726 633 l 1,33,34
 657 502 657 502 579.5 384 c 128,-1,35
 502 266 502 266 419 165.5 c 128,-1,36
 336 65 336 65 254 -9 c 1,37,-1
 229 -9 l 1,38,39
 165 38 165 38 136 112 c 128,-1,40
 107 186 107 186 107 320 c 0,41,42
 107 438 107 438 129 546 c 128,-1,43
 151 654 151 654 195.5 746 c 128,-1,44
 240 838 240 838 303 907 c 128,-1,45
 366 976 366 976 451.5 1018 c 128,-1,46
 537 1060 537 1060 637 1067 c 1,47,-1
 646 1067 l 1,48,-1
 798 1056 l 1,49,-1
 826 1072 l 1,27,-1
247 56 m 0,50,51
 257 56 257 56 289.5 86 c 128,-1,52
 322 116 322 116 374.5 179 c 128,-1,53
 427 242 427 242 486.5 325 c 128,-1,54
 546 408 546 408 618 528 c 128,-1,55
 690 648 690 648 755 777 c 1,56,-1
 764 845 l 1,57,-1
 780 1009 l 1,58,-1
 642 1020 l 1,59,60
 552 1018 552 1018 474 980 c 128,-1,61
 396 942 396 942 338 876.5 c 128,-1,62
 280 811 280 811 238 724 c 128,-1,63
 196 637 196 637 175 536.5 c 128,-1,64
 154 436 154 436 154 329 c 0,65,66
 154 270 154 270 161 221.5 c 128,-1,67
 168 173 168 173 178.5 143 c 128,-1,68
 189 113 189 113 202 92.5 c 128,-1,69
 215 72 215 72 226.5 64 c 128,-1,70
 238 56 238 56 247 56 c 0,50,51
EndSplineSet
Substitution2: "'case' Case-Sensitive Forms lookup 28 subtable" Atilde
Substitution2: "'aalt' Access All Alternates lookup 0 subtable" Atilde
EndChar

StartChar: adieresis
Encoding: 228 228 166
Width: 984
GlyphClass: 2
Flags: W
AnchorPoint: "Anchor-1" 0 0 basechar 0
AnchorPoint: "Anchor-0" 588 1055 basechar 0
LayerCount: 2
Fore
SplineSet
455 1345 m 0,0,1
 433 1345 433 1345 420.5 1358 c 128,-1,2
 408 1371 408 1371 408 1392 c 128,-1,3
 408 1413 408 1413 420.5 1426 c 128,-1,4
 433 1439 433 1439 454.5 1439 c 128,-1,5
 476 1439 476 1439 489 1426 c 128,-1,6
 502 1413 502 1413 502 1392 c 0,7,8
 502 1385 502 1385 500.5 1378.5 c 128,-1,9
 499 1372 499 1372 496 1367 c 128,-1,10
 493 1362 493 1362 489 1358 c 128,-1,11
 485 1354 485 1354 479.5 1351 c 128,-1,12
 474 1348 474 1348 468 1346.5 c 128,-1,13
 462 1345 462 1345 455 1345 c 0,0,1
806 1439 m 128,-1,15
 827 1439 827 1439 840 1426 c 128,-1,16
 853 1413 853 1413 853 1392 c 0,17,18
 853 1381 853 1381 849.5 1372.5 c 128,-1,19
 846 1364 846 1364 840 1358 c 128,-1,20
 834 1352 834 1352 825.5 1348.5 c 128,-1,21
 817 1345 817 1345 806 1345 c 0,22,23
 785 1345 785 1345 772 1358 c 128,-1,24
 759 1371 759 1371 759 1392 c 128,-1,25
 759 1413 759 1413 772 1426 c 128,-1,14
 785 1439 785 1439 806 1439 c 128,-1,15
826 1072 m 1,26,-1
 838 1065 l 1,27,-1
 731 247 l 1,28,-1
 710 0 l 1,29,-1
 651 -9 l 1,30,-1
 735 633 l 1,31,-1
 726 633 l 1,32,33
 657 502 657 502 579.5 384 c 128,-1,34
 502 266 502 266 419 165.5 c 128,-1,35
 336 65 336 65 254 -9 c 1,36,-1
 229 -9 l 1,37,38
 165 38 165 38 136 112 c 128,-1,39
 107 186 107 186 107 320 c 0,40,41
 107 438 107 438 129 546 c 128,-1,42
 151 654 151 654 195.5 746 c 128,-1,43
 240 838 240 838 303 907 c 128,-1,44
 366 976 366 976 451.5 1018 c 128,-1,45
 537 1060 537 1060 637 1067 c 1,46,-1
 646 1067 l 1,47,-1
 798 1056 l 1,48,-1
 826 1072 l 1,26,-1
247 56 m 0,49,50
 257 56 257 56 289.5 86 c 128,-1,51
 322 116 322 116 374.5 179 c 128,-1,52
 427 242 427 242 486.5 325 c 128,-1,53
 546 408 546 408 618 528 c 128,-1,54
 690 648 690 648 755 777 c 1,55,-1
 764 845 l 1,56,-1
 780 1009 l 1,57,-1
 642 1020 l 1,58,59
 552 1018 552 1018 474 980 c 128,-1,60
 396 942 396 942 338 876.5 c 128,-1,61
 280 811 280 811 238 724 c 128,-1,62
 196 637 196 637 175 536.5 c 128,-1,63
 154 436 154 436 154 329 c 0,64,65
 154 270 154 270 161 221.5 c 128,-1,66
 168 173 168 173 178.5 143 c 128,-1,67
 189 113 189 113 202 92.5 c 128,-1,68
 215 72 215 72 226.5 64 c 128,-1,69
 238 56 238 56 247 56 c 0,49,50
EndSplineSet
Substitution2: "'case' Case-Sensitive Forms lookup 28 subtable" Adieresis
Substitution2: "'aalt' Access All Alternates lookup 0 subtable" Adieresis
EndChar

StartChar: aring
Encoding: 229 229 167
Width: 984
GlyphClass: 2
Flags: W
AnchorPoint: "Anchor-1" 0 0 basechar 0
AnchorPoint: "Anchor-0" 588 1055 basechar 0
LayerCount: 2
Fore
SplineSet
628 1235 m 0,0,1
 563 1235 563 1235 514 1280 c 128,-1,2
 465 1325 465 1325 465 1399 c 0,3,4
 465 1468 465 1468 510.5 1514 c 128,-1,5
 556 1560 556 1560 628 1560 c 0,6,7
 679 1560 679 1560 718 1536 c 128,-1,8
 757 1512 757 1512 775 1475.5 c 128,-1,9
 793 1439 793 1439 793 1396 c 0,10,11
 793 1347 793 1347 768.5 1309.5 c 128,-1,12
 744 1272 744 1272 707 1253.5 c 128,-1,13
 670 1235 670 1235 628 1235 c 0,0,1
628 1513 m 0,14,15
 575 1513 575 1513 543.5 1481.5 c 128,-1,16
 512 1450 512 1450 512 1399 c 0,17,18
 512 1344 512 1344 545.5 1312.5 c 128,-1,19
 579 1281 579 1281 628 1281 c 0,20,21
 660 1281 660 1281 686.5 1294 c 128,-1,22
 713 1307 713 1307 730 1333.5 c 128,-1,23
 747 1360 747 1360 747 1396 c 0,24,25
 747 1446 747 1446 716 1479.5 c 128,-1,26
 685 1513 685 1513 628 1513 c 0,14,15
838 1065 m 1,27,-1
 731 247 l 1,28,-1
 710 0 l 1,29,-1
 651 -9 l 1,30,-1
 735 633 l 1,31,-1
 726 633 l 1,32,33
 657 502 657 502 579.5 384 c 128,-1,34
 502 266 502 266 419 165.5 c 128,-1,35
 336 65 336 65 254 -9 c 1,36,-1
 229 -9 l 1,37,38
 165 38 165 38 136 112 c 128,-1,39
 107 186 107 186 107 320 c 0,40,41
 107 438 107 438 129 546 c 128,-1,42
 151 654 151 654 195.5 746 c 128,-1,43
 240 838 240 838 303 907 c 128,-1,44
 366 976 366 976 451.5 1018 c 128,-1,45
 537 1060 537 1060 637 1067 c 1,46,-1
 646 1067 l 1,47,-1
 798 1056 l 1,48,-1
 826 1072 l 1,49,-1
 838 1065 l 1,27,-1
247 56 m 0,50,51
 257 56 257 56 289.5 86 c 128,-1,52
 322 116 322 116 374.5 179 c 128,-1,53
 427 242 427 242 486.5 325 c 128,-1,54
 546 408 546 408 618 528 c 128,-1,55
 690 648 690 648 755 777 c 1,56,-1
 764 845 l 1,57,-1
 780 1009 l 1,58,-1
 642 1020 l 1,59,60
 552 1018 552 1018 474 980 c 128,-1,61
 396 942 396 942 338 876.5 c 128,-1,62
 280 811 280 811 238 724 c 128,-1,63
 196 637 196 637 175 536.5 c 128,-1,64
 154 436 154 436 154 329 c 0,65,66
 154 270 154 270 161 221.5 c 128,-1,67
 168 173 168 173 178.5 143 c 128,-1,68
 189 113 189 113 202 92.5 c 128,-1,69
 215 72 215 72 226.5 64 c 128,-1,70
 238 56 238 56 247 56 c 0,50,51
EndSplineSet
Substitution2: "'case' Case-Sensitive Forms lookup 28 subtable" Aring
Substitution2: "'aalt' Access All Alternates lookup 0 subtable" Aring
EndChar

StartChar: ae
Encoding: 230 230 168
Width: 1334
GlyphClass: 2
Flags: W
AnchorPoint: "Anchor-1" 1410 0 basechar 0
AnchorPoint: "Anchor-0" 815 1055 basechar 0
LayerCount: 2
Fore
SplineSet
663 1067 m 1,0,-1
 902 1007 l 1,1,2
 986 1064 986 1064 1085 1067 c 1,3,-1
 1098 1067 l 1,4,5
 1185 1060 1185 1060 1228.5 1019 c 128,-1,6
 1272 978 1272 978 1272 906 c 0,7,8
 1272 773 1272 773 1122 646.5 c 128,-1,9
 972 520 972 520 679 410 c 1,10,11
 677 377 677 377 677 345 c 0,12,13
 677 186 677 186 722.5 112 c 128,-1,14
 768 38 768 38 862 38 c 0,15,16
 948 38 948 38 1025.5 99.5 c 128,-1,17
 1103 161 1103 161 1167 276 c 1,18,-1
 1183 276 l 1,19,-1
 1205 245 l 1,20,21
 1135 127 1135 127 1054 64.5 c 128,-1,22
 973 2 973 2 866 -11 c 1,23,-1
 845 -11 l 1,24,25
 730 2 730 2 680 85 c 128,-1,26
 630 168 630 168 630 334 c 0,27,28
 630 451 630 451 646 542 c 1,29,30
 469 192 469 192 271 -9 c 1,31,-1
 245 -9 l 1,32,33
 181 38 181 38 152.5 112 c 128,-1,34
 124 186 124 186 124 320 c 0,35,36
 124 438 124 438 146 546 c 128,-1,37
 168 654 168 654 212.5 746 c 128,-1,38
 257 838 257 838 319.5 907 c 128,-1,39
 382 976 382 976 467.5 1018 c 128,-1,40
 553 1060 553 1060 653 1067 c 1,41,-1
 663 1067 l 1,0,-1
855 967 m 1,42,-1
 659 1020 l 1,43,44
 570 1018 570 1018 491.5 980 c 128,-1,45
 413 942 413 942 355 876.5 c 128,-1,46
 297 811 297 811 255 724 c 128,-1,47
 213 637 213 637 192 536.5 c 128,-1,48
 171 436 171 436 171 329 c 0,49,50
 171 270 171 270 178 221.5 c 128,-1,51
 185 173 185 173 195.5 143 c 128,-1,52
 206 113 206 113 218.5 92.5 c 128,-1,53
 231 72 231 72 242.5 64 c 128,-1,54
 254 56 254 56 263 56 c 0,55,56
 270 56 270 56 288.5 73 c 128,-1,57
 307 90 307 90 335 124 c 128,-1,58
 363 158 363 158 397 204 c 128,-1,59
 431 250 431 250 471.5 313 c 128,-1,60
 512 376 512 376 553 446.5 c 128,-1,61
 594 517 594 517 638.5 604.5 c 128,-1,62
 683 692 683 692 722 782 c 1,63,64
 780 898 780 898 855 967 c 1,42,-1
1090 1018 m 0,65,66
 989 1018 989 1018 902 947.5 c 128,-1,67
 815 877 815 877 757.5 750 c 128,-1,68
 700 623 700 623 684 463 c 1,69,70
 943 559 943 559 1083 672.5 c 128,-1,71
 1223 786 1223 786 1223 898 c 0,72,73
 1223 952 1223 952 1189 985 c 128,-1,74
 1155 1018 1155 1018 1090 1018 c 0,65,66
EndSplineSet
Substitution2: "'case' Case-Sensitive Forms lookup 28 subtable" AE
Substitution2: "'aalt' Access All Alternates lookup 0 subtable" AE
EndChar

StartChar: ccedilla
Encoding: 231 231 169
Width: 753
GlyphClass: 2
Flags: W
AnchorPoint: "Anchor-1" 369 0 basechar 0
AnchorPoint: "Anchor-0" 516 1055 basechar 0
LayerCount: 2
Fore
SplineSet
755 1004 m 1,0,-1
 740 971 l 1,1,-1
 728 964 l 1,2,3
 644 1018 644 1018 579 1018 c 0,4,5
 448 1017 448 1017 352 933 c 128,-1,6
 256 849 256 849 206 694.5 c 128,-1,7
 156 540 156 540 156 329 c 0,8,9
 156 226 156 226 176.5 160.5 c 128,-1,10
 197 95 197 95 234 66.5 c 128,-1,11
 271 38 271 38 327 38 c 0,12,13
 362 38 362 38 396.5 49 c 128,-1,14
 431 60 431 60 469 86 c 128,-1,15
 507 112 507 112 546 160.5 c 128,-1,16
 585 209 585 209 619 276 c 1,17,-1
 633 276 l 1,18,-1
 653 245 l 1,19,20
 589 131 589 131 521.5 73 c 128,-1,21
 454 15 454 15 374 -2 c 1,22,-1
 334 -129 l 1,23,-1
 406 -176 l 2,24,25
 446 -201 446 -201 464.5 -228 c 128,-1,26
 483 -255 483 -255 483 -292 c 0,27,28
 483 -348 483 -348 442.5 -382 c 128,-1,29
 402 -416 402 -416 343 -416 c 0,30,31
 296 -416 296 -416 261 -393 c 128,-1,32
 226 -370 226 -370 205 -339 c 1,33,-1
 220 -296 l 1,34,-1
 229 -296 l 1,35,36
 254 -333 254 -333 278.5 -351 c 128,-1,37
 303 -369 303 -369 343 -369 c 0,38,39
 386 -369 386 -369 411.5 -348.5 c 128,-1,40
 437 -328 437 -328 437 -292 c 0,41,42
 437 -266 437 -266 424 -250 c 128,-1,43
 411 -234 411 -234 381 -214 c 2,44,-1
 280 -149 l 1,45,-1
 325 -11 l 1,46,-1
 310 -11 l 1,47,48
 273 -5 273 -5 246.5 4.5 c 128,-1,49
 220 14 220 14 192.5 37 c 128,-1,50
 165 60 165 60 148 95.5 c 128,-1,51
 131 131 131 131 120 191 c 128,-1,52
 109 251 109 251 109 332 c 0,53,54
 109 437 109 437 122.5 530.5 c 128,-1,55
 136 624 136 624 162.5 706.5 c 128,-1,56
 189 789 189 789 230.5 854.5 c 128,-1,57
 272 920 272 920 327 967 c 128,-1,58
 382 1014 382 1014 454.5 1039.5 c 128,-1,59
 527 1065 527 1065 612 1065 c 1,60,-1
 742 1020 l 1,61,-1
 755 1004 l 1,0,-1
EndSplineSet
Substitution2: "'case' Case-Sensitive Forms lookup 28 subtable" Ccedilla
Substitution2: "'aalt' Access All Alternates lookup 0 subtable" Ccedilla
EndChar

StartChar: egrave
Encoding: 232 232 170
Width: 825
GlyphClass: 2
Flags: W
AnchorPoint: "Anchor-1" 361 0 basechar 0
AnchorPoint: "Anchor-0" 543 1055 basechar 0
LayerCount: 2
Fore
SplineSet
724 1212 m 1,0,-1
 712 1210 l 1,1,2
 528 1372 528 1372 376 1524 c 1,3,-1
 374 1537 l 1,4,-1
 397 1560 l 1,5,-1
 408 1562 l 1,6,7
 582 1384 582 1384 749 1243 c 1,8,-1
 724 1212 l 1,0,-1
663 276 m 1,9,-1
 684 245 l 1,10,11
 614 127 614 127 533 64.5 c 128,-1,12
 452 2 452 2 345 -11 c 1,13,-1
 325 -11 l 1,14,15
 210 2 210 2 159.5 85.5 c 128,-1,16
 109 169 109 169 109 334 c 0,17,18
 109 488 109 488 144.5 623.5 c 128,-1,19
 180 759 180 759 241 855 c 128,-1,20
 302 951 302 951 386 1008 c 128,-1,21
 470 1065 470 1065 565 1067 c 1,22,-1
 577 1067 l 1,23,24
 621 1064 621 1064 654 1051.5 c 128,-1,25
 687 1039 687 1039 708.5 1018.5 c 128,-1,26
 730 998 730 998 740.5 970 c 128,-1,27
 751 942 751 942 751 906 c 0,28,29
 751 773 751 773 601 646.5 c 128,-1,30
 451 520 451 520 158 410 c 1,31,-1
 156 345 l 1,32,33
 156 239 156 239 176.5 170.5 c 128,-1,34
 197 102 197 102 237.5 70 c 128,-1,35
 278 38 278 38 341 38 c 0,36,37
 398 38 398 38 452.5 66 c 128,-1,38
 507 94 507 94 555.5 147 c 128,-1,39
 604 200 604 200 646 276 c 1,40,-1
 663 276 l 1,9,-1
570 1018 m 0,41,42
 469 1018 469 1018 381.5 947.5 c 128,-1,43
 294 877 294 877 236.5 750 c 128,-1,44
 179 623 179 623 163 463 c 1,45,46
 422 559 422 559 562 672.5 c 128,-1,47
 702 786 702 786 702 898 c 0,48,49
 702 933 702 933 688.5 959.5 c 128,-1,50
 675 986 675 986 644.5 1002 c 128,-1,51
 614 1018 614 1018 570 1018 c 0,41,42
EndSplineSet
Substitution2: "'case' Case-Sensitive Forms lookup 28 subtable" Egrave
Substitution2: "'aalt' Access All Alternates lookup 0 subtable" Egrave
EndChar

StartChar: eacute
Encoding: 233 233 171
Width: 825
GlyphClass: 2
Flags: W
AnchorPoint: "Anchor-1" 361 0 basechar 0
AnchorPoint: "Anchor-0" 543 1055 basechar 0
LayerCount: 2
Fore
SplineSet
780 1537 m 1,0,-1
 777 1524 l 1,1,2
 625 1372 625 1372 441 1210 c 1,3,-1
 430 1212 l 1,4,-1
 404 1243 l 1,5,6
 570 1384 570 1384 744 1562 c 1,7,-1
 757 1560 l 1,8,-1
 780 1537 l 1,0,-1
751 906 m 0,9,10
 751 773 751 773 601 646.5 c 128,-1,11
 451 520 451 520 158 410 c 1,12,-1
 156 345 l 1,13,14
 156 239 156 239 176.5 170.5 c 128,-1,15
 197 102 197 102 237.5 70 c 128,-1,16
 278 38 278 38 341 38 c 0,17,18
 398 38 398 38 452.5 66 c 128,-1,19
 507 94 507 94 555.5 147 c 128,-1,20
 604 200 604 200 646 276 c 1,21,-1
 663 276 l 1,22,-1
 684 245 l 1,23,24
 614 127 614 127 533 64.5 c 128,-1,25
 452 2 452 2 345 -11 c 1,26,-1
 325 -11 l 1,27,28
 210 2 210 2 159.5 85.5 c 128,-1,29
 109 169 109 169 109 334 c 0,30,31
 109 488 109 488 144.5 623.5 c 128,-1,32
 180 759 180 759 241 855 c 128,-1,33
 302 951 302 951 386 1008 c 128,-1,34
 470 1065 470 1065 565 1067 c 1,35,-1
 577 1067 l 1,36,37
 621 1064 621 1064 654 1051.5 c 128,-1,38
 687 1039 687 1039 708.5 1018.5 c 128,-1,39
 730 998 730 998 740.5 970 c 128,-1,40
 751 942 751 942 751 906 c 0,9,10
570 1018 m 0,41,42
 469 1018 469 1018 381.5 947.5 c 128,-1,43
 294 877 294 877 236.5 750 c 128,-1,44
 179 623 179 623 163 463 c 1,45,46
 422 559 422 559 562 672.5 c 128,-1,47
 702 786 702 786 702 898 c 0,48,49
 702 933 702 933 688.5 959.5 c 128,-1,50
 675 986 675 986 644.5 1002 c 128,-1,51
 614 1018 614 1018 570 1018 c 0,41,42
EndSplineSet
Substitution2: "'case' Case-Sensitive Forms lookup 28 subtable" Eacute
Substitution2: "'aalt' Access All Alternates lookup 0 subtable" Eacute
EndChar

StartChar: ecircumflex
Encoding: 234 234 172
Width: 825
GlyphClass: 2
Flags: W
AnchorPoint: "Anchor-1" 361 0 basechar 0
AnchorPoint: "Anchor-0" 543 1055 basechar 0
LayerCount: 2
Fore
SplineSet
595 1513 m 1,0,-1
 637 1513 l 1,1,2
 739 1346 739 1346 838 1219 c 1,3,-1
 813 1190 l 1,4,-1
 800 1190 l 1,5,6
 711 1308 711 1308 612 1464 c 1,7,8
 473 1305 473 1305 355 1190 c 1,9,-1
 343 1190 l 1,10,-1
 325 1219 l 1,11,12
 339 1233 339 1233 353.5 1247 c 128,-1,13
 368 1261 368 1261 384 1278 c 128,-1,14
 400 1295 400 1295 411.5 1307.5 c 128,-1,15
 423 1320 423 1320 441.5 1340.5 c 128,-1,16
 460 1361 460 1361 469.5 1371 c 128,-1,17
 479 1381 479 1381 500.5 1405.5 c 128,-1,18
 522 1430 522 1430 530 1439 c 128,-1,19
 538 1448 538 1448 563 1476.5 c 128,-1,20
 588 1505 588 1505 595 1513 c 1,0,-1
751 906 m 0,21,22
 751 773 751 773 601 646.5 c 128,-1,23
 451 520 451 520 158 410 c 1,24,-1
 156 345 l 1,25,26
 156 239 156 239 176.5 170.5 c 128,-1,27
 197 102 197 102 237.5 70 c 128,-1,28
 278 38 278 38 341 38 c 0,29,30
 398 38 398 38 452.5 66 c 128,-1,31
 507 94 507 94 555.5 147 c 128,-1,32
 604 200 604 200 646 276 c 1,33,-1
 663 276 l 1,34,-1
 684 245 l 1,35,36
 614 127 614 127 533 64.5 c 128,-1,37
 452 2 452 2 345 -11 c 1,38,-1
 325 -11 l 1,39,40
 210 2 210 2 159.5 85.5 c 128,-1,41
 109 169 109 169 109 334 c 0,42,43
 109 488 109 488 144.5 623.5 c 128,-1,44
 180 759 180 759 241 855 c 128,-1,45
 302 951 302 951 386 1008 c 128,-1,46
 470 1065 470 1065 565 1067 c 1,47,-1
 577 1067 l 1,48,49
 621 1064 621 1064 654 1051.5 c 128,-1,50
 687 1039 687 1039 708.5 1018.5 c 128,-1,51
 730 998 730 998 740.5 970 c 128,-1,52
 751 942 751 942 751 906 c 0,21,22
570 1018 m 0,53,54
 469 1018 469 1018 381.5 947.5 c 128,-1,55
 294 877 294 877 236.5 750 c 128,-1,56
 179 623 179 623 163 463 c 1,57,58
 422 559 422 559 562 672.5 c 128,-1,59
 702 786 702 786 702 898 c 0,60,61
 702 933 702 933 688.5 959.5 c 128,-1,62
 675 986 675 986 644.5 1002 c 128,-1,63
 614 1018 614 1018 570 1018 c 0,53,54
EndSplineSet
Substitution2: "'case' Case-Sensitive Forms lookup 28 subtable" Ecircumflex
Substitution2: "'aalt' Access All Alternates lookup 0 subtable" Ecircumflex
EndChar

StartChar: edieresis
Encoding: 235 235 173
Width: 825
GlyphClass: 2
Flags: W
AnchorPoint: "Anchor-1" 361 0 basechar 0
AnchorPoint: "Anchor-0" 543 1055 basechar 0
LayerCount: 2
Fore
SplineSet
410.5 1345 m 128,-1,1
 389 1345 389 1345 376.5 1358 c 128,-1,2
 364 1371 364 1371 364 1392 c 128,-1,3
 364 1413 364 1413 376.5 1426 c 128,-1,4
 389 1439 389 1439 410.5 1439 c 128,-1,5
 432 1439 432 1439 444.5 1426 c 128,-1,6
 457 1413 457 1413 457 1392 c 128,-1,7
 457 1371 457 1371 444.5 1358 c 128,-1,0
 432 1345 432 1345 410.5 1345 c 128,-1,1
761.5 1439 m 128,-1,9
 783 1439 783 1439 795.5 1426 c 128,-1,10
 808 1413 808 1413 808 1392 c 128,-1,11
 808 1371 808 1371 795.5 1358 c 128,-1,12
 783 1345 783 1345 761.5 1345 c 128,-1,13
 740 1345 740 1345 727.5 1358 c 128,-1,14
 715 1371 715 1371 715 1392 c 128,-1,15
 715 1413 715 1413 727.5 1426 c 128,-1,8
 740 1439 740 1439 761.5 1439 c 128,-1,9
751 906 m 0,16,17
 751 773 751 773 601 646.5 c 128,-1,18
 451 520 451 520 158 410 c 1,19,-1
 156 345 l 1,20,21
 156 239 156 239 176.5 170.5 c 128,-1,22
 197 102 197 102 237.5 70 c 128,-1,23
 278 38 278 38 341 38 c 0,24,25
 398 38 398 38 452.5 66 c 128,-1,26
 507 94 507 94 555.5 147 c 128,-1,27
 604 200 604 200 646 276 c 1,28,-1
 663 276 l 1,29,-1
 684 245 l 1,30,31
 614 127 614 127 533 64.5 c 128,-1,32
 452 2 452 2 345 -11 c 1,33,-1
 325 -11 l 1,34,35
 210 2 210 2 159.5 85.5 c 128,-1,36
 109 169 109 169 109 334 c 0,37,38
 109 488 109 488 144.5 623.5 c 128,-1,39
 180 759 180 759 241 855 c 128,-1,40
 302 951 302 951 386 1008 c 128,-1,41
 470 1065 470 1065 565 1067 c 1,42,-1
 577 1067 l 1,43,44
 621 1064 621 1064 654 1051.5 c 128,-1,45
 687 1039 687 1039 708.5 1018.5 c 128,-1,46
 730 998 730 998 740.5 970 c 128,-1,47
 751 942 751 942 751 906 c 0,16,17
570 1018 m 0,48,49
 469 1018 469 1018 381.5 947.5 c 128,-1,50
 294 877 294 877 236.5 750 c 128,-1,51
 179 623 179 623 163 463 c 1,52,53
 422 559 422 559 562 672.5 c 128,-1,54
 702 786 702 786 702 898 c 0,55,56
 702 933 702 933 688.5 959.5 c 128,-1,57
 675 986 675 986 644.5 1002 c 128,-1,58
 614 1018 614 1018 570 1018 c 0,48,49
EndSplineSet
Substitution2: "'case' Case-Sensitive Forms lookup 28 subtable" Edieresis
Substitution2: "'aalt' Access All Alternates lookup 0 subtable" Edieresis
EndChar

StartChar: igrave
Encoding: 236 236 174
Width: 473
GlyphClass: 2
Flags: W
AnchorPoint: "Anchor-1" 0 0 basechar 0
AnchorPoint: "Anchor-0" 300 1055 basechar 0
LayerCount: 2
Fore
SplineSet
154 1560 m 1,0,-1
 165 1562 l 1,1,2
 340 1384 340 1384 506 1243 c 1,3,-1
 481 1212 l 1,4,-1
 470 1210 l 1,5,6
 286 1372 286 1372 133 1524 c 1,7,-1
 131 1537 l 1,8,-1
 154 1560 l 1,0,-1
222 247 m 1,9,-1
 205 0 l 1,10,-1
 142 -9 l 1,11,-1
 256 845 l 1,12,-1
 271 1056 l 1,13,-1
 329 1065 l 1,14,-1
 222 247 l 1,9,-1
EndSplineSet
Substitution2: "'case' Case-Sensitive Forms lookup 28 subtable" Igrave
Substitution2: "'aalt' Access All Alternates lookup 0 subtable" Igrave
EndChar

StartChar: iacute
Encoding: 237 237 175
Width: 473
GlyphClass: 2
Flags: W
AnchorPoint: "Anchor-1" 0 0 basechar 0
AnchorPoint: "Anchor-0" 300 1055 basechar 0
LayerCount: 2
Fore
SplineSet
514 1560 m 1,0,-1
 537 1537 l 1,1,-1
 535 1524 l 1,2,3
 382 1372 382 1372 198 1210 c 1,4,-1
 187 1212 l 1,5,-1
 161 1243 l 1,6,7
 327 1384 327 1384 502 1562 c 1,8,-1
 514 1560 l 1,0,-1
222 247 m 1,9,-1
 205 0 l 1,10,-1
 142 -9 l 1,11,-1
 256 845 l 1,12,-1
 271 1056 l 1,13,-1
 329 1065 l 1,14,-1
 222 247 l 1,9,-1
EndSplineSet
Substitution2: "'case' Case-Sensitive Forms lookup 28 subtable" Iacute
Substitution2: "'aalt' Access All Alternates lookup 0 subtable" Iacute
EndChar

StartChar: icircumflex
Encoding: 238 238 176
Width: 473
GlyphClass: 2
Flags: W
AnchorPoint: "Anchor-1" 0 0 basechar 0
AnchorPoint: "Anchor-0" 300 1055 basechar 0
LayerCount: 2
Fore
SplineSet
100 1190 m 1,0,-1
 82 1219 l 1,1,2
 97 1233 97 1233 111 1247 c 128,-1,3
 125 1261 125 1261 141 1278 c 128,-1,4
 157 1295 157 1295 168.5 1307.5 c 128,-1,5
 180 1320 180 1320 199 1340.5 c 128,-1,6
 218 1361 218 1361 227 1371 c 128,-1,7
 236 1381 236 1381 258 1405.5 c 128,-1,8
 280 1430 280 1430 287.5 1439 c 128,-1,9
 295 1448 295 1448 320 1476.5 c 128,-1,10
 345 1505 345 1505 352 1513 c 1,11,-1
 394 1513 l 1,12,13
 496 1346 496 1346 595 1219 c 1,14,-1
 570 1190 l 1,15,-1
 557 1190 l 1,16,17
 468 1308 468 1308 369 1464 c 1,18,19
 230 1305 230 1305 112 1190 c 1,20,-1
 100 1190 l 1,0,-1
222 247 m 1,21,-1
 205 0 l 1,22,-1
 142 -9 l 1,23,-1
 256 845 l 1,24,-1
 271 1056 l 1,25,-1
 329 1065 l 1,26,-1
 222 247 l 1,21,-1
EndSplineSet
Substitution2: "'case' Case-Sensitive Forms lookup 28 subtable" Icircumflex
Substitution2: "'aalt' Access All Alternates lookup 0 subtable" Icircumflex
EndChar

StartChar: idieresis
Encoding: 239 239 177
Width: 473
GlyphClass: 2
Flags: W
AnchorPoint: "Anchor-1" 0 0 basechar 0
AnchorPoint: "Anchor-0" 300 1055 basechar 0
LayerCount: 2
Fore
SplineSet
224.5 1439 m 128,-1,1
 246 1439 246 1439 258.5 1426 c 128,-1,2
 271 1413 271 1413 271 1392 c 128,-1,3
 271 1371 271 1371 258.5 1358 c 128,-1,4
 246 1345 246 1345 224.5 1345 c 128,-1,5
 203 1345 203 1345 190.5 1358 c 128,-1,6
 178 1371 178 1371 178 1392 c 128,-1,7
 178 1413 178 1413 190.5 1426 c 128,-1,0
 203 1439 203 1439 224.5 1439 c 128,-1,1
463 1439 m 0,8,9
 473 1439 473 1439 482 1435.5 c 128,-1,10
 491 1432 491 1432 496.5 1426 c 128,-1,11
 502 1420 502 1420 505 1411.5 c 128,-1,12
 508 1403 508 1403 508 1392 c 0,13,14
 508 1370 508 1370 496 1357.5 c 128,-1,15
 484 1345 484 1345 462.5 1345 c 128,-1,16
 441 1345 441 1345 428.5 1358 c 128,-1,17
 416 1371 416 1371 416 1392 c 128,-1,18
 416 1413 416 1413 428.5 1426 c 128,-1,19
 441 1439 441 1439 463 1439 c 0,8,9
222 247 m 1,20,-1
 205 0 l 1,21,-1
 142 -9 l 1,22,-1
 256 845 l 1,23,-1
 271 1056 l 1,24,-1
 329 1065 l 1,25,-1
 222 247 l 1,20,-1
EndSplineSet
Ligature2: "'liga' Standard Ligatures lookup 30 subtable" dieresis i
Substitution2: "'case' Case-Sensitive Forms lookup 28 subtable" Idieresis
Substitution2: "'aalt' Access All Alternates lookup 0 subtable" Idieresis
EndChar

StartChar: eth
Encoding: 240 240 178
Width: 984
GlyphClass: 2
Flags: W
LayerCount: 2
Fore
SplineSet
887 1485 m 1,0,-1
 630 1377 l 1,1,2
 734 1251 734 1251 788 1090 c 128,-1,3
 842 929 842 929 842 747 c 0,4,5
 842 534 842 534 787 365.5 c 128,-1,6
 732 197 732 197 625.5 96 c 128,-1,7
 519 -5 519 -5 376 -14 c 1,8,-1
 364 -14 l 1,9,10
 247 -7 247 -7 192.5 71.5 c 128,-1,11
 138 150 138 150 138 312 c 0,12,13
 138 526 138 526 193.5 695.5 c 128,-1,14
 249 865 249 865 356.5 965.5 c 128,-1,15
 464 1066 464 1066 606 1069 c 1,16,-1
 619 1069 l 1,17,18
 709 1062 709 1062 757 1018 c 1,19,20
 702 1213 702 1213 579 1357 c 1,21,-1
 254 1221 l 1,22,-1
 247 1228 l 1,23,-1
 241 1265 l 1,24,-1
 546 1394 l 1,25,26
 413 1528 413 1528 241 1604 c 1,27,-1
 241 1615 l 1,28,-1
 263 1639 l 1,29,-1
 274 1639 l 1,30,31
 462 1561 462 1561 597 1415 c 1,32,-1
 871 1529 l 1,33,-1
 880 1522 l 1,34,-1
 887 1485 l 1,0,-1
374 35 m 0,35,36
 466 35 466 35 544.5 89 c 128,-1,37
 623 143 623 143 677.5 237 c 128,-1,38
 732 331 732 331 762.5 461 c 128,-1,39
 793 591 793 591 793 740 c 0,40,41
 793 807 793 807 787 873 c 1,42,43
 752 1020 752 1020 606 1020 c 0,44,45
 483 1020 483 1020 386 928.5 c 128,-1,46
 289 837 289 837 237 678 c 128,-1,47
 185 519 185 519 185 320 c 0,48,49
 185 223 185 223 205 160 c 128,-1,50
 225 97 225 97 266.5 66 c 128,-1,51
 308 35 308 35 374 35 c 0,35,36
EndSplineSet
Substitution2: "'case' Case-Sensitive Forms lookup 28 subtable" Eth
Substitution2: "'aalt' Access All Alternates lookup 0 subtable" Eth
EndChar

